SplineFontDB: 3.0
FontName: RadleyRegular
FullName: Radley Regular
FamilyName: Radley
Weight: Book
Copyright: Copyright (c) 2011-12 by vernon adams. All rights reserved.
Version: 1.2
ItalicAngle: 0
UnderlinePosition: -307
UnderlineWidth: 102
Ascent: 1638
Descent: 410
sfntRevision: 0x00013333
LayerCount: 2
Layer: 0 1 "Back"  1
Layer: 1 1 "Fore"  0
XUID: [1021 332 1330122705 7016086]
FSType: 0
OS2Version: 1
OS2_WeightWidthSlopeOnly: 0
OS2_UseTypoMetrics: 1
CreationTime: 1340269726
ModificationTime: 1352276114
PfmFamily: 17
TTFWeight: 400
TTFWidth: 5
LineGap: 0
VLineGap: 0
Panose: 2 0 5 3 0 0 0 2 0 3
OS2TypoAscent: 1973
OS2TypoAOffset: 0
OS2TypoDescent: -615
OS2TypoDOffset: 0
OS2TypoLinegap: 0
OS2WinAscent: 1973
OS2WinAOffset: 0
OS2WinDescent: 615
OS2WinDOffset: 0
HheadAscent: 1973
HheadAOffset: 0
HheadDescent: -615
HheadDOffset: 0
OS2SubXSize: 1331
OS2SubYSize: 1228
OS2SubXOff: 0
OS2SubYOff: 153
OS2SupXSize: 1331
OS2SupYSize: 1228
OS2SupXOff: 0
OS2SupYOff: 716
OS2StrikeYSize: 102
OS2StrikeYPos: 539
OS2Vendor: 'newt'
OS2CodePages: 20000093.00000000
OS2UnicodeRanges: 00000007.00000000.00000000.00000000
Lookup: 258 0 0 "'kern' Horizontal Kerning in Latin lookup 0"  {"'kern' Horizontal Kerning in Latin lookup 0 subtable"  } ['kern' ('latn' <'dflt' > ) ]
MarkAttachClasses: 1
DEI: 91125
ShortTable: cvt  2
  68
  1297
EndShort
ShortTable: maxp 16
  1
  0
  377
  125
  5
  121
  4
  2
  0
  1
  1
  0
  64
  0
  2
  2
EndShort
LangName: 1033 "" "" "" "newt : Radley Regular : 7-11-2012" "" "Version 1.2" "" "Radley is a trademark of vernon adams." "vernon adams" "vernon adams" "Copyright (c) 2011-12 by vernon adams. All rights reserved." "" "http://www.newtypography.co.uk" "" "http://scripts.sil.org/OFL" "" "" "" "Radley" 
GaspTable: 1 65535 2 0
Encoding: Custom
UnicodeInterp: none
NameList: Adobe Glyph List
DisplaySize: -48
AntiAlias: 1
FitToEm: 1
WinInfo: 100 25 13
BeginChars: 410 410

StartChar: .notdef
Encoding: 397 -1 0
Width: 748
Flags: W
LayerCount: 2
Fore
SplineSet
136 68 m 1,0,-1
 544 68 l 1,1,-1
 544 1297 l 1,2,-1
 136 1297 l 1,3,-1
 136 68 l 1,0,-1
68 0 m 1,4,-1
 68 1365 l 1,5,-1
 612 1365 l 1,6,-1
 612 0 l 1,7,-1
 68 0 l 1,4,-1
EndSplineSet
EndChar

StartChar: exclam
Encoding: 1 33 4
Width: 567
Flags: W
LayerCount: 2
Fore
SplineSet
279 1312 m 0,0,1
 337 1312 337 1312 373 1284 c 128,-1,2
 409 1256 409 1256 409 1199 c 0,3,4
 409 1138 409 1138 397 1028.5 c 128,-1,5
 385 919 385 919 374 841.5 c 128,-1,6
 363 764 363 764 341.5 625 c 128,-1,7
 320 486 320 486 317 466 c 0,8,9
 316 463 316 463 315 448 c 128,-1,10
 314 433 314 433 312 419 c 128,-1,11
 310 405 310 405 306.5 389.5 c 128,-1,12
 303 374 303 374 297 365 c 128,-1,13
 291 356 291 356 283 356 c 0,14,15
 273 356 273 356 266.5 363 c 128,-1,16
 260 370 260 370 256.5 383 c 128,-1,17
 253 396 253 396 251.5 406.5 c 128,-1,18
 250 417 250 417 249 431.5 c 128,-1,19
 248 446 248 446 248 450 c 0,20,21
 241 506 241 506 214 674 c 128,-1,22
 187 842 187 842 170 979 c 128,-1,23
 153 1116 153 1116 153 1201 c 0,24,25
 153 1312 153 1312 279 1312 c 0,0,1
162 92 m 0,26,27
 162 143 162 143 197 179.5 c 128,-1,28
 232 216 232 216 283 216 c 128,-1,29
 334 216 334 216 370.5 179.5 c 128,-1,30
 407 143 407 143 407 92 c 128,-1,31
 407 41 407 41 370.5 6 c 128,-1,32
 334 -29 334 -29 283 -29 c 0,33,34
 233 -29 233 -29 197.5 6.5 c 128,-1,35
 162 42 162 42 162 92 c 0,26,27
EndSplineSet
EndChar

StartChar: quotedbl
Encoding: 2 34 5
Width: 748
Flags: W
LayerCount: 2
Fore
SplineSet
519 753 m 1,0,1
 496 807 496 807 463 978 c 128,-1,2
 430 1149 430 1149 430 1200 c 0,3,4
 430 1248 430 1248 457 1275 c 128,-1,5
 484 1302 484 1302 532 1302 c 128,-1,6
 580 1302 580 1302 607 1275 c 128,-1,7
 634 1248 634 1248 634 1200 c 0,8,9
 634 1138 634 1138 596.5 945.5 c 128,-1,10
 559 753 559 753 519 753 c 1,0,1
203 753 m 1,11,12
 180 803 180 803 146.5 976.5 c 128,-1,13
 113 1150 113 1150 113 1200 c 0,14,15
 113 1248 113 1248 140 1275 c 128,-1,16
 167 1302 167 1302 215 1302 c 128,-1,17
 263 1302 263 1302 290 1275 c 128,-1,18
 317 1248 317 1248 317 1200 c 0,19,20
 317 1111 317 1111 278 931.5 c 128,-1,21
 239 752 239 752 203 753 c 1,11,12
EndSplineSet
EndChar

StartChar: numbersign
Encoding: 3 35 6
Width: 1136
Flags: W
LayerCount: 2
Fore
SplineSet
643 390 m 1,0,-1
 370 390 l 1,1,2
 344 285 344 285 302.5 88 c 128,-1,3
 261 -109 261 -109 252 -151 c 0,4,5
 243 -192 243 -192 224.5 -215.5 c 128,-1,6
 206 -239 206 -239 169 -239 c 0,7,8
 141 -239 141 -239 122.5 -209 c 128,-1,9
 104 -179 104 -179 104 -150 c 0,10,11
 104 -138 104 -138 117 -86 c 128,-1,12
 130 -34 130 -34 151 40 c 128,-1,13
 172 114 172 114 191 180.5 c 128,-1,14
 210 247 210 247 229.5 313 c 128,-1,15
 249 379 249 379 252 390 c 1,16,17
 244 390 244 390 218 388.5 c 128,-1,18
 192 387 192 387 176 387 c 0,19,20
 67 387 67 387 67 447 c 0,21,22
 67 504 67 504 195 504 c 0,23,24
 215 504 215 504 245.5 502.5 c 128,-1,25
 276 501 276 501 283 501 c 1,26,-1
 331 674 l 1,27,28
 322 674 322 674 290.5 672 c 128,-1,29
 259 670 259 670 240 670 c 0,30,31
 122 670 122 670 122 731 c 0,32,33
 122 789 122 789 260 789 c 0,34,35
 284 789 284 789 320 787 c 128,-1,36
 356 785 356 785 362 785 c 1,37,38
 371 816 371 816 392 887.5 c 128,-1,39
 413 959 413 959 424 998.5 c 128,-1,40
 435 1038 435 1038 450 1098 c 128,-1,41
 465 1158 465 1158 474.5 1211 c 128,-1,42
 484 1264 484 1264 490 1316 c 0,43,44
 493 1340 493 1340 519.5 1351 c 128,-1,45
 546 1362 546 1362 574 1362 c 0,46,47
 616 1362 616 1362 628.5 1343 c 128,-1,48
 641 1324 641 1324 641 1280 c 0,49,50
 641 1266 641 1266 604.5 1156.5 c 128,-1,51
 568 1047 568 1047 525.5 924 c 128,-1,52
 483 801 483 801 478 785 c 1,53,-1
 747 785 l 1,54,55
 754 812 754 812 770.5 879 c 128,-1,56
 787 946 787 946 795.5 982.5 c 128,-1,57
 804 1019 804 1019 816.5 1075 c 128,-1,58
 829 1131 829 1131 838.5 1179.5 c 128,-1,59
 848 1228 848 1228 855 1275 c 128,-1,60
 862 1322 862 1322 880.5 1342 c 128,-1,61
 899 1362 899 1362 946 1362 c 0,62,63
 1023 1362 1023 1362 1023 1280 c 0,64,65
 1023 1263 1023 1263 990 1156.5 c 128,-1,66
 957 1050 957 1050 914.5 921.5 c 128,-1,67
 872 793 872 793 869 785 c 1,68,69
 876 785 876 785 903 786 c 128,-1,70
 930 787 930 787 949 787 c 0,71,72
 1075 787 1075 787 1075 732 c 0,73,74
 1075 669 1075 669 944 669 c 0,75,76
 920 669 920 669 882 671.5 c 128,-1,77
 844 674 844 674 836 674 c 1,78,-1
 788 501 l 1,79,80
 795 501 795 501 826 502.5 c 128,-1,81
 857 504 857 504 878 504 c 0,82,83
 1021 504 1021 504 1021 441 c 0,84,85
 1021 384 1021 384 884 384 c 0,86,87
 855 384 855 384 811 387 c 128,-1,88
 767 390 767 390 760 390 c 1,89,90
 740 310 740 310 720.5 220.5 c 128,-1,91
 701 131 701 131 678.5 20.5 c 128,-1,92
 656 -90 656 -90 643 -149 c 0,93,94
 623 -239 623 -239 551 -239 c 0,95,96
 523 -239 523 -239 504.5 -209 c 128,-1,97
 486 -179 486 -179 486 -150 c 0,98,99
 486 -132 486 -132 519 -18.5 c 128,-1,100
 552 95 552 95 596.5 240 c 128,-1,101
 641 385 641 385 643 390 c 1,0,-1
719 674 m 1,102,-1
 445 674 l 1,103,-1
 398 501 l 1,104,-1
 674 501 l 1,105,-1
 719 674 l 1,102,-1
EndSplineSet
EndChar

StartChar: dollar
Encoding: 4 36 7
Width: 1072
Flags: W
LayerCount: 2
Fore
SplineSet
439 -141 m 1,0,-1
 441 -26 l 1,1,2
 225 -13 225 -13 73 80 c 1,3,-1
 94 366 l 1,4,5
 112 371 112 371 115 371 c 0,6,7
 146 371 146 371 159 282 c 0,8,9
 171 193 171 193 253 129.5 c 128,-1,10
 335 66 335 66 449 45 c 1,11,-1
 449 502 l 1,12,-1
 310 581 l 1,13,14
 95 702 95 702 95 886 c 0,15,16
 95 947 95 947 114.5 997.5 c 128,-1,17
 134 1048 134 1048 167.5 1083.5 c 128,-1,18
 201 1119 201 1119 247.5 1144 c 128,-1,19
 294 1169 294 1169 347 1182.5 c 128,-1,20
 400 1196 400 1196 460 1200 c 1,21,22
 459 1232 459 1232 459 1285 c 0,23,24
 459 1363 459 1363 468.5 1392.5 c 128,-1,25
 478 1422 478 1422 507 1422 c 0,26,27
 530 1422 530 1422 541 1393 c 128,-1,28
 552 1364 552 1364 552 1278 c 0,29,30
 552 1226 552 1226 551 1201 c 1,31,32
 705 1193 705 1193 831 1138 c 1,33,-1
 861 881 l 1,34,35
 841 876 841 876 834 876 c 0,36,37
 816 876 816 876 799.5 904 c 128,-1,38
 783 932 783 932 777 961 c 0,39,40
 761 1035 761 1035 699 1079 c 128,-1,41
 637 1123 637 1123 550 1136 c 1,42,43
 545 988 545 988 541 732 c 1,44,-1
 695 641 l 2,45,46
 834 559 834 559 882.5 491 c 128,-1,47
 931 423 931 423 931 319 c 0,48,49
 931 233 931 233 899.5 166.5 c 128,-1,50
 868 100 868 100 812 60 c 128,-1,51
 756 20 756 20 687 -1.5 c 128,-1,52
 618 -23 618 -23 536 -27 c 1,53,-1
 536 -125 l 2,54,55
 536 -179 536 -179 520 -203.5 c 128,-1,56
 504 -228 504 -228 484 -228 c 0,57,58
 468 -228 468 -228 454 -204 c 128,-1,59
 440 -180 440 -180 439 -141 c 1,0,-1
538 452 m 1,60,61
 536 218 536 218 536 36 c 1,62,63
 632 36 632 36 694.5 83.5 c 128,-1,64
 757 131 757 131 757 222 c 0,65,66
 757 290 757 290 710.5 335 c 128,-1,67
 664 380 664 380 538 452 c 1,60,61
454 785 m 1,68,-1
 454 1138 l 1,69,70
 371 1132 371 1132 311.5 1091.5 c 128,-1,71
 252 1051 252 1051 252 990 c 0,72,73
 252 906 252 906 359 842 c 2,74,-1
 454 785 l 1,68,-1
EndSplineSet
EndChar

StartChar: percent
Encoding: 5 37 8
Width: 1772
Flags: W
LayerCount: 2
Fore
SplineSet
1502 337 m 0,0,1
 1502 495 1502 495 1460.5 586 c 128,-1,2
 1419 677 1419 677 1338 677 c 0,3,4
 1264 677 1264 677 1226 593.5 c 128,-1,5
 1188 510 1188 510 1188 363 c 0,6,7
 1188 214 1188 214 1230 127.5 c 128,-1,8
 1272 41 1272 41 1354 41 c 0,9,10
 1427 41 1427 41 1464.5 120 c 128,-1,11
 1502 199 1502 199 1502 337 c 0,0,1
1035 358 m 0,12,13
 1035 517 1035 517 1119.5 626 c 128,-1,14
 1204 735 1204 735 1342 735 c 0,15,16
 1481 735 1481 735 1568 622.5 c 128,-1,17
 1655 510 1655 510 1655 349 c 0,18,19
 1655 194 1655 194 1572.5 87.5 c 128,-1,20
 1490 -19 1490 -19 1354 -22 c 1,21,22
 1210 -22 1210 -22 1122.5 88 c 128,-1,23
 1035 198 1035 198 1035 358 c 0,12,13
491 -138 m 1,24,25
 445 -138 445 -138 410 -108 c 1,26,27
 434 -64 434 -64 491 34 c 1,28,-1
 1020 1017 l 1,29,30
 1043 1056 1043 1056 1082 1143 c 128,-1,31
 1121 1230 1121 1230 1158.5 1295 c 128,-1,32
 1196 1360 1196 1360 1239 1396 c 1,33,34
 1289 1396 1289 1396 1332 1368 c 1,35,-1
 1255 1238 l 2,36,37
 1245 1220 1245 1220 1167.5 1086.5 c 128,-1,38
 1090 953 1090 953 1041.5 866.5 c 128,-1,39
 993 780 993 780 913.5 633.5 c 128,-1,40
 834 487 834 487 758 332.5 c 128,-1,41
 682 178 682 178 611 18 c 1,42,43
 575 -54 575 -54 491 -138 c 1,24,25
115 950 m 128,-1,45
 115 1109 115 1109 199.5 1218 c 128,-1,46
 284 1327 284 1327 423 1327 c 128,-1,47
 562 1327 562 1327 649 1214.5 c 128,-1,48
 736 1102 736 1102 736 941 c 0,49,50
 736 787 736 787 653.5 680 c 128,-1,51
 571 573 571 573 435 571 c 1,52,53
 291 571 291 571 203 681 c 128,-1,44
 115 791 115 791 115 950 c 128,-1,45
583 929 m 0,54,55
 583 1087 583 1087 541.5 1178.5 c 128,-1,56
 500 1270 500 1270 419 1270 c 0,57,58
 345 1270 345 1270 306.5 1186.5 c 128,-1,59
 268 1103 268 1103 268 956 c 0,60,61
 268 807 268 807 310 720 c 128,-1,62
 352 633 352 633 434 633 c 0,63,64
 508 633 508 633 545.5 712 c 128,-1,65
 583 791 583 791 583 929 c 0,54,55
EndSplineSet
EndChar

StartChar: ampersand
Encoding: 6 38 9
Width: 1468
Flags: W
LayerCount: 2
Fore
SplineSet
984 886 m 1,0,-1
 1393 886 l 1,1,2
 1394 868 1394 868 1394 835 c 1,3,4
 1386 828 1386 828 1330 812.5 c 128,-1,5
 1274 797 1274 797 1261 776 c 0,6,7
 1224 717 1224 717 1154.5 558 c 128,-1,8
 1085 399 1085 399 1020 296 c 1,9,10
 1072 231 1072 231 1113 198 c 128,-1,11
 1154 165 1154 165 1197 165 c 0,12,13
 1283 165 1283 165 1387 318 c 1,14,-1
 1446 275 l 1,15,16
 1409 122 1409 122 1339 47 c 128,-1,17
 1269 -28 1269 -28 1180 -28 c 0,18,19
 1106 -28 1106 -28 1030.5 20 c 128,-1,20
 955 68 955 68 896 152 c 1,21,22
 798 57 798 57 703 15.5 c 128,-1,23
 608 -26 608 -26 488 -26 c 0,24,25
 298 -26 298 -26 185.5 74.5 c 128,-1,26
 73 175 73 175 73 319 c 0,27,28
 73 387 73 387 93 443.5 c 128,-1,29
 113 500 113 500 158.5 552.5 c 128,-1,30
 204 605 204 605 262 651.5 c 128,-1,31
 320 698 320 698 411 758 c 1,32,33
 264 921 264 921 264 1042 c 0,34,35
 264 1122 264 1122 321 1187.5 c 128,-1,36
 378 1253 378 1253 462 1287.5 c 128,-1,37
 546 1322 546 1322 634 1322 c 0,38,39
 745 1322 745 1322 818.5 1263 c 128,-1,40
 892 1204 892 1204 892 1085 c 0,41,42
 892 1046 892 1046 875 1012.5 c 128,-1,43
 858 979 858 979 814 942 c 128,-1,44
 770 905 770 905 728 877.5 c 128,-1,45
 686 850 686 850 602 799 c 1,46,47
 657 737 657 737 782 583 c 128,-1,48
 907 429 907 429 969 357 c 1,49,50
 1058 513 1058 513 1098 692 c 1,51,52
 1110 722 1110 722 1110 741 c 0,53,54
 1110 791 1110 791 984 832 c 1,55,56
 982 848 982 848 982 858 c 0,57,58
 982 864 982 864 984 886 c 1,0,-1
266 435 m 0,59,60
 266 298 266 298 364 200 c 128,-1,61
 462 102 462 102 611 102 c 0,62,63
 675 102 675 102 728.5 126.5 c 128,-1,64
 782 151 782 151 845 209 c 1,65,66
 590 538 590 538 457 702 c 1,67,68
 358 634 358 634 312 570 c 128,-1,69
 266 506 266 506 266 435 c 0,59,60
427 1104 m 0,70,71
 427 1010 427 1010 558 849 c 1,72,73
 654 904 654 904 701.5 956.5 c 128,-1,74
 749 1009 749 1009 749 1071 c 0,75,76
 749 1135 749 1135 704.5 1192.5 c 128,-1,77
 660 1250 660 1250 597 1250 c 0,78,79
 525 1250 525 1250 476 1207 c 128,-1,80
 427 1164 427 1164 427 1104 c 0,70,71
EndSplineSet
EndChar

StartChar: quotesingle
Encoding: 7 39 10
Width: 370
Flags: W
LayerCount: 2
Fore
SplineSet
172 753 m 1,0,1
 149 806 149 806 116 978 c 128,-1,2
 83 1150 83 1150 83 1200 c 0,3,4
 83 1248 83 1248 110 1275 c 128,-1,5
 137 1302 137 1302 185 1302 c 128,-1,6
 233 1302 233 1302 259.5 1275 c 128,-1,7
 286 1248 286 1248 286 1200 c 0,8,9
 286 1171 286 1171 279.5 1117.5 c 128,-1,10
 273 1064 273 1064 261.5 1001.5 c 128,-1,11
 250 939 250 939 236.5 883 c 128,-1,12
 223 827 223 827 205.5 790 c 128,-1,13
 188 753 188 753 172 753 c 1,0,1
EndSplineSet
EndChar

StartChar: parenleft
Encoding: 8 40 11
Width: 687
Flags: W
LayerCount: 2
Fore
SplineSet
666 -208 m 1,0,-1
 613 -268 l 1,1,2
 494 -214 494 -214 403 -123 c 128,-1,3
 312 -32 312 -32 257 80 c 128,-1,4
 202 192 202 192 174.5 315.5 c 128,-1,5
 147 439 147 439 147 571 c 128,-1,6
 147 703 147 703 174.5 826.5 c 128,-1,7
 202 950 202 950 256.5 1062 c 128,-1,8
 311 1174 311 1174 402.5 1264.5 c 128,-1,9
 494 1355 494 1355 613 1409 c 1,10,-1
 666 1350 l 1,11,12
 565 1291 565 1291 489 1203.5 c 128,-1,13
 413 1116 413 1116 368 1013.5 c 128,-1,14
 323 911 323 911 301 800.5 c 128,-1,15
 279 690 279 690 279 571 c 128,-1,16
 279 452 279 452 301 341.5 c 128,-1,17
 323 231 323 231 368 129 c 128,-1,18
 413 27 413 27 489 -60 c 128,-1,19
 565 -147 565 -147 666 -208 c 1,0,-1
EndSplineSet
EndChar

StartChar: parenright
Encoding: 9 41 12
Width: 687
Flags: W
LayerCount: 2
Fore
SplineSet
21 1350 m 1,0,1
 31 1376 31 1376 74 1409 c 1,2,3
 193 1355 193 1355 284 1264.5 c 128,-1,4
 375 1174 375 1174 430 1062 c 128,-1,5
 485 950 485 950 512.5 826.5 c 128,-1,6
 540 703 540 703 540 571 c 128,-1,7
 540 439 540 439 512.5 315.5 c 128,-1,8
 485 192 485 192 430 80 c 128,-1,9
 375 -32 375 -32 284 -123 c 128,-1,10
 193 -214 193 -214 74 -268 c 1,11,12
 32 -236 32 -236 21 -208 c 1,13,14
 218 -84 218 -84 313 120 c 128,-1,15
 408 324 408 324 408 571 c 128,-1,16
 408 818 408 818 313 1023 c 128,-1,17
 218 1228 218 1228 21 1350 c 1,0,1
EndSplineSet
EndChar

StartChar: asterisk
Encoding: 10 42 13
Width: 1218
Flags: W
LayerCount: 2
Fore
SplineSet
700 1221 m 0,0,1
 700 1165 700 1165 691.5 1096.5 c 128,-1,2
 683 1028 683 1028 669 944 c 128,-1,3
 655 860 655 860 650 820 c 1,4,5
 662 826 662 826 728 862 c 128,-1,6
 794 898 794 898 848.5 927.5 c 128,-1,7
 903 957 903 957 961.5 983 c 128,-1,8
 1020 1009 1020 1009 1040 1009 c 0,9,10
 1078 1009 1078 1009 1104.5 979.5 c 128,-1,11
 1131 950 1131 950 1131 911 c 0,12,13
 1131 880 1131 880 1110 855.5 c 128,-1,14
 1089 831 1089 831 1058 824 c 2,15,-1
 678 741 l 1,16,17
 687 731 687 731 741.5 674.5 c 128,-1,18
 796 618 796 618 839.5 571.5 c 128,-1,19
 883 525 883 525 921.5 470.5 c 128,-1,20
 960 416 960 416 960 389 c 0,21,22
 960 352 960 352 930.5 323.5 c 128,-1,23
 901 295 901 295 863 295 c 0,24,25
 838 295 838 295 815.5 309 c 128,-1,26
 793 323 793 323 782 346 c 2,27,-1
 609 695 l 1,28,-1
 435 346 l 2,29,30
 424 323 424 323 402 309 c 128,-1,31
 380 295 380 295 354 295 c 0,32,33
 316 295 316 295 286.5 323.5 c 128,-1,34
 257 352 257 352 257 389 c 0,35,36
 257 416 257 416 295.5 470.5 c 128,-1,37
 334 525 334 525 377.5 571.5 c 128,-1,38
 421 618 421 618 475.5 674.5 c 128,-1,39
 530 731 530 731 539 741 c 1,40,-1
 159 824 l 2,41,42
 128 831 128 831 107 855.5 c 128,-1,43
 86 880 86 880 86 911 c 0,44,45
 86 950 86 950 112.5 979.5 c 128,-1,46
 139 1009 139 1009 177 1009 c 0,47,48
 197 1009 197 1009 255.5 983 c 128,-1,49
 314 957 314 957 368.5 927.5 c 128,-1,50
 423 898 423 898 489 862 c 128,-1,51
 555 826 555 826 567 820 c 1,52,53
 562 860 562 860 547 946 c 128,-1,54
 532 1032 532 1032 523.5 1100.5 c 128,-1,55
 515 1169 515 1169 515 1226 c 0,56,57
 515 1262 515 1262 543.5 1285.5 c 128,-1,58
 572 1309 572 1309 609 1309 c 0,59,60
 647 1309 647 1309 673.5 1283.5 c 128,-1,61
 700 1258 700 1258 700 1221 c 0,0,1
EndSplineSet
EndChar

StartChar: plus
Encoding: 11 43 14
Width: 1099
Flags: W
LayerCount: 2
Fore
SplineSet
107 618 m 1,0,1
 161 639 161 639 291 639 c 2,2,-1
 482 639 l 1,3,-1
 482 828 l 2,4,5
 482 956 482 956 490 1012 c 1,6,7
 517 1015 517 1015 550 1015 c 0,8,9
 590 1015 590 1015 608 1012 c 1,10,11
 617 950 617 950 617 830 c 2,12,-1
 617 639 l 1,13,-1
 806 639 l 2,14,15
 920 639 920 639 990 629 c 1,16,17
 993 602 993 602 993 570 c 0,18,19
 993 539 993 539 990 512 c 1,20,21
 933 505 933 505 806 505 c 2,22,-1
 617 505 l 1,23,-1
 617 315 l 2,24,25
 617 202 617 202 607 132 c 1,26,27
 578 129 578 129 548 129 c 0,28,29
 516 129 516 129 489 132 c 1,30,31
 482 189 482 189 482 315 c 2,32,-1
 482 505 l 1,33,-1
 159 505 l 1,34,35
 125 526 125 526 116 550 c 128,-1,36
 107 574 107 574 107 618 c 1,0,1
EndSplineSet
EndChar

StartChar: comma
Encoding: 12 44 15
Width: 563
Flags: W
LayerCount: 2
Fore
SplineSet
116 -268 m 1,0,1
 98 -238 98 -238 98 -208 c 1,2,3
 108 -205 108 -205 137 -196 c 128,-1,4
 166 -187 166 -187 177 -183 c 128,-1,5
 188 -179 188 -179 212.5 -169 c 128,-1,6
 237 -159 237 -159 247.5 -151.5 c 128,-1,7
 258 -144 258 -144 275 -130 c 128,-1,8
 292 -116 292 -116 299 -101.5 c 128,-1,9
 306 -87 306 -87 312 -67 c 128,-1,10
 318 -47 318 -47 318 -23 c 1,11,12
 290 43 290 43 216 56 c 1,13,14
 169 63 169 63 143.5 94.5 c 128,-1,15
 118 126 118 126 118 174 c 0,16,17
 118 233 118 233 156.5 272 c 128,-1,18
 195 311 195 311 258 311 c 0,19,20
 341 311 341 311 396 240.5 c 128,-1,21
 451 170 451 170 451 45 c 0,22,23
 451 -102 451 -102 354.5 -184 c 128,-1,24
 258 -266 258 -266 116 -268 c 1,0,1
EndSplineSet
EndChar

StartChar: hyphen
Encoding: 13 45 16
Width: 772
Flags: W
LayerCount: 2
Fore
SplineSet
691 402 m 1,0,-1
 89 402 l 1,1,-1
 89 530 l 1,2,-1
 691 530 l 1,3,-1
 691 402 l 1,0,-1
EndSplineSet
EndChar

StartChar: period
Encoding: 14 46 17
Width: 556
Flags: W
LayerCount: 2
Fore
SplineSet
277 251 m 128,-1,1
 334 251 334 251 374.5 211 c 128,-1,2
 415 171 415 171 415 116 c 128,-1,3
 415 61 415 61 374.5 20.5 c 128,-1,4
 334 -20 334 -20 277 -20 c 128,-1,5
 220 -20 220 -20 180 20 c 128,-1,6
 140 60 140 60 140 116 c 0,7,8
 140 171 140 171 180 211 c 128,-1,0
 220 251 220 251 277 251 c 128,-1,1
EndSplineSet
EndChar

StartChar: slash
Encoding: 15 47 18
Width: 673
Flags: W
LayerCount: 2
Fore
SplineSet
655 1378 m 1,0,1
 589 1143 589 1143 411 689 c 128,-1,2
 233 235 233 235 183 89 c 0,3,4
 156 11 156 11 121 -65 c 1,5,6
 101 -70 101 -70 73 -70 c 2,7,-1
 45 -70 l 1,8,9
 40 -50 40 -50 40 -21 c 0,10,11
 40 33 40 33 69 109 c 2,12,-1
 438 1089 l 2,13,14
 442 1099 442 1099 469 1186.5 c 128,-1,15
 496 1274 496 1274 522 1331 c 128,-1,16
 548 1388 548 1388 575 1402 c 1,17,18
 621 1402 621 1402 655 1378 c 1,0,1
EndSplineSet
EndChar

StartChar: zero
Encoding: 16 48 19
Width: 1156
Flags: W
LayerCount: 2
Fore
SplineSet
593 858 m 0,0,1
 494 858 494 858 421.5 798 c 128,-1,2
 349 738 349 738 316 649 c 128,-1,3
 283 560 283 560 283 456 c 0,4,5
 283 357 283 357 313.5 272 c 128,-1,6
 344 187 344 187 408.5 130.5 c 128,-1,7
 473 74 473 74 561 74 c 0,8,9
 663 74 663 74 734.5 131 c 128,-1,10
 806 188 806 188 837 272.5 c 128,-1,11
 868 357 868 357 868 459 c 0,12,13
 868 560 868 560 836.5 650 c 128,-1,14
 805 740 805 740 741 799 c 128,-1,15
 677 858 677 858 593 858 c 0,0,1
580 -20 m 0,16,17
 483 -20 483 -20 401 6.5 c 128,-1,18
 319 33 319 33 261.5 79 c 128,-1,19
 204 125 204 125 163.5 185.5 c 128,-1,20
 123 246 123 246 103.5 314.5 c 128,-1,21
 84 383 84 383 84 455 c 0,22,23
 84 545 84 545 115.5 628 c 128,-1,24
 147 711 147 711 206.5 778 c 128,-1,25
 266 845 266 845 361.5 885.5 c 128,-1,26
 457 926 457 926 576 926 c 128,-1,27
 695 926 695 926 792 885.5 c 128,-1,28
 889 845 889 845 948.5 777 c 128,-1,29
 1008 709 1008 709 1040 625.5 c 128,-1,30
 1072 542 1072 542 1072 451 c 0,31,32
 1072 361 1072 361 1040.5 278 c 128,-1,33
 1009 195 1009 195 950 128 c 128,-1,34
 891 61 891 61 795 20.5 c 128,-1,35
 699 -20 699 -20 580 -20 c 0,16,17
EndSplineSet
EndChar

StartChar: one
Encoding: 17 49 20
Width: 743
Flags: W
LayerCount: 2
Fore
SplineSet
465 770 m 2,0,-1
 465 126 l 2,1,2
 465 87 465 87 497 69.5 c 128,-1,3
 529 52 529 52 567.5 52 c 128,-1,4
 606 52 606 52 638 44.5 c 128,-1,5
 670 37 670 37 670 16 c 0,6,7
 670 14 670 14 665 -3 c 1,8,-1
 77 -3 l 1,9,10
 73 9 73 9 73 14 c 0,11,12
 73 30 73 30 93.5 38 c 128,-1,13
 114 46 114 46 143 49 c 128,-1,14
 172 52 172 52 201.5 57.5 c 128,-1,15
 231 63 231 63 251.5 80 c 128,-1,16
 272 97 272 97 272 127 c 2,17,-1
 272 769 l 2,18,19
 272 799 272 799 251.5 816 c 128,-1,20
 231 833 231 833 201.5 838.5 c 128,-1,21
 172 844 172 844 143 847 c 128,-1,22
 114 850 114 850 93.5 858 c 128,-1,23
 73 866 73 866 73 882 c 0,24,25
 73 887 73 887 77 899 c 1,26,-1
 665 899 l 1,27,28
 670 882 670 882 670 880 c 0,29,30
 670 859 670 859 638 851.5 c 128,-1,31
 606 844 606 844 567.5 844 c 128,-1,32
 529 844 529 844 497 826.5 c 128,-1,33
 465 809 465 809 465 770 c 2,0,-1
EndSplineSet
EndChar

StartChar: two
Encoding: 18 50 21
Width: 921
Flags: W
LayerCount: 2
Fore
SplineSet
351 146 m 1,0,-1
 589 146 l 1,1,2
 640 148 640 148 670.5 166 c 128,-1,3
 701 184 701 184 711 208.5 c 128,-1,4
 721 233 721 233 727 257.5 c 128,-1,5
 733 282 733 282 744.5 299 c 128,-1,6
 756 316 756 316 780 316 c 1,7,-1
 807 313 l 1,8,-1
 757 0 l 1,9,-1
 132 0 l 1,10,-1
 121 39 l 1,11,-1
 404 375 l 2,12,13
 447 426 447 426 483.5 510 c 128,-1,14
 520 594 520 594 520 664 c 0,15,16
 520 807 520 807 362 807 c 0,17,18
 299 807 299 807 232 787 c 128,-1,19
 165 767 165 767 128 740 c 1,20,-1
 106 813 l 1,21,22
 163 867 163 867 254 897 c 128,-1,23
 345 927 345 927 444 927 c 0,24,25
 563 927 563 927 645.5 859.5 c 128,-1,26
 728 792 728 792 728 680 c 0,27,28
 728 536 728 536 522 323 c 2,29,-1
 351 146 l 1,0,-1
EndSplineSet
EndChar

StartChar: three
Encoding: 19 51 22
Width: 935
Flags: W
LayerCount: 2
Fore
SplineSet
491 432 m 1,0,1
 645 432 645 432 729.5 339 c 128,-1,2
 814 246 814 246 814 103 c 0,3,4
 814 37 814 37 786 -25 c 128,-1,5
 758 -87 758 -87 706 -137.5 c 128,-1,6
 654 -188 654 -188 570 -218.5 c 128,-1,7
 486 -249 486 -249 382 -249 c 0,8,9
 313 -249 313 -249 259 -241 c 128,-1,10
 205 -233 205 -233 174.5 -220 c 128,-1,11
 144 -207 144 -207 128.5 -192.5 c 128,-1,12
 113 -178 113 -178 113 -163 c 0,13,14
 113 -124 113 -124 133.5 -95.5 c 128,-1,15
 154 -67 154 -67 187 -67 c 0,16,17
 193 -67 193 -67 228 -98.5 c 128,-1,18
 263 -130 263 -130 302 -161.5 c 128,-1,19
 341 -193 341 -193 359 -193 c 0,20,21
 479 -193 479 -193 547.5 -109.5 c 128,-1,22
 616 -26 616 -26 616 86 c 0,23,24
 616 194 616 194 551 271.5 c 128,-1,25
 486 349 486 349 367 349 c 0,26,27
 321 349 321 349 267 336 c 1,28,-1
 222 388 l 1,29,30
 267 403 267 403 310 421.5 c 128,-1,31
 353 440 353 440 402 469 c 128,-1,32
 451 498 451 498 487.5 530.5 c 128,-1,33
 524 563 524 563 548 607.5 c 128,-1,34
 572 652 572 652 572 699 c 0,35,36
 572 760 572 760 534.5 791 c 128,-1,37
 497 822 497 822 430 822 c 0,38,39
 377 822 377 822 330.5 805 c 128,-1,40
 284 788 284 788 227.5 756 c 128,-1,41
 171 724 171 724 139 711 c 1,42,43
 122 728 122 728 122 758 c 1,44,-1
 125 774 l 1,45,46
 181 846 181 846 270 886 c 128,-1,47
 359 926 359 926 453 926 c 0,48,49
 567 926 567 926 646.5 869 c 128,-1,50
 726 812 726 812 726 703 c 0,51,52
 726 592 726 592 656 517 c 128,-1,53
 586 442 586 442 491 432 c 1,0,1
EndSplineSet
EndChar

StartChar: four
Encoding: 20 52 23
Width: 1001
Flags: W
LayerCount: 2
Fore
SplineSet
550 -124 m 2,0,-1
 550 74 l 1,1,-1
 79 74 l 1,2,-1
 65 121 l 1,3,-1
 539 894 l 1,4,5
 620 911 620 911 743 911 c 1,6,-1
 743 178 l 1,7,-1
 876 178 l 2,8,9
 906 178 906 178 906 127 c 0,10,11
 906 107 906 107 901.5 90.5 c 128,-1,12
 897 74 897 74 891 74 c 2,13,-1
 744 74 l 1,14,-1
 744 -129 l 2,15,16
 744 -157 744 -157 771 -172.5 c 128,-1,17
 798 -188 798 -188 830.5 -191 c 128,-1,18
 863 -194 863 -194 890 -201.5 c 128,-1,19
 917 -209 917 -209 917 -223 c 0,20,21
 917 -232 917 -232 913 -239 c 1,22,-1
 375 -239 l 1,23,24
 371 -228 371 -228 371 -223 c 0,25,26
 371 -206 371 -206 399 -197.5 c 128,-1,27
 427 -189 427 -189 460.5 -186.5 c 128,-1,28
 494 -184 494 -184 522 -168.5 c 128,-1,29
 550 -153 550 -153 550 -124 c 2,0,-1
550 178 m 1,30,-1
 550 757 l 1,31,-1
 196 178 l 1,32,-1
 550 178 l 1,30,-1
EndSplineSet
EndChar

StartChar: five
Encoding: 21 53 24
Width: 888
Flags: W
LayerCount: 2
Fore
SplineSet
260 -193 m 0,0,1
 388 -193 388 -193 452 -112.5 c 128,-1,2
 516 -32 516 -32 516 89 c 0,3,4
 516 226 516 226 421 329.5 c 128,-1,5
 326 433 326 433 137 458 c 0,6,7
 128 460 128 460 119.5 466.5 c 128,-1,8
 111 473 111 473 111 481 c 1,9,-1
 204 899 l 1,10,-1
 751 899 l 1,11,-1
 715 764 l 1,12,-1
 280 764 l 1,13,-1
 218 546 l 1,14,15
 326 546 326 546 421.5 510.5 c 128,-1,16
 517 475 517 475 582.5 416.5 c 128,-1,17
 648 358 648 358 685.5 281.5 c 128,-1,18
 723 205 723 205 723 124 c 0,19,20
 723 52 723 52 695.5 -14 c 128,-1,21
 668 -80 668 -80 615.5 -133 c 128,-1,22
 563 -186 563 -186 477 -217.5 c 128,-1,23
 391 -249 391 -249 283 -249 c 0,24,25
 214 -249 214 -249 160 -241 c 128,-1,26
 106 -233 106 -233 75.5 -220 c 128,-1,27
 45 -207 45 -207 29.5 -192.5 c 128,-1,28
 14 -178 14 -178 14 -163 c 0,29,30
 14 -124 14 -124 34.5 -95.5 c 128,-1,31
 55 -67 55 -67 88 -67 c 0,32,33
 94 -67 94 -67 165 -130 c 128,-1,34
 236 -193 236 -193 260 -193 c 0,0,1
EndSplineSet
EndChar

StartChar: six
Encoding: 22 54 25
Width: 1035
Flags: W
LayerCount: 2
Fore
SplineSet
662 1244 m 1,0,1
 677 1248 677 1248 699 1248 c 0,2,3
 715 1248 715 1248 720.5 1242.5 c 128,-1,4
 726 1237 726 1237 726 1220 c 0,5,6
 726 1201 726 1201 706 1194 c 0,7,8
 588 1147 588 1147 478 1017 c 128,-1,9
 368 887 368 887 330 728 c 1,10,11
 440 780 440 780 557 780 c 0,12,13
 731 780 731 780 842.5 675 c 128,-1,14
 954 570 954 570 954 386 c 0,15,16
 954 269 954 269 892.5 174.5 c 128,-1,17
 831 80 831 80 733.5 30 c 128,-1,18
 636 -20 636 -20 526 -20 c 0,19,20
 436 -20 436 -20 363 4 c 128,-1,21
 290 28 290 28 240.5 70.5 c 128,-1,22
 191 113 191 113 157.5 172 c 128,-1,23
 124 231 124 231 108.5 299 c 128,-1,24
 93 367 93 367 93 444 c 0,25,26
 93 572 93 572 135.5 706 c 128,-1,27
 178 840 178 840 250.5 953.5 c 128,-1,28
 323 1067 323 1067 431.5 1147 c 128,-1,29
 540 1227 540 1227 662 1244 c 1,0,1
754 393 m 0,30,31
 754 552 754 552 687.5 633 c 128,-1,32
 621 714 621 714 505 714 c 0,33,34
 416 714 416 714 321 659 c 1,35,36
 297 536 297 536 297 456 c 0,37,38
 297 259 297 259 365.5 154 c 128,-1,39
 434 49 434 49 545 49 c 0,40,41
 634 49 634 49 694 139 c 128,-1,42
 754 229 754 229 754 393 c 0,30,31
EndSplineSet
EndChar

StartChar: seven
Encoding: 23 55 26
Width: 856
Flags: W
LayerCount: 2
Fore
SplineSet
457 -302 m 1,0,-1
 247 -302 l 1,1,2
 459 448 459 448 688 795 c 1,3,-1
 256 767 l 2,4,5
 214 764 214 764 186 746.5 c 128,-1,6
 158 729 158 729 146 705 c 128,-1,7
 134 681 134 681 126 653.5 c 128,-1,8
 118 626 118 626 114 603 c 128,-1,9
 110 580 110 580 99.5 564.5 c 128,-1,10
 89 549 89 549 71 549 c 0,11,12
 68 549 68 549 64.5 549.5 c 128,-1,13
 61 550 61 550 56.5 551.5 c 128,-1,14
 52 553 52 553 51 553 c 2,15,-1
 74 888 l 1,16,-1
 84 899 l 1,17,-1
 817 899 l 1,18,-1
 832 847 l 1,19,20
 618 414 618 414 457 -302 c 1,0,-1
EndSplineSet
EndChar

StartChar: eight
Encoding: 24 56 27
Width: 1013
Flags: W
LayerCount: 2
Fore
SplineSet
82 283 m 0,0,1
 82 338 82 338 102.5 387.5 c 128,-1,2
 123 437 123 437 164.5 480.5 c 128,-1,3
 206 524 206 524 247 557 c 128,-1,4
 288 590 288 590 349 631 c 1,5,6
 302 666 302 666 267.5 697.5 c 128,-1,7
 233 729 233 729 201.5 769 c 128,-1,8
 170 809 170 809 153.5 855 c 128,-1,9
 137 901 137 901 137 951 c 0,10,11
 137 1066 137 1066 237 1140.5 c 128,-1,12
 337 1215 337 1215 516 1215 c 0,13,14
 601 1215 601 1215 667 1192.5 c 128,-1,15
 733 1170 733 1170 769 1134 c 128,-1,16
 805 1098 805 1098 823 1058.5 c 128,-1,17
 841 1019 841 1019 841 980 c 0,18,19
 841 888 841 888 791.5 822.5 c 128,-1,20
 742 757 742 757 642 681 c 1,21,22
 694 648 694 648 730 622 c 128,-1,23
 766 596 766 596 808 557 c 128,-1,24
 850 518 850 518 875.5 479 c 128,-1,25
 901 440 901 440 918 386 c 128,-1,26
 935 332 935 332 935 272 c 0,27,28
 935 228 935 228 922.5 188 c 128,-1,29
 910 148 910 148 877.5 109 c 128,-1,30
 845 70 845 70 796 42 c 128,-1,31
 747 14 747 14 668 -3 c 128,-1,32
 589 -20 589 -20 489 -20 c 0,33,34
 307 -20 307 -20 194.5 67 c 128,-1,35
 82 154 82 154 82 283 c 0,0,1
504 59 m 0,36,37
 568 59 568 59 615 79.5 c 128,-1,38
 662 100 662 100 687 134.5 c 128,-1,39
 712 169 712 169 723.5 206.5 c 128,-1,40
 735 244 735 244 735 285 c 0,41,42
 735 316 735 316 720.5 346.5 c 128,-1,43
 706 377 706 377 688 399 c 128,-1,44
 670 421 670 421 632 451 c 128,-1,45
 594 481 594 481 569.5 497.5 c 128,-1,46
 545 514 545 514 494 547 c 2,47,-1
 474 560 l 1,48,49
 410 519 410 519 373 493 c 128,-1,50
 336 467 336 467 294 430.5 c 128,-1,51
 252 394 252 394 233 358.5 c 128,-1,52
 214 323 214 323 214 285 c 0,53,54
 214 179 214 179 288.5 119 c 128,-1,55
 363 59 363 59 504 59 c 0,36,37
315 1005 m 0,56,57
 315 931 315 931 369 874 c 128,-1,58
 423 817 423 817 526 754 c 1,59,60
 591 796 591 796 627.5 827 c 128,-1,61
 664 858 664 858 688.5 898.5 c 128,-1,62
 713 939 713 939 713 986 c 0,63,64
 713 1142 713 1142 516 1142 c 0,65,66
 420 1142 420 1142 367.5 1106 c 128,-1,67
 315 1070 315 1070 315 1005 c 0,56,57
EndSplineSet
EndChar

StartChar: nine
Encoding: 25 57 28
Width: 1084
Flags: W
LayerCount: 2
Fore
SplineSet
380 -338 m 1,0,1
 365 -342 365 -342 343 -342 c 0,2,3
 327 -342 327 -342 321.5 -336.5 c 128,-1,4
 316 -331 316 -331 316 -314 c 0,5,6
 316 -296 316 -296 336 -288 c 0,7,8
 454 -242 454 -242 564 -111.5 c 128,-1,9
 674 19 674 19 712 178 c 1,10,11
 602 126 602 126 485 126 c 0,12,13
 311 126 311 126 199.5 231 c 128,-1,14
 88 336 88 336 88 520 c 0,15,16
 88 637 88 637 149.5 731.5 c 128,-1,17
 211 826 211 826 308.5 876 c 128,-1,18
 406 926 406 926 516 926 c 0,19,20
 606 926 606 926 679 902 c 128,-1,21
 752 878 752 878 801.5 835.5 c 128,-1,22
 851 793 851 793 884.5 734 c 128,-1,23
 918 675 918 675 933.5 607 c 128,-1,24
 949 539 949 539 949 462 c 0,25,26
 949 334 949 334 906.5 200 c 128,-1,27
 864 66 864 66 791.5 -47.5 c 128,-1,28
 719 -161 719 -161 610.5 -241 c 128,-1,29
 502 -321 502 -321 380 -338 c 1,0,1
288 513 m 0,30,31
 288 354 288 354 354.5 273 c 128,-1,32
 421 192 421 192 537 192 c 0,33,34
 626 192 626 192 721 247 c 1,35,36
 745 370 745 370 745 450 c 0,37,38
 745 647 745 647 676.5 752 c 128,-1,39
 608 857 608 857 497 857 c 0,40,41
 408 857 408 857 348 767 c 128,-1,42
 288 677 288 677 288 513 c 0,30,31
EndSplineSet
EndChar

StartChar: colon
Encoding: 26 58 29
Width: 590
Flags: W
LayerCount: 2
Fore
SplineSet
294 251 m 128,-1,1
 351 251 351 251 392 211 c 128,-1,2
 433 171 433 171 433 116 c 128,-1,3
 433 61 433 61 392 20.5 c 128,-1,4
 351 -20 351 -20 294 -20 c 128,-1,5
 237 -20 237 -20 197 20 c 128,-1,6
 157 60 157 60 157 116 c 0,7,8
 157 171 157 171 197 211 c 128,-1,0
 237 251 237 251 294 251 c 128,-1,1
294 1039 m 0,9,10
 351 1039 351 1039 392 998.5 c 128,-1,11
 433 958 433 958 433 904 c 0,12,13
 433 849 433 849 392 808.5 c 128,-1,14
 351 768 351 768 294 768 c 128,-1,15
 237 768 237 768 197 808 c 128,-1,16
 157 848 157 848 157 904 c 0,17,18
 157 958 157 958 197.5 998.5 c 128,-1,19
 238 1039 238 1039 294 1039 c 0,9,10
EndSplineSet
EndChar

StartChar: semicolon
Encoding: 27 59 30
Width: 594
Flags: W
LayerCount: 2
Fore
SplineSet
294 1039 m 0,0,1
 351 1039 351 1039 392 998.5 c 128,-1,2
 433 958 433 958 433 904 c 0,3,4
 433 849 433 849 392 808.5 c 128,-1,5
 351 768 351 768 294 768 c 128,-1,6
 237 768 237 768 197 808 c 128,-1,7
 157 848 157 848 157 904 c 0,8,9
 157 958 157 958 197.5 998.5 c 128,-1,10
 238 1039 238 1039 294 1039 c 0,0,1
133 -268 m 1,11,12
 116 -240 116 -240 116 -208 c 1,13,14
 125 -205 125 -205 154.5 -196 c 128,-1,15
 184 -187 184 -187 195 -183 c 128,-1,16
 206 -179 206 -179 230.5 -169 c 128,-1,17
 255 -159 255 -159 265.5 -151.5 c 128,-1,18
 276 -144 276 -144 292.5 -130 c 128,-1,19
 309 -116 309 -116 316 -101.5 c 128,-1,20
 323 -87 323 -87 329 -67 c 128,-1,21
 335 -47 335 -47 335 -23 c 1,22,23
 307 43 307 43 233 56 c 1,24,25
 187 63 187 63 161 94.5 c 128,-1,26
 135 126 135 126 135 174 c 0,27,28
 135 234 135 234 173.5 272.5 c 128,-1,29
 212 311 212 311 276 311 c 0,30,31
 358 311 358 311 413 240 c 128,-1,32
 468 169 468 169 468 45 c 0,33,34
 468 -103 468 -103 372.5 -184 c 128,-1,35
 277 -265 277 -265 133 -268 c 1,11,12
EndSplineSet
EndChar

StartChar: less
Encoding: 28 60 31
Width: 626
Flags: W
LayerCount: 2
Fore
SplineSet
479 18 m 0,0,1
 452 18 452 18 435.5 27 c 128,-1,2
 419 36 419 36 403 59 c 2,3,-1
 64 553 l 1,4,5
 80 574 80 574 174.5 709.5 c 128,-1,6
 269 845 269 845 345 940.5 c 128,-1,7
 421 1036 421 1036 469 1068 c 1,8,9
 496 1068 496 1068 519 1052 c 128,-1,10
 542 1036 542 1036 542 1009 c 1,11,12
 511 940 511 940 453 862.5 c 128,-1,13
 395 785 395 785 309 687 c 128,-1,14
 223 589 223 589 195 553 c 1,15,-1
 294 425 l 2,16,17
 393 297 393 297 458.5 199.5 c 128,-1,18
 524 102 524 102 524 69 c 0,19,20
 524 48 524 48 512 33 c 128,-1,21
 500 18 500 18 479 18 c 0,0,1
EndSplineSet
EndChar

StartChar: equal
Encoding: 29 61 32
Width: 845
Flags: W
LayerCount: 2
Fore
SplineSet
602 729 m 2,0,1
 713 729 713 729 713 679 c 0,2,3
 713 635 713 635 629 635 c 0,4,5
 618 635 618 635 600.5 636 c 128,-1,6
 583 637 583 637 578 637 c 2,7,-1
 266 637 l 2,8,9
 261 637 261 637 245.5 636.5 c 128,-1,10
 230 636 230 636 221 636 c 0,11,12
 131 636 131 636 131 684 c 0,13,14
 131 729 131 729 227 729 c 2,15,-1
 602 729 l 2,0,1
602 487 m 2,16,17
 713 487 713 487 713 437 c 0,18,19
 713 393 713 393 629 393 c 0,20,21
 618 393 618 393 600.5 394 c 128,-1,22
 583 395 583 395 578 395 c 2,23,-1
 266 395 l 2,24,25
 261 395 261 395 245.5 394.5 c 128,-1,26
 230 394 230 394 221 394 c 0,27,28
 131 394 131 394 131 442 c 0,29,30
 131 487 131 487 227 487 c 2,31,-1
 602 487 l 2,16,17
EndSplineSet
EndChar

StartChar: greater
Encoding: 30 62 33
Width: 626
Flags: W
LayerCount: 2
Fore
SplineSet
147 18 m 0,0,1
 126 18 126 18 114 33 c 128,-1,2
 102 48 102 48 102 69 c 0,3,4
 102 103 102 103 167.5 200.5 c 128,-1,5
 233 298 233 298 330.5 423.5 c 128,-1,6
 428 549 428 549 431 553 c 1,7,8
 403 589 403 589 317 687 c 128,-1,9
 231 785 231 785 173 862.5 c 128,-1,10
 115 940 115 940 84 1009 c 1,11,12
 84 1036 84 1036 107 1052 c 128,-1,13
 130 1068 130 1068 157 1068 c 1,14,15
 205 1036 205 1036 281 940.5 c 128,-1,16
 357 845 357 845 451.5 709.5 c 128,-1,17
 546 574 546 574 562 553 c 1,18,-1
 223 59 l 2,19,20
 207 36 207 36 190.5 27 c 128,-1,21
 174 18 174 18 147 18 c 0,0,1
EndSplineSet
EndChar

StartChar: question
Encoding: 31 63 34
Width: 806
Flags: W
LayerCount: 2
Fore
SplineSet
304 236 m 128,-1,1
 355 236 355 236 392.5 199 c 128,-1,2
 430 162 430 162 430 111 c 128,-1,3
 430 60 430 60 392.5 23.5 c 128,-1,4
 355 -13 355 -13 304 -13 c 0,5,6
 254 -13 254 -13 217.5 24 c 128,-1,7
 181 61 181 61 181 111 c 0,8,9
 181 162 181 162 217 199 c 128,-1,0
 253 236 253 236 304 236 c 128,-1,1
338 358 m 1,10,-1
 257 358 l 1,11,12
 254 386 254 386 239.5 460 c 128,-1,13
 225 534 225 534 225 576 c 0,14,15
 225 602 225 602 252.5 630 c 128,-1,16
 280 658 280 658 320.5 681.5 c 128,-1,17
 361 705 361 705 409 737 c 128,-1,18
 457 769 457 769 497.5 802 c 128,-1,19
 538 835 538 835 565.5 882.5 c 128,-1,20
 593 930 593 930 593 984 c 0,21,22
 593 1078 593 1078 519.5 1148 c 128,-1,23
 446 1218 446 1218 352 1218 c 0,24,25
 328 1218 328 1218 305.5 1205.5 c 128,-1,26
 283 1193 283 1193 265.5 1175 c 128,-1,27
 248 1157 248 1157 230.5 1139 c 128,-1,28
 213 1121 213 1121 190.5 1108.5 c 128,-1,29
 168 1096 168 1096 144 1096 c 0,30,31
 112 1096 112 1096 90 1121.5 c 128,-1,32
 68 1147 68 1147 68 1179 c 0,33,34
 68 1220 68 1220 92.5 1250.5 c 128,-1,35
 117 1281 117 1281 157 1297.5 c 128,-1,36
 197 1314 197 1314 239 1321.5 c 128,-1,37
 281 1329 281 1329 324 1329 c 0,38,39
 420 1329 420 1329 514 1280 c 128,-1,40
 608 1231 608 1231 669 1146.5 c 128,-1,41
 730 1062 730 1062 730 970 c 0,42,43
 730 898 730 898 708.5 840 c 128,-1,44
 687 782 687 782 652.5 744 c 128,-1,45
 618 706 618 706 576 674.5 c 128,-1,46
 534 643 534 643 492 615.5 c 128,-1,47
 450 588 450 588 415.5 559 c 128,-1,48
 381 530 381 530 359.5 489 c 128,-1,49
 338 448 338 448 338 397 c 2,50,-1
 338 358 l 1,10,-1
EndSplineSet
EndChar

StartChar: at
Encoding: 32 64 35
Width: 1799
Flags: W
LayerCount: 2
Fore
SplineSet
1223 317 m 0,0,1
 1223 263 1223 263 1254.5 228.5 c 128,-1,2
 1286 194 1286 194 1331 194 c 0,3,4
 1367 194 1367 194 1401.5 218.5 c 128,-1,5
 1436 243 1436 243 1467 293.5 c 128,-1,6
 1498 344 1498 344 1517 435.5 c 128,-1,7
 1536 527 1536 527 1536 646 c 0,8,9
 1536 770 1536 770 1505.5 869 c 128,-1,10
 1475 968 1475 968 1424.5 1031.5 c 128,-1,11
 1374 1095 1374 1095 1305 1137.5 c 128,-1,12
 1236 1180 1236 1180 1163.5 1198 c 128,-1,13
 1091 1216 1091 1216 1012 1216 c 0,14,15
 851 1216 851 1216 713 1161 c 128,-1,16
 575 1106 575 1106 475 1007 c 128,-1,17
 375 908 375 908 318.5 763 c 128,-1,18
 262 618 262 618 262 445 c 0,19,20
 262 319 262 319 313 219 c 128,-1,21
 364 119 364 119 451.5 56.5 c 128,-1,22
 539 -6 539 -6 650.5 -39 c 128,-1,23
 762 -72 762 -72 888 -72 c 0,24,25
 971 -72 971 -72 1044.5 -59.5 c 128,-1,26
 1118 -47 1118 -47 1154.5 -35 c 128,-1,27
 1191 -23 1191 -23 1273 7 c 1,28,-1
 1266 -66 l 1,29,30
 1075 -157 1075 -157 852 -157 c 0,31,32
 745 -157 745 -157 645 -133 c 128,-1,33
 545 -109 545 -109 457.5 -58.5 c 128,-1,34
 370 -8 370 -8 305 63 c 128,-1,35
 240 134 240 134 202 235 c 128,-1,36
 164 336 164 336 164 455 c 0,37,38
 164 635 164 635 228 791.5 c 128,-1,39
 292 948 292 948 404 1058.5 c 128,-1,40
 516 1169 516 1169 674 1232 c 128,-1,41
 832 1295 832 1295 1015 1295 c 0,42,43
 1149 1295 1149 1295 1263 1251.5 c 128,-1,44
 1377 1208 1377 1208 1461 1127.5 c 128,-1,45
 1545 1047 1545 1047 1592 923.5 c 128,-1,46
 1639 800 1639 800 1639 647 c 0,47,48
 1639 580 1639 580 1627 511.5 c 128,-1,49
 1615 443 1615 443 1587.5 374.5 c 128,-1,50
 1560 306 1560 306 1520.5 253.5 c 128,-1,51
 1481 201 1481 201 1421.5 168 c 128,-1,52
 1362 135 1362 135 1290 135 c 2,53,-1
 1287 135 l 1,54,55
 1069 137 1069 137 1052 388 c 1,56,57
 1003 259 1003 259 921.5 195.5 c 128,-1,58
 840 132 840 132 750 132 c 2,59,-1
 748 132 l 1,60,61
 663 133 663 133 601 177 c 128,-1,62
 539 221 539 221 509.5 289.5 c 128,-1,63
 480 358 480 358 480 442 c 0,64,65
 480 456 480 456 482 482 c 0,66,67
 494 618 494 618 564 741.5 c 128,-1,68
 634 865 634 865 753 944.5 c 128,-1,69
 872 1024 872 1024 1010 1024 c 2,70,-1
 1015 1024 l 1,71,72
 1085 1023 1085 1023 1135 1002 c 128,-1,73
 1185 981 1185 981 1212.5 942 c 128,-1,74
 1240 903 1240 903 1252 854.5 c 128,-1,75
 1264 806 1264 806 1264 743 c 0,76,77
 1264 663 1264 663 1243.5 527.5 c 128,-1,78
 1223 392 1223 392 1223 317 c 0,0,1
638 446 m 0,79,80
 638 387 638 387 654.5 339.5 c 128,-1,81
 671 292 671 292 707.5 261 c 128,-1,82
 744 230 744 230 796 229 c 1,83,84
 865 229 865 229 934 296.5 c 128,-1,85
 1003 364 1003 364 1047 484 c 1,86,87
 1052 511 1052 511 1058 539.5 c 128,-1,88
 1064 568 1064 568 1066.5 579 c 128,-1,89
 1069 590 1069 590 1072 609 c 128,-1,90
 1075 628 1075 628 1077 648.5 c 128,-1,91
 1079 669 1079 669 1082 705 c 0,92,93
 1088 783 1088 783 1088 801 c 0,94,95
 1088 944 1088 944 987 945 c 1,96,-1
 985 945 l 2,97,98
 899 945 899 945 817 866 c 128,-1,99
 735 787 735 787 686.5 671 c 128,-1,100
 638 555 638 555 638 446 c 0,79,80
EndSplineSet
EndChar

StartChar: A
Encoding: 33 65 36
Width: 1376
Flags: W
LayerCount: 2
Fore
SplineSet
430 620 m 1,0,-1
 810 620 l 1,1,-1
 613 1112 l 1,2,-1
 430 620 l 1,0,-1
471 57 m 1,3,-1
 471 0 l 1,4,-1
 -1 0 l 1,5,-1
 -1 52 l 1,6,7
 19 69 19 69 53 81.5 c 128,-1,8
 87 94 87 94 114 111.5 c 128,-1,9
 141 129 141 129 159 163 c 0,10,11
 166 176 166 176 205 273 c 1,12,-1
 579 1231 l 2,13,14
 583 1241 583 1241 585 1275.5 c 128,-1,15
 587 1310 587 1310 598 1324 c 1,16,17
 692 1324 692 1324 754 1277 c 1,18,-1
 1213 176 l 2,19,20
 1226 144 1226 144 1246.5 123.5 c 128,-1,21
 1267 103 1267 103 1285 95 c 128,-1,22
 1303 87 1303 87 1335 74.5 c 128,-1,23
 1367 62 1367 62 1386 52 c 1,24,-1
 1384 0 l 1,25,-1
 802 0 l 1,26,-1
 800 52 l 1,27,28
 827 60 827 60 841.5 65 c 128,-1,29
 856 70 856 70 884 82 c 128,-1,30
 912 94 912 94 927 106 c 128,-1,31
 942 118 942 118 955 137.5 c 128,-1,32
 968 157 968 157 968 180 c 0,33,34
 968 196 968 196 951.5 248 c 128,-1,35
 935 300 935 300 916.5 349.5 c 128,-1,36
 898 399 898 399 874.5 460.5 c 128,-1,37
 851 522 851 522 847 532 c 1,38,-1
 396 532 l 1,39,40
 393 524 393 524 370 466 c 128,-1,41
 347 408 347 408 329.5 360.5 c 128,-1,42
 312 313 312 313 296 257.5 c 128,-1,43
 280 202 280 202 280 175 c 0,44,45
 280 147 280 147 296 126 c 128,-1,46
 312 105 312 105 341.5 93 c 128,-1,47
 371 81 371 81 396.5 74 c 128,-1,48
 422 67 422 67 455 60 c 0,49,50
 466 58 466 58 471 57 c 1,3,-1
EndSplineSet
EndChar

StartChar: B
Encoding: 34 66 37
Width: 1386
Flags: W
LayerCount: 2
Fore
SplineSet
284 221 m 2,0,-1
 284 1023 l 2,1,2
 284 1076 284 1076 278 1110 c 128,-1,3
 272 1144 272 1144 263 1162.5 c 128,-1,4
 254 1181 254 1181 233.5 1193.5 c 128,-1,5
 213 1206 213 1206 194 1211 c 128,-1,6
 175 1216 175 1216 137 1227 c 128,-1,7
 99 1238 99 1238 68 1251 c 1,8,-1
 70 1302 l 1,9,-1
 638 1302 l 2,10,11
 701 1302 701 1302 745 1300.5 c 128,-1,12
 789 1299 789 1299 856.5 1292.5 c 128,-1,13
 924 1286 924 1286 970.5 1273.5 c 128,-1,14
 1017 1261 1017 1261 1070 1236.5 c 128,-1,15
 1123 1212 1123 1212 1155.5 1178.5 c 128,-1,16
 1188 1145 1188 1145 1209.5 1093 c 128,-1,17
 1231 1041 1231 1041 1231 975 c 0,18,19
 1231 730 1231 730 870 669 c 1,20,21
 929 666 929 666 986.5 654 c 128,-1,22
 1044 642 1044 642 1101 617 c 128,-1,23
 1158 592 1158 592 1201 556.5 c 128,-1,24
 1244 521 1244 521 1270.5 467.5 c 128,-1,25
 1297 414 1297 414 1297 349 c 0,26,27
 1297 272 1297 272 1265 210 c 128,-1,28
 1233 148 1233 148 1182 110 c 128,-1,29
 1131 72 1131 72 1063 46 c 128,-1,30
 995 20 995 20 927.5 10 c 128,-1,31
 860 0 860 0 790 0 c 2,32,-1
 70 0 l 1,33,-1
 68 52 l 1,34,35
 79 55 79 55 109 63 c 128,-1,36
 139 71 139 71 153 76 c 128,-1,37
 167 81 167 81 192 90.5 c 128,-1,38
 217 100 217 100 229.5 110.5 c 128,-1,39
 242 121 242 121 257 137 c 128,-1,40
 272 153 272 153 278 174 c 128,-1,41
 284 195 284 195 284 221 c 2,0,-1
524 630 m 1,42,43
 499 608 499 608 499 542 c 2,44,-1
 499 274 l 2,45,46
 499 232 499 232 506.5 193.5 c 128,-1,47
 514 155 514 155 540.5 121 c 128,-1,48
 567 87 567 87 609 87 c 2,49,-1
 771 87 l 2,50,51
 889 87 889 87 968 154 c 128,-1,52
 1047 221 1047 221 1047 336 c 0,53,54
 1047 383 1047 383 1035.5 422.5 c 128,-1,55
 1024 462 1024 462 1006 490.5 c 128,-1,56
 988 519 988 519 957.5 541.5 c 128,-1,57
 927 564 927 564 899 578.5 c 128,-1,58
 871 593 871 593 828.5 603 c 128,-1,59
 786 613 786 613 754.5 618.5 c 128,-1,60
 723 624 723 624 675 626.5 c 128,-1,61
 627 629 627 629 598.5 629.5 c 128,-1,62
 570 630 570 630 524 630 c 1,42,43
499 1227 m 1,63,-1
 499 730 l 1,64,65
 533 700 533 700 579 700 c 2,66,-1
 712 700 l 2,67,68
 1032 700 1032 700 1032 943 c 0,69,70
 1032 1001 1032 1001 1015 1046.5 c 128,-1,71
 998 1092 998 1092 973 1121.5 c 128,-1,72
 948 1151 948 1151 905 1172 c 128,-1,73
 862 1193 862 1193 825.5 1203.5 c 128,-1,74
 789 1214 789 1214 731.5 1219.5 c 128,-1,75
 674 1225 674 1225 638.5 1226 c 128,-1,76
 603 1227 603 1227 545 1227 c 2,77,-1
 499 1227 l 1,63,-1
EndSplineSet
EndChar

StartChar: C
Encoding: 35 67 38
Width: 1426
Flags: W
LayerCount: 2
Fore
SplineSet
1280 1245 m 1,0,-1
 1321 943 l 1,1,-1
 1274 941 l 1,2,3
 1255 960 1255 960 1216 1028 c 128,-1,4
 1177 1096 1177 1096 1156 1117 c 0,5,6
 1023 1250 1023 1250 836 1250 c 0,7,8
 739 1250 739 1250 651.5 1212 c 128,-1,9
 564 1174 564 1174 495.5 1103.5 c 128,-1,10
 427 1033 427 1033 386.5 923.5 c 128,-1,11
 346 814 346 814 346 680 c 0,12,13
 346 406 346 406 491 243.5 c 128,-1,14
 636 81 636 81 878 81 c 0,15,16
 1014 81 1014 81 1119.5 137.5 c 128,-1,17
 1225 194 1225 194 1283 304 c 1,18,-1
 1332 297 l 1,19,-1
 1323 108 l 1,20,21
 1214 47 1214 47 1071.5 10.5 c 128,-1,22
 929 -26 929 -26 806 -26 c 0,23,24
 610 -26 610 -26 453 53 c 128,-1,25
 296 132 296 132 204 285 c 128,-1,26
 112 438 112 438 112 640 c 0,27,28
 112 783 112 783 165.5 908.5 c 128,-1,29
 219 1034 219 1034 315 1127 c 128,-1,30
 411 1220 411 1220 553.5 1273.5 c 128,-1,31
 696 1327 696 1327 864 1327 c 0,32,33
 1069 1327 1069 1327 1280 1245 c 1,0,-1
EndSplineSet
EndChar

StartChar: D
Encoding: 36 68 39
Width: 1604
Flags: W
LayerCount: 2
Fore
SplineSet
675 1225 m 2,0,-1
 507 1225 l 1,1,-1
 507 271 l 2,2,3
 507 86 507 86 655 80 c 0,4,5
 711 77 711 77 770 77 c 0,6,7
 870 77 870 77 954.5 107.5 c 128,-1,8
 1039 138 1039 138 1097 190 c 128,-1,9
 1155 242 1155 242 1195.5 311 c 128,-1,10
 1236 380 1236 380 1255 455 c 128,-1,11
 1274 530 1274 530 1274 609 c 0,12,13
 1274 741 1274 741 1238.5 851 c 128,-1,14
 1203 961 1203 961 1132 1046 c 128,-1,15
 1061 1131 1061 1131 944.5 1178 c 128,-1,16
 828 1225 828 1225 675 1225 c 2,0,-1
292 219 m 2,17,-1
 292 1010 l 2,18,19
 292 1069 292 1069 282 1131 c 0,20,21
 278 1154 278 1154 262 1172 c 128,-1,22
 246 1190 246 1190 220 1201.5 c 128,-1,23
 194 1213 194 1213 171 1220.5 c 128,-1,24
 148 1228 148 1228 115.5 1237 c 128,-1,25
 83 1246 83 1246 68 1251 c 1,26,-1
 70 1302 l 1,27,-1
 662 1302 l 2,28,29
 809 1302 809 1302 933.5 1280.5 c 128,-1,30
 1058 1259 1058 1259 1166.5 1210.5 c 128,-1,31
 1275 1162 1275 1162 1350.5 1088.5 c 128,-1,32
 1426 1015 1426 1015 1469 905.5 c 128,-1,33
 1512 796 1512 796 1512 658 c 0,34,35
 1512 556 1512 556 1483 460.5 c 128,-1,36
 1454 365 1454 365 1394.5 281 c 128,-1,37
 1335 197 1335 197 1250.5 134.5 c 128,-1,38
 1166 72 1166 72 1047 36 c 128,-1,39
 928 0 928 0 789 0 c 2,40,-1
 70 0 l 1,41,-1
 68 52 l 1,42,43
 84 57 84 57 126.5 66.5 c 128,-1,44
 169 76 169 76 190.5 84 c 128,-1,45
 212 92 212 92 239.5 108.5 c 128,-1,46
 267 125 267 125 279.5 152.5 c 128,-1,47
 292 180 292 180 292 219 c 2,17,-1
EndSplineSet
EndChar

StartChar: E
Encoding: 37 69 40
Width: 1386
Flags: W
LayerCount: 2
Fore
SplineSet
1246 342 m 1,0,-1
 1309 342 l 1,1,-1
 1243 -9 l 1,2,3
 1226 -12 1226 -12 1211 -12 c 0,4,5
 1192 -12 1192 -12 1154 -6 c 128,-1,6
 1116 0 1116 0 1096 0 c 2,7,-1
 70 0 l 1,8,-1
 68 49 l 1,9,10
 104 69 104 69 144.5 78.5 c 128,-1,11
 185 88 185 88 206 91 c 128,-1,12
 227 94 227 94 246.5 108.5 c 128,-1,13
 266 123 266 123 273.5 160 c 128,-1,14
 281 197 281 197 281 267 c 2,15,-1
 281 1024 l 2,16,17
 281 1074 281 1074 275 1106.5 c 128,-1,18
 269 1139 269 1139 261 1158 c 128,-1,19
 253 1177 253 1177 232 1190 c 128,-1,20
 211 1203 211 1203 193 1209 c 128,-1,21
 175 1215 175 1215 136.5 1227 c 128,-1,22
 98 1239 98 1239 68 1251 c 1,23,-1
 70 1302 l 1,24,-1
 1090 1302 l 2,25,26
 1108 1302 1108 1302 1144 1307 c 128,-1,27
 1180 1312 1180 1312 1198 1312 c 0,28,29
 1219 1312 1219 1312 1235 1308 c 1,30,-1
 1235 997 l 1,31,-1
 1183 995 l 1,32,33
 1163 1015 1163 1015 1146.5 1049.5 c 128,-1,34
 1130 1084 1130 1084 1120 1112.5 c 128,-1,35
 1110 1141 1110 1141 1088 1168.5 c 128,-1,36
 1066 1196 1066 1196 1033 1207 c 0,37,38
 948 1235 948 1235 702 1235 c 0,39,40
 574 1235 574 1235 500 1226 c 1,41,42
 496 1181 496 1181 496 1123 c 2,43,-1
 496 717 l 1,44,-1
 784 717 l 2,45,46
 825 717 825 717 852 719 c 128,-1,47
 879 721 879 721 902.5 730 c 128,-1,48
 926 739 926 739 938.5 746 c 128,-1,49
 951 753 951 753 967.5 775.5 c 128,-1,50
 984 798 984 798 992.5 812 c 128,-1,51
 1001 826 1001 826 1022 864 c 2,52,-1
 1037 891 l 1,53,-1
 1094 891 l 1,54,-1
 1094 462 l 1,55,-1
 1037 459 l 1,56,57
 1005 545 1005 545 955.5 593 c 128,-1,58
 906 641 906 641 823 641 c 2,59,-1
 496 641 l 1,60,-1
 496 304 l 2,61,62
 496 250 496 250 502 211.5 c 128,-1,63
 508 173 508 173 522 147.5 c 128,-1,64
 536 122 536 122 553 106 c 128,-1,65
 570 90 570 90 598.5 82.5 c 128,-1,66
 627 75 627 75 654 72.5 c 128,-1,67
 681 70 681 70 724 70 c 2,68,-1
 822 70 l 2,69,70
 880 70 880 70 924.5 74.5 c 128,-1,71
 969 79 969 79 1021 93 c 128,-1,72
 1073 107 1073 107 1112 137.5 c 128,-1,73
 1151 168 1151 168 1175 215 c 0,74,75
 1180 225 1180 225 1190 247 c 128,-1,76
 1200 269 1200 269 1206 282 c 128,-1,77
 1212 295 1212 295 1223 312 c 128,-1,78
 1234 329 1234 329 1246 342 c 1,0,-1
EndSplineSet
EndChar

StartChar: F
Encoding: 38 70 41
Width: 1262
Flags: W
LayerCount: 2
Fore
SplineSet
1085 901 m 1,0,-1
 1085 466 l 1,1,2
 1056 463 1056 463 1028 463 c 1,3,4
 999 522 999 522 980 553.5 c 128,-1,5
 961 585 961 585 941.5 609 c 128,-1,6
 922 633 922 633 894.5 641.5 c 128,-1,7
 867 650 867 650 838 653.5 c 128,-1,8
 809 657 809 657 755 657 c 2,9,-1
 506 657 l 1,10,-1
 506 258 l 2,11,12
 506 204 506 204 514 169.5 c 128,-1,13
 522 135 522 135 535 118 c 128,-1,14
 548 101 548 101 572 92 c 128,-1,15
 596 83 596 83 619 80.5 c 128,-1,16
 642 78 642 78 680 70.5 c 128,-1,17
 718 63 718 63 750 52 c 1,18,-1
 750 0 l 1,19,-1
 76 0 l 1,20,-1
 74 52 l 1,21,22
 109 68 109 68 150 77 c 128,-1,23
 191 86 191 86 212.5 90 c 128,-1,24
 234 94 234 94 254.5 109.5 c 128,-1,25
 275 125 275 125 283 161 c 128,-1,26
 291 197 291 197 291 261 c 2,27,-1
 291 1021 l 2,28,29
 291 1073 291 1073 284.5 1107 c 128,-1,30
 278 1141 278 1141 269.5 1160.5 c 128,-1,31
 261 1180 261 1180 238.5 1193 c 128,-1,32
 216 1206 216 1206 197.5 1212 c 128,-1,33
 179 1218 179 1218 139 1229 c 128,-1,34
 99 1240 99 1240 68 1251 c 1,35,-1
 68 1302 l 1,36,37
 69 1302 69 1302 563.5 1302.5 c 128,-1,38
 1058 1303 1058 1303 1069 1303 c 2,39,-1
 1237 1305 l 1,40,-1
 1237 995 l 1,41,-1
 1192 993 l 1,42,43
 1169 1018 1169 1018 1139 1077.5 c 128,-1,44
 1109 1137 1109 1137 1076 1175.5 c 128,-1,45
 1043 1214 1043 1214 992 1222 c 0,46,47
 922 1232 922 1232 779 1232 c 2,48,-1
 587 1232 l 2,49,50
 534 1232 534 1232 520 1221 c 128,-1,51
 506 1210 506 1210 506 1160 c 2,52,-1
 506 733 l 1,53,54
 548 733 548 733 618 731 c 128,-1,55
 688 729 688 729 719 729 c 0,56,57
 837 729 837 729 913 749 c 0,58,59
 944 757 944 757 963.5 781 c 128,-1,60
 983 805 983 805 1000.5 847.5 c 128,-1,61
 1018 890 1018 890 1026 903 c 1,62,-1
 1085 901 l 1,0,-1
EndSplineSet
EndChar

StartChar: G
Encoding: 39 71 42
Width: 1576
Flags: W
LayerCount: 2
Fore
SplineSet
1386 463 m 2,0,-1
 1386 95 l 1,1,2
 1281 40 1281 40 1145 7 c 128,-1,3
 1009 -26 1009 -26 870 -26 c 0,4,5
 528 -26 528 -26 320 156 c 128,-1,6
 112 338 112 338 112 638 c 0,7,8
 112 791 112 791 176 921 c 128,-1,9
 240 1051 240 1051 348.5 1139.5 c 128,-1,10
 457 1228 457 1228 602 1277.5 c 128,-1,11
 747 1327 747 1327 907 1327 c 0,12,13
 1025 1327 1025 1327 1123.5 1309 c 128,-1,14
 1222 1291 1222 1291 1346 1247 c 1,15,-1
 1376 945 l 1,16,17
 1344 942 1344 942 1318 942 c 1,18,19
 1298 960 1298 960 1265.5 1022 c 128,-1,20
 1233 1084 1233 1084 1220 1100 c 0,21,22
 1094 1250 1094 1250 881 1250 c 0,23,24
 729 1250 729 1250 607.5 1175 c 128,-1,25
 486 1100 486 1100 418.5 968.5 c 128,-1,26
 351 837 351 837 351 675 c 0,27,28
 351 408 351 408 500.5 235 c 128,-1,29
 650 62 650 62 887 62 c 0,30,31
 1049 62 1049 62 1154 127 c 1,32,33
 1166 229 1166 229 1166 381 c 0,34,35
 1166 476 1166 476 1138 553 c 0,36,37
 1127 583 1127 583 1094 597 c 128,-1,38
 1061 611 1061 611 1014 618 c 128,-1,39
 967 625 967 625 950 632 c 1,40,-1
 952 684 l 1,41,-1
 1552 684 l 1,42,43
 1554 648 1554 648 1554 632 c 1,44,45
 1546 629 1546 629 1520 620 c 128,-1,46
 1494 611 1494 611 1484.5 606.5 c 128,-1,47
 1475 602 1475 602 1454.5 592 c 128,-1,48
 1434 582 1434 582 1425.5 571.5 c 128,-1,49
 1417 561 1417 561 1405.5 545.5 c 128,-1,50
 1394 530 1394 530 1390 509.5 c 128,-1,51
 1386 489 1386 489 1386 463 c 2,0,-1
EndSplineSet
EndChar

StartChar: H
Encoding: 40 72 43
Width: 1705
Flags: W
LayerCount: 2
Fore
SplineSet
1209 625 m 1,0,-1
 495 625 l 1,1,-1
 495 255 l 2,2,3
 495 193 495 193 503.5 158 c 128,-1,4
 512 123 512 123 533 107.5 c 128,-1,5
 554 92 554 92 576 87.5 c 128,-1,6
 598 83 598 83 640 74.5 c 128,-1,7
 682 66 682 66 717 52 c 1,8,-1
 715 0 l 1,9,-1
 71 0 l 1,10,11
 68 51 68 51 68 52 c 0,12,13
 105 68 105 68 147 77.5 c 128,-1,14
 189 87 189 87 209 91.5 c 128,-1,15
 229 96 229 96 248 112.5 c 128,-1,16
 267 129 267 129 273.5 164.5 c 128,-1,17
 280 200 280 200 280 265 c 2,18,-1
 280 1038 l 2,19,20
 280 1099 280 1099 272.5 1133.5 c 128,-1,21
 265 1168 265 1168 245 1185 c 128,-1,22
 225 1202 225 1202 205 1208 c 128,-1,23
 185 1214 185 1214 144 1225 c 128,-1,24
 103 1236 103 1236 69 1251 c 1,25,-1
 71 1302 l 1,26,-1
 714 1302 l 1,27,-1
 716 1250 l 1,28,29
 682 1234 682 1234 640 1224.5 c 128,-1,30
 598 1215 598 1215 576 1209.5 c 128,-1,31
 554 1204 554 1204 533 1187.5 c 128,-1,32
 512 1171 512 1171 503.5 1135.5 c 128,-1,33
 495 1100 495 1100 495 1037 c 2,34,-1
 495 712 l 1,35,-1
 1209 712 l 1,36,-1
 1209 1047 l 2,37,38
 1209 1103 1209 1103 1201 1136 c 128,-1,39
 1193 1169 1193 1169 1173.5 1185 c 128,-1,40
 1154 1201 1154 1201 1134 1207.5 c 128,-1,41
 1114 1214 1114 1214 1075.5 1225 c 128,-1,42
 1037 1236 1037 1236 1006 1251 c 1,43,-1
 1008 1302 l 1,44,-1
 1635 1302 l 1,45,-1
 1637 1250 l 1,46,47
 1610 1240 1610 1240 1577 1231 c 128,-1,48
 1544 1222 1544 1222 1526.5 1217.5 c 128,-1,49
 1509 1213 1509 1213 1488.5 1204.5 c 128,-1,50
 1468 1196 1468 1196 1458.5 1184.5 c 128,-1,51
 1449 1173 1449 1173 1439.5 1153 c 128,-1,52
 1430 1133 1430 1133 1427 1103 c 128,-1,53
 1424 1073 1424 1073 1424 1030 c 2,54,-1
 1424 267 l 2,55,56
 1424 214 1424 214 1429.5 181 c 128,-1,57
 1435 148 1435 148 1443.5 129.5 c 128,-1,58
 1452 111 1452 111 1472 100.5 c 128,-1,59
 1492 90 1492 90 1510.5 85.5 c 128,-1,60
 1529 81 1529 81 1567 72 c 128,-1,61
 1605 63 1605 63 1637 52 c 1,62,-1
 1637 0 l 1,63,-1
 1008 0 l 1,64,-1
 1006 52 l 1,65,66
 1037 69 1037 69 1074 77.5 c 128,-1,67
 1111 86 1111 86 1132 90 c 128,-1,68
 1153 94 1153 94 1172.5 108 c 128,-1,69
 1192 122 1192 122 1200.5 156 c 128,-1,70
 1209 190 1209 190 1209 252 c 2,71,-1
 1209 625 l 1,0,-1
EndSplineSet
EndChar

StartChar: I
Encoding: 41 73 44
Width: 807
Flags: W
LayerCount: 2
Fore
SplineSet
509 1081 m 2,0,-1
 509 260 l 2,1,2
 509 197 509 197 517 162 c 128,-1,3
 525 127 525 127 547 110.5 c 128,-1,4
 569 94 569 94 590.5 88.5 c 128,-1,5
 612 83 612 83 657.5 74.5 c 128,-1,6
 703 66 703 66 739 53 c 1,7,-1
 737 0 l 1,8,-1
 72 0 l 1,9,-1
 72 52 l 1,10,11
 108 69 108 69 150.5 76 c 128,-1,12
 193 83 193 83 215 86.5 c 128,-1,13
 237 90 237 90 257.5 106 c 128,-1,14
 278 122 278 122 286 162.5 c 128,-1,15
 294 203 294 203 294 278 c 2,16,-1
 294 1030 l 2,17,18
 294 1103 294 1103 283 1143 c 128,-1,19
 272 1183 272 1183 249 1197 c 128,-1,20
 226 1211 226 1211 201.5 1214 c 128,-1,21
 177 1217 177 1217 138 1225 c 128,-1,22
 99 1233 99 1233 68 1251 c 1,23,-1
 70 1302 l 1,24,-1
 733 1302 l 1,25,-1
 735 1250 l 1,26,27
 716 1243 716 1243 676 1233 c 128,-1,28
 636 1223 636 1223 612.5 1214.5 c 128,-1,29
 589 1206 589 1206 562 1190 c 128,-1,30
 535 1174 535 1174 522 1147 c 128,-1,31
 509 1120 509 1120 509 1081 c 2,0,-1
EndSplineSet
EndChar

StartChar: J
Encoding: 42 74 45
Width: 726
Flags: W
LayerCount: 2
Fore
SplineSet
49 1302 m 1,0,-1
 716 1302 l 1,1,-1
 716 1251 l 1,2,3
 681 1236 681 1236 638.5 1227 c 128,-1,4
 596 1218 596 1218 573.5 1213.5 c 128,-1,5
 551 1209 551 1209 529 1193.5 c 128,-1,6
 507 1178 507 1178 498 1142.5 c 128,-1,7
 489 1107 489 1107 489 1044 c 2,8,-1
 489 170 l 2,9,10
 489 96 489 96 480 29 c 128,-1,11
 471 -38 471 -38 446.5 -105.5 c 128,-1,12
 422 -173 422 -173 384.5 -222 c 128,-1,13
 347 -271 347 -271 284.5 -302 c 128,-1,14
 222 -333 222 -333 142 -333 c 0,15,16
 98 -333 98 -333 55.5 -322.5 c 128,-1,17
 13 -312 13 -312 -22.5 -282 c 128,-1,18
 -58 -252 -58 -252 -58 -207 c 0,19,20
 -58 -169 -58 -169 -32.5 -145.5 c 128,-1,21
 -7 -122 -7 -122 31 -122 c 0,22,23
 60 -122 60 -122 80 -135.5 c 128,-1,24
 100 -149 100 -149 111.5 -167.5 c 128,-1,25
 123 -186 123 -186 133 -205 c 128,-1,26
 143 -224 143 -224 158.5 -237.5 c 128,-1,27
 174 -251 174 -251 195 -251 c 0,28,29
 274 -251 274 -251 274 6 c 2,30,-1
 274 1035 l 2,31,32
 274 1088 274 1088 267 1121.5 c 128,-1,33
 260 1155 260 1155 250 1173.5 c 128,-1,34
 240 1192 240 1192 217.5 1202.5 c 128,-1,35
 195 1213 195 1213 174.5 1217 c 128,-1,36
 154 1221 154 1221 116 1230 c 128,-1,37
 78 1239 78 1239 46 1250 c 1,38,-1
 49 1302 l 1,0,-1
EndSplineSet
EndChar

StartChar: K
Encoding: 43 75 46
Width: 1467
Flags: W
LayerCount: 2
Fore
SplineSet
511 1166 m 2,0,-1
 511 726 l 1,1,-1
 597 726 l 1,2,-1
 1053 1178 l 1,3,4
 1057 1190 1057 1190 1057 1200 c 0,5,6
 1057 1233 1057 1233 1013.5 1242 c 128,-1,7
 970 1251 970 1251 927 1256 c 128,-1,8
 884 1261 884 1261 884 1284 c 0,9,10
 884 1287 884 1287 889 1302 c 1,11,-1
 1453 1302 l 1,12,-1
 1457 1284 l 1,13,14
 1457 1262 1457 1262 1315 1231 c 0,15,16
 1219 1210 1219 1210 1173 1172 c 1,17,-1
 785 774 l 1,18,-1
 1253 130 l 1,19,20
 1269 112 1269 112 1331 91.5 c 128,-1,21
 1393 71 1393 71 1445 52.5 c 128,-1,22
 1497 34 1497 34 1497 18 c 0,23,24
 1497 7 1497 7 1493 0 c 1,25,-1
 809 0 l 1,26,27
 803 13 803 13 803 17 c 0,28,29
 803 33 803 33 830 41.5 c 128,-1,30
 857 50 857 50 890 52.5 c 128,-1,31
 923 55 923 55 950 67 c 128,-1,32
 977 79 977 79 977 102 c 0,33,34
 977 112 977 112 960 134 c 1,35,-1
 601 660 l 1,36,-1
 511 660 l 1,37,-1
 511 124 l 2,38,39
 511 92 511 92 535.5 75.5 c 128,-1,40
 560 59 560 59 595 55.5 c 128,-1,41
 630 52 630 52 664.5 51 c 128,-1,42
 699 50 699 50 723.5 43 c 128,-1,43
 748 36 748 36 748 19 c 0,44,45
 748 17 748 17 743 0 c 1,46,-1
 73 0 l 1,47,48
 69 12 69 12 69 17 c 0,49,50
 69 36 69 36 104.5 44.5 c 128,-1,51
 140 53 140 53 182.5 55.5 c 128,-1,52
 225 58 225 58 260.5 76 c 128,-1,53
 296 94 296 94 296 130 c 2,54,-1
 296 1166 l 2,55,56
 296 1201 296 1201 260.5 1220 c 128,-1,57
 225 1239 225 1239 182 1243 c 128,-1,58
 139 1247 139 1247 103.5 1256.5 c 128,-1,59
 68 1266 68 1266 68 1284 c 0,60,61
 68 1287 68 1287 73 1302 c 1,62,-1
 739 1302 l 1,63,64
 743 1289 743 1289 743 1285 c 0,65,66
 743 1266 743 1266 706.5 1256.5 c 128,-1,67
 670 1247 670 1247 627 1243.5 c 128,-1,68
 584 1240 584 1240 547.5 1220.5 c 128,-1,69
 511 1201 511 1201 511 1166 c 2,0,-1
EndSplineSet
EndChar

StartChar: L
Encoding: 44 76 47
Width: 1296
Flags: W
LayerCount: 2
Fore
SplineSet
299 240 m 2,0,-1
 299 1034 l 2,1,2
 299 1088 299 1088 292.5 1122 c 128,-1,3
 286 1156 286 1156 276.5 1174.5 c 128,-1,4
 267 1193 267 1193 244.5 1204 c 128,-1,5
 222 1215 222 1215 202 1219.5 c 128,-1,6
 182 1224 182 1224 142 1232.5 c 128,-1,7
 102 1241 102 1241 69 1251 c 1,8,-1
 71 1302 l 1,9,-1
 747 1302 l 1,10,-1
 747 1250 l 1,11,12
 710 1235 710 1235 665.5 1226.5 c 128,-1,13
 621 1218 621 1218 598.5 1213.5 c 128,-1,14
 576 1209 576 1209 554 1193 c 128,-1,15
 532 1177 532 1177 523.5 1141 c 128,-1,16
 515 1105 515 1105 515 1040 c 2,17,-1
 515 312 l 2,18,19
 515 275 515 275 516 248.5 c 128,-1,20
 517 222 517 222 522.5 198 c 128,-1,21
 528 174 528 174 532 158 c 128,-1,22
 536 142 536 142 549.5 128 c 128,-1,23
 563 114 563 114 573.5 105.5 c 128,-1,24
 584 97 584 97 609 90.5 c 128,-1,25
 634 84 634 84 652.5 81 c 128,-1,26
 671 78 671 78 710 76.5 c 128,-1,27
 749 75 749 75 779.5 74.5 c 128,-1,28
 810 74 810 74 865 74 c 0,29,30
 975 74 975 74 1050.5 102.5 c 128,-1,31
 1126 131 1126 131 1171 217 c 0,32,33
 1176 227 1176 227 1186.5 249 c 128,-1,34
 1197 271 1197 271 1203.5 284 c 128,-1,35
 1210 297 1210 297 1221.5 314 c 128,-1,36
 1233 331 1233 331 1245 344 c 1,37,-1
 1305 342 l 1,38,-1
 1242 -11 l 1,39,40
 1108 0 1108 0 1023 0 c 2,41,-1
 70 0 l 1,42,-1
 68 54 l 1,43,44
 89 61 89 61 132.5 72.5 c 128,-1,45
 176 84 176 84 198 92.5 c 128,-1,46
 220 101 220 101 247.5 119 c 128,-1,47
 275 137 275 137 287 166.5 c 128,-1,48
 299 196 299 196 299 240 c 2,0,-1
EndSplineSet
EndChar

StartChar: M
Encoding: 45 77 48
Width: 1925
Flags: W
LayerCount: 2
Fore
SplineSet
1606 1082 m 1,0,-1
 1678 271 l 2,1,2
 1687 169 1687 169 1734 117 c 1,3,4
 1743 92 1743 92 1774.5 82.5 c 128,-1,5
 1806 73 1806 73 1845 68.5 c 128,-1,6
 1884 64 1884 64 1899 52 c 1,7,-1
 1897 0 l 1,8,-1
 1274 0 l 1,9,-1
 1272 52 l 1,10,11
 1282 55 1282 55 1304 62 c 128,-1,12
 1326 69 1326 69 1338 73 c 128,-1,13
 1350 77 1350 77 1370 85 c 128,-1,14
 1390 93 1390 93 1401 100 c 128,-1,15
 1412 107 1412 107 1426 118.5 c 128,-1,16
 1440 130 1440 130 1447.5 143 c 128,-1,17
 1455 156 1455 156 1460.5 173.5 c 128,-1,18
 1466 191 1466 191 1466 211 c 1,19,-1
 1404 1068 l 1,20,-1
 1022 205 l 2,21,22
 987 126 987 126 949 0 c 1,23,-1
 870 0 l 1,24,25
 835 78 835 78 737.5 278.5 c 128,-1,26
 640 479 640 479 548 676.5 c 128,-1,27
 456 874 456 874 395 1029 c 1,28,29
 388 950 388 950 369.5 780.5 c 128,-1,30
 351 611 351 611 340.5 480.5 c 128,-1,31
 330 350 330 350 330 232 c 0,32,33
 330 205 330 205 334.5 183 c 128,-1,34
 339 161 339 161 351.5 144.5 c 128,-1,35
 364 128 364 128 373 117.5 c 128,-1,36
 382 107 382 107 405 96 c 128,-1,37
 428 85 428 85 438.5 80.5 c 128,-1,38
 449 76 449 76 479.5 66 c 128,-1,39
 510 56 510 56 521 52 c 1,40,-1
 519 0 l 1,41,-1
 35 0 l 1,42,-1
 33 52 l 1,43,44
 51 59 51 59 87.5 71 c 128,-1,45
 124 83 124 83 142.5 91.5 c 128,-1,46
 161 100 161 100 184.5 116.5 c 128,-1,47
 208 133 208 133 220 158.5 c 128,-1,48
 232 184 232 184 236 220 c 2,49,-1
 312 968 l 2,50,51
 319 1040 319 1040 319 1096 c 0,52,53
 319 1131 319 1131 308 1155 c 128,-1,54
 297 1179 297 1179 276 1192 c 128,-1,55
 255 1205 255 1205 234 1213 c 128,-1,56
 213 1221 213 1221 183 1231 c 128,-1,57
 153 1241 153 1241 134 1251 c 1,58,-1
 136 1302 l 1,59,-1
 525 1302 l 1,60,61
 565 1133 565 1133 612 1034 c 2,62,-1
 972 267 l 1,63,-1
 1329 1081 l 2,64,65
 1377 1191 1377 1191 1377 1302 c 1,66,-1
 1791 1302 l 1,67,-1
 1791 1250 l 1,68,69
 1699 1219 1699 1219 1669 1200 c 1,70,71
 1607 1158 1607 1158 1606 1082 c 1,0,-1
EndSplineSet
EndChar

StartChar: N
Encoding: 46 78 49
Width: 1724
Flags: W
LayerCount: 2
Fore
SplineSet
78 54 m 1,0,1
 93 58 93 58 125 66 c 128,-1,2
 157 74 157 74 173.5 79 c 128,-1,3
 190 84 190 84 216 93.5 c 128,-1,4
 242 103 242 103 256.5 114.5 c 128,-1,5
 271 126 271 126 287.5 143 c 128,-1,6
 304 160 304 160 312 184 c 128,-1,7
 320 208 320 208 323 239 c 1,8,-1
 323 1091 l 1,9,10
 303 1125 303 1125 281 1148 c 128,-1,11
 259 1171 259 1171 233 1185.5 c 128,-1,12
 207 1200 207 1200 186 1208 c 128,-1,13
 165 1216 165 1216 128.5 1228 c 128,-1,14
 92 1240 92 1240 68 1250 c 1,15,-1
 68 1302 l 1,16,-1
 417 1302 l 1,17,-1
 1358 329 l 1,18,-1
 1358 958 l 2,19,20
 1358 1053 1358 1053 1331 1131 c 0,21,22
 1319 1165 1319 1165 1294.5 1185.5 c 128,-1,23
 1270 1206 1270 1206 1245.5 1212.5 c 128,-1,24
 1221 1219 1221 1219 1184.5 1228.5 c 128,-1,25
 1148 1238 1148 1238 1126 1249 c 1,26,27
 1126 1275 1126 1275 1129 1302 c 1,28,-1
 1656 1302 l 1,29,-1
 1656 1248 l 1,30,31
 1635 1238 1635 1238 1602.5 1224 c 128,-1,32
 1570 1210 1570 1210 1557.5 1204.5 c 128,-1,33
 1545 1199 1545 1199 1523.5 1187 c 128,-1,34
 1502 1175 1502 1175 1495 1168 c 128,-1,35
 1488 1161 1488 1161 1475.5 1145.5 c 128,-1,36
 1463 1130 1463 1130 1460.5 1115.5 c 128,-1,37
 1458 1101 1458 1101 1452.5 1077 c 128,-1,38
 1447 1053 1447 1053 1446 1025.5 c 128,-1,39
 1445 998 1445 998 1445 959 c 0,40,41
 1440 454 1440 454 1440 353 c 0,42,43
 1440 288 1440 288 1451 167 c 128,-1,44
 1462 46 1462 46 1463 -9 c 1,45,46
 1444 -16 1444 -16 1414 -16 c 0,47,48
 1382 -16 1382 -16 1357 -9 c 1,49,50
 1285 79 1285 79 1193 178 c 1,51,-1
 403 1009 l 1,52,-1
 403 307 l 2,53,54
 403 240 403 240 420 172 c 0,55,56
 432 124 432 124 469.5 104.5 c 128,-1,57
 507 85 507 85 564.5 75.5 c 128,-1,58
 622 66 622 66 647 53 c 1,59,60
 647 27 647 27 644 0 c 1,61,-1
 80 0 l 1,62,63
 78 18 78 18 78 54 c 1,0,1
EndSplineSet
EndChar

StartChar: O
Encoding: 47 79 50
Width: 1603
Flags: W
LayerCount: 2
Fore
SplineSet
345 720 m 0,0,1
 345 532 345 532 407.5 379 c 128,-1,2
 470 226 470 226 583 138.5 c 128,-1,3
 696 51 696 51 837 51 c 0,4,5
 1021 51 1021 51 1139.5 194.5 c 128,-1,6
 1258 338 1258 338 1258 585 c 0,7,8
 1258 771 1258 771 1197 922 c 128,-1,9
 1136 1073 1136 1073 1023.5 1161.5 c 128,-1,10
 911 1250 911 1250 769 1250 c 0,11,12
 682 1250 682 1250 606 1216 c 128,-1,13
 530 1182 530 1182 471.5 1117.5 c 128,-1,14
 413 1053 413 1053 379 950.5 c 128,-1,15
 345 848 345 848 345 720 c 0,0,1
112 637 m 0,16,17
 112 803 112 803 171.5 937 c 128,-1,18
 231 1071 231 1071 329.5 1154.5 c 128,-1,19
 428 1238 428 1238 550 1282.5 c 128,-1,20
 672 1327 672 1327 804 1327 c 0,21,22
 944 1327 944 1327 1069 1278.5 c 128,-1,23
 1194 1230 1194 1230 1287.5 1143.5 c 128,-1,24
 1381 1057 1381 1057 1436 928.5 c 128,-1,25
 1491 800 1491 800 1491 648 c 0,26,27
 1491 499 1491 499 1434.5 371.5 c 128,-1,28
 1378 244 1378 244 1281.5 157.5 c 128,-1,29
 1185 71 1185 71 1056 22.5 c 128,-1,30
 927 -26 927 -26 784 -26 c 0,31,32
 653 -26 653 -26 532 20.5 c 128,-1,33
 411 67 411 67 317.5 150 c 128,-1,34
 224 233 224 233 168 360 c 128,-1,35
 112 487 112 487 112 637 c 0,16,17
EndSplineSet
EndChar

StartChar: P
Encoding: 48 80 51
Width: 1305
Flags: W
LayerCount: 2
Fore
SplineSet
280 222 m 2,0,-1
 280 1031 l 2,1,2
 280 1081 280 1081 274 1114 c 128,-1,3
 268 1147 268 1147 258.5 1165 c 128,-1,4
 249 1183 249 1183 228.5 1194.5 c 128,-1,5
 208 1206 208 1206 189 1211.5 c 128,-1,6
 170 1217 170 1217 134.5 1227.5 c 128,-1,7
 99 1238 99 1238 69 1251 c 1,8,-1
 71 1302 l 1,9,-1
 567 1302 l 2,10,11
 623 1302 623 1302 662 1301.5 c 128,-1,12
 701 1301 701 1301 761 1297 c 128,-1,13
 821 1293 821 1293 864 1286.5 c 128,-1,14
 907 1280 907 1280 961 1267 c 128,-1,15
 1015 1254 1015 1254 1053 1236 c 128,-1,16
 1091 1218 1091 1218 1130 1190 c 128,-1,17
 1169 1162 1169 1162 1193 1127 c 128,-1,18
 1217 1092 1217 1092 1232 1044 c 128,-1,19
 1247 996 1247 996 1247 939 c 0,20,21
 1247 841 1247 841 1210 764.5 c 128,-1,22
 1173 688 1173 688 1108.5 641.5 c 128,-1,23
 1044 595 1044 595 962.5 571.5 c 128,-1,24
 881 548 881 548 786 548 c 0,25,26
 741 548 741 548 659.5 566.5 c 128,-1,27
 578 585 578 585 578 614 c 0,28,29
 578 632 578 632 622 632 c 2,30,-1
 637 632 l 2,31,32
 707 632 707 632 758.5 638 c 128,-1,33
 810 644 810 644 861 662 c 128,-1,34
 912 680 912 680 943.5 711.5 c 128,-1,35
 975 743 975 743 994.5 797 c 128,-1,36
 1014 851 1014 851 1014 925 c 0,37,38
 1014 993 1014 993 989 1047 c 128,-1,39
 964 1101 964 1101 923 1135 c 128,-1,40
 882 1169 882 1169 826.5 1191.5 c 128,-1,41
 771 1214 771 1214 713.5 1223 c 128,-1,42
 656 1232 656 1232 593 1232 c 0,43,44
 549 1232 549 1232 496 1227 c 1,45,-1
 496 275 l 2,46,47
 496 215 496 215 502 179 c 128,-1,48
 508 143 508 143 518 124.5 c 128,-1,49
 528 106 528 106 549 97 c 128,-1,50
 570 88 570 88 591 85 c 128,-1,51
 612 82 612 82 650 74 c 128,-1,52
 688 66 688 66 723 52 c 1,53,-1
 721 0 l 1,54,-1
 71 0 l 1,55,-1
 68 52 l 1,56,57
 78 55 78 55 104 62 c 128,-1,58
 130 69 130 69 142 72.5 c 128,-1,59
 154 76 154 76 176.5 84.5 c 128,-1,60
 199 93 199 93 210.5 100.5 c 128,-1,61
 222 108 222 108 237.5 120.5 c 128,-1,62
 253 133 253 133 261 146.5 c 128,-1,63
 269 160 269 160 274.5 179.5 c 128,-1,64
 280 199 280 199 280 222 c 2,0,-1
EndSplineSet
EndChar

StartChar: Q
Encoding: 49 81 52
Width: 1592
Flags: W
LayerCount: 2
Fore
SplineSet
346 729 m 0,0,1
 346 577 346 577 384.5 448.5 c 128,-1,2
 423 320 423 320 489.5 233.5 c 128,-1,3
 556 147 556 147 645 99 c 128,-1,4
 734 51 734 51 835 51 c 0,5,6
 922 51 922 51 998 85.5 c 128,-1,7
 1074 120 1074 120 1132.5 185.5 c 128,-1,8
 1191 251 1191 251 1224.5 354.5 c 128,-1,9
 1258 458 1258 458 1258 587 c 0,10,11
 1258 769 1258 769 1197.5 920 c 128,-1,12
 1137 1071 1137 1071 1024.5 1160.5 c 128,-1,13
 912 1250 912 1250 770 1250 c 0,14,15
 589 1250 589 1250 467.5 1107.5 c 128,-1,16
 346 965 346 965 346 729 c 0,0,1
1590 -213 m 1,17,-1
 1602 -285 l 1,18,19
 1515 -314 1515 -314 1398 -314 c 0,20,21
 1298 -314 1298 -314 1227.5 -298 c 128,-1,22
 1157 -282 1157 -282 1078 -244 c 0,23,24
 990 -202 990 -202 853 -128 c 128,-1,25
 716 -54 716 -54 650 -11 c 1,26,27
 404 54 404 54 258 219.5 c 128,-1,28
 112 385 112 385 112 641 c 0,29,30
 112 795 112 795 167 925 c 128,-1,31
 222 1055 222 1055 316.5 1142 c 128,-1,32
 411 1229 411 1229 537 1278 c 128,-1,33
 663 1327 663 1327 804 1327 c 0,34,35
 992 1327 992 1327 1147.5 1245 c 128,-1,36
 1303 1163 1303 1163 1397 1007 c 128,-1,37
 1491 851 1491 851 1491 651 c 0,38,39
 1491 521 1491 521 1447 407 c 128,-1,40
 1403 293 1403 293 1326 209.5 c 128,-1,41
 1249 126 1249 126 1146.5 69 c 128,-1,42
 1044 12 1044 12 924 -11 c 1,43,44
 1141 -115 1141 -115 1266 -155 c 128,-1,45
 1391 -195 1391 -195 1590 -213 c 1,17,-1
EndSplineSet
EndChar

StartChar: R
Encoding: 50 82 53
Width: 1437
Flags: W
LayerCount: 2
Fore
SplineSet
1265 -26 m 0,0,1
 1198 -26 1198 -26 1134.5 3.5 c 128,-1,2
 1071 33 1071 33 1023.5 75.5 c 128,-1,3
 976 118 976 118 924.5 185 c 128,-1,4
 873 252 873 252 840 305.5 c 128,-1,5
 807 359 807 359 763 432.5 c 128,-1,6
 719 506 719 506 695 542 c 0,7,8
 660 594 660 594 635 611 c 128,-1,9
 610 628 610 628 552 632 c 2,10,-1
 489 636 l 1,11,-1
 489 251 l 2,12,13
 489 189 489 189 498 154.5 c 128,-1,14
 507 120 507 120 528 105.5 c 128,-1,15
 549 91 549 91 571.5 87 c 128,-1,16
 594 83 594 83 633 75 c 128,-1,17
 672 67 672 67 705 52 c 1,18,-1
 703 0 l 1,19,-1
 70 0 l 1,20,-1
 68 52 l 1,21,22
 101 70 101 70 139.5 78 c 128,-1,23
 178 86 178 86 198.5 89.5 c 128,-1,24
 219 93 219 93 238.5 108 c 128,-1,25
 258 123 258 123 266 163 c 128,-1,26
 274 203 274 203 274 277 c 2,27,-1
 274 1035 l 2,28,29
 274 1083 274 1083 268 1114.5 c 128,-1,30
 262 1146 262 1146 252.5 1163.5 c 128,-1,31
 243 1181 243 1181 223 1193 c 128,-1,32
 203 1205 203 1205 184.5 1210 c 128,-1,33
 166 1215 166 1215 131.5 1226 c 128,-1,34
 97 1237 97 1237 68 1250 c 1,35,-1
 70 1302 l 1,36,-1
 531 1302 l 2,37,38
 606 1302 606 1302 649 1301 c 128,-1,39
 692 1300 692 1300 774 1294 c 128,-1,40
 856 1288 856 1288 907.5 1276 c 128,-1,41
 959 1264 959 1264 1024.5 1239.5 c 128,-1,42
 1090 1215 1090 1215 1127.5 1181 c 128,-1,43
 1165 1147 1165 1147 1192 1093 c 128,-1,44
 1219 1039 1219 1039 1219 970 c 0,45,46
 1219 898 1219 898 1187 839 c 128,-1,47
 1155 780 1155 780 1101.5 742 c 128,-1,48
 1048 704 1048 704 986 680.5 c 128,-1,49
 924 657 924 657 855 647 c 1,50,51
 895 593 895 593 969 488 c 128,-1,52
 1043 383 1043 383 1104 300.5 c 128,-1,53
 1165 218 1165 218 1219 153 c 1,54,55
 1252 118 1252 118 1274 100 c 128,-1,56
 1296 82 1296 82 1339 68 c 128,-1,57
 1382 54 1382 54 1441 54 c 1,58,-1
 1441 -2 l 1,59,60
 1342 -26 1342 -26 1265 -26 c 0,0,1
489 1227 m 1,61,-1
 489 703 l 1,62,63
 493 703 493 703 498.5 703 c 128,-1,64
 504 703 504 703 509 703 c 128,-1,65
 514 703 514 703 518.5 703 c 128,-1,66
 523 703 523 703 528.5 703 c 128,-1,67
 534 703 534 703 539 703 c 0,68,69
 577 703 577 703 605 703.5 c 128,-1,70
 633 704 633 704 672.5 707 c 128,-1,71
 712 710 712 710 740.5 714.5 c 128,-1,72
 769 719 769 719 804 728.5 c 128,-1,73
 839 738 839 738 863.5 751 c 128,-1,74
 888 764 888 764 912.5 783 c 128,-1,75
 937 802 937 802 952 826.5 c 128,-1,76
 967 851 967 851 976.5 884.5 c 128,-1,77
 986 918 986 918 986 958 c 0,78,79
 986 1002 986 1002 975.5 1038 c 128,-1,80
 965 1074 965 1074 949.5 1100 c 128,-1,81
 934 1126 934 1126 906.5 1146.5 c 128,-1,82
 879 1167 879 1167 854.5 1180.5 c 128,-1,83
 830 1194 830 1194 790.5 1203 c 128,-1,84
 751 1212 751 1212 723.5 1216.5 c 128,-1,85
 696 1221 696 1221 650.5 1223.5 c 128,-1,86
 605 1226 605 1226 580 1226.5 c 128,-1,87
 555 1227 555 1227 511 1227 c 2,88,-1
 489 1227 l 1,61,-1
EndSplineSet
EndChar

StartChar: S
Encoding: 51 83 54
Width: 1167
Flags: W
LayerCount: 2
Fore
SplineSet
137 77 m 1,0,-1
 137 400 l 1,1,-1
 196 402 l 1,2,3
 203 391 203 391 209 376.5 c 128,-1,4
 215 362 215 362 218 352 c 128,-1,5
 221 342 221 342 226.5 323 c 128,-1,6
 232 304 232 304 234 297 c 0,7,8
 269 182 269 182 367 120 c 128,-1,9
 465 58 465 58 591 58 c 0,10,11
 696 58 696 58 779.5 113 c 128,-1,12
 863 168 863 168 863 268 c 0,13,14
 863 317 863 317 832.5 362.5 c 128,-1,15
 802 408 802 408 752 444 c 128,-1,16
 702 480 702 480 638.5 519 c 128,-1,17
 575 558 575 558 508.5 592.5 c 128,-1,18
 442 627 442 627 378.5 670.5 c 128,-1,19
 315 714 315 714 265 759 c 128,-1,20
 215 804 215 804 184.5 864 c 128,-1,21
 154 924 154 924 154 991 c 0,22,23
 154 1062 154 1062 181 1120 c 128,-1,24
 208 1178 208 1178 252 1216 c 128,-1,25
 296 1254 296 1254 355 1279.5 c 128,-1,26
 414 1305 414 1305 476 1316 c 128,-1,27
 538 1327 538 1327 604 1327 c 0,28,29
 804 1327 804 1327 985 1234 c 1,30,-1
 998 949 l 1,31,-1
 936 949 l 1,32,33
 930 960 930 960 898 1051 c 0,34,35
 864 1149 864 1149 780.5 1199.5 c 128,-1,36
 697 1250 697 1250 588 1250 c 0,37,38
 532 1250 532 1250 478 1233 c 128,-1,39
 424 1216 424 1216 382.5 1174.5 c 128,-1,40
 341 1133 341 1133 341 1075 c 0,41,42
 341 1023 341 1023 380.5 974.5 c 128,-1,43
 420 926 420 926 483.5 885.5 c 128,-1,44
 547 845 547 845 623 803.5 c 128,-1,45
 699 762 699 762 775.5 715 c 128,-1,46
 852 668 852 668 915.5 616 c 128,-1,47
 979 564 979 564 1018.5 494 c 128,-1,48
 1058 424 1058 424 1058 344 c 0,49,50
 1058 267 1058 267 1030 204 c 128,-1,51
 1002 141 1002 141 955.5 99 c 128,-1,52
 909 57 909 57 846.5 28 c 128,-1,53
 784 -1 784 -1 716.5 -13.5 c 128,-1,54
 649 -26 649 -26 578 -26 c 0,55,56
 468 -26 468 -26 341.5 1.5 c 128,-1,57
 215 29 215 29 137 77 c 1,0,-1
EndSplineSet
EndChar

StartChar: T
Encoding: 52 84 55
Width: 1395
Flags: W
LayerCount: 2
Fore
SplineSet
586 241 m 2,0,-1
 586 1228 l 1,1,-1
 440 1228 l 2,2,3
 348 1228 348 1228 294 1220 c 0,4,5
 257 1214 257 1214 224 1185 c 128,-1,6
 191 1156 191 1156 170.5 1123.5 c 128,-1,7
 150 1091 150 1091 123.5 1047 c 128,-1,8
 97 1003 97 1003 80 982 c 1,9,-1
 34 982 l 1,10,-1
 59 1308 l 1,11,12
 234 1301 234 1301 485 1301 c 0,13,14
 550 1301 550 1301 680 1301.5 c 128,-1,15
 810 1302 810 1302 875 1302 c 0,16,17
 897 1302 897 1302 940.5 1302 c 128,-1,18
 984 1302 984 1302 1006 1302 c 0,19,20
 1103 1302 1103 1302 1181 1303.5 c 128,-1,21
 1259 1305 1259 1305 1333 1310 c 1,22,-1
 1365 981 l 1,23,-1
 1317 981 l 1,24,25
 1300 1002 1300 1002 1263.5 1067 c 128,-1,26
 1227 1132 1227 1132 1191 1172.5 c 128,-1,27
 1155 1213 1155 1213 1109 1220 c 0,28,29
 1058 1228 1058 1228 954 1228 c 2,30,-1
 801 1228 l 1,31,-1
 801 241 l 2,32,33
 801 207 801 207 807 180.5 c 128,-1,34
 813 154 813 154 821 136 c 128,-1,35
 829 118 829 118 847.5 104.5 c 128,-1,36
 866 91 866 91 880 83 c 128,-1,37
 894 75 894 75 923 68.5 c 128,-1,38
 952 62 952 62 970.5 59.5 c 128,-1,39
 989 57 989 57 1027 52 c 1,40,41
 1027 17 1027 17 1025 0 c 1,42,-1
 363 0 l 1,43,-1
 361 52 l 1,44,45
 378 58 378 58 414 68.5 c 128,-1,46
 450 79 450 79 468.5 85 c 128,-1,47
 487 91 487 91 513 105 c 128,-1,48
 539 119 539 119 552.5 135.5 c 128,-1,49
 566 152 566 152 576 179 c 128,-1,50
 586 206 586 206 586 241 c 2,0,-1
EndSplineSet
EndChar

StartChar: U
Encoding: 53 85 56
Width: 1639
Flags: W
LayerCount: 2
Fore
SplineSet
29 1302 m 1,0,-1
 689 1302 l 1,1,-1
 691 1250 l 1,2,3
 657 1238 657 1238 617 1228.5 c 128,-1,4
 577 1219 577 1219 556 1215 c 128,-1,5
 535 1211 535 1211 513 1200 c 128,-1,6
 491 1189 491 1189 481.5 1169.5 c 128,-1,7
 472 1150 472 1150 465.5 1115 c 128,-1,8
 459 1080 459 1080 459 1023 c 2,9,-1
 459 596 l 2,10,11
 459 504 459 504 471.5 429.5 c 128,-1,12
 484 355 484 355 514.5 289 c 128,-1,13
 545 223 545 223 593 178 c 128,-1,14
 641 133 641 133 715.5 107.5 c 128,-1,15
 790 82 790 82 888 82 c 0,16,17
 1317 82 1317 82 1317 613 c 2,18,-1
 1317 1006 l 2,19,20
 1317 1056 1317 1056 1314 1089 c 128,-1,21
 1311 1122 1311 1122 1301.5 1144.5 c 128,-1,22
 1292 1167 1292 1167 1282 1179.5 c 128,-1,23
 1272 1192 1272 1192 1249.5 1201.5 c 128,-1,24
 1227 1211 1227 1211 1208 1216 c 128,-1,25
 1189 1221 1189 1221 1152 1230.5 c 128,-1,26
 1115 1240 1115 1240 1084 1251 c 1,27,-1
 1084 1302 l 1,28,-1
 1623 1302 l 1,29,-1
 1625 1250 l 1,30,31
 1603 1238 1603 1238 1551.5 1230 c 128,-1,32
 1500 1222 1500 1222 1463.5 1205.5 c 128,-1,33
 1427 1189 1427 1189 1415 1150 c 0,34,35
 1399 1095 1399 1095 1399 1022 c 0,36,37
 1399 972 1399 972 1401 869 c 128,-1,38
 1403 766 1403 766 1403 714 c 0,39,40
 1403 622 1403 622 1398.5 551.5 c 128,-1,41
 1394 481 1394 481 1379.5 400.5 c 128,-1,42
 1365 320 1365 320 1340 261 c 128,-1,43
 1315 202 1315 202 1271 145 c 128,-1,44
 1227 88 1227 88 1166.5 52.5 c 128,-1,45
 1106 17 1106 17 1018.5 -4.5 c 128,-1,46
 931 -26 931 -26 821 -26 c 0,47,48
 736 -26 736 -26 658.5 -10.5 c 128,-1,49
 581 5 581 5 510.5 38.5 c 128,-1,50
 440 72 440 72 386 121 c 128,-1,51
 332 170 332 170 296 241.5 c 128,-1,52
 260 313 260 313 251 401 c 1,53,54
 239 505 239 505 239 664 c 0,55,56
 239 725 239 725 241.5 845 c 128,-1,57
 244 965 244 965 244 1024 c 0,58,59
 244 1098 244 1098 234 1139 c 0,60,61
 227 1167 227 1167 201 1187 c 128,-1,62
 175 1207 175 1207 148.5 1215.5 c 128,-1,63
 122 1224 122 1224 81 1235 c 128,-1,64
 40 1246 40 1246 26 1251 c 1,65,-1
 29 1302 l 1,0,-1
EndSplineSet
EndChar

StartChar: V
Encoding: 54 86 57
Width: 1405
Flags: W
LayerCount: 2
Fore
SplineSet
402 1138 m 0,0,1
 402 1110 402 1110 474.5 943.5 c 128,-1,2
 547 777 547 777 645.5 559.5 c 128,-1,3
 744 342 744 342 779 251 c 1,4,5
 803 317 803 317 892 524 c 128,-1,6
 981 731 981 731 1041.5 892 c 128,-1,7
 1102 1053 1102 1053 1102 1114 c 0,8,9
 1102 1143 1102 1143 1089.5 1164 c 128,-1,10
 1077 1185 1077 1185 1053.5 1196.5 c 128,-1,11
 1030 1208 1030 1208 1008.5 1214.5 c 128,-1,12
 987 1221 987 1221 954 1228 c 128,-1,13
 921 1235 921 1235 905 1240 c 1,14,15
 902 1254 902 1254 902 1269 c 0,16,17
 902 1286 902 1286 905 1302 c 1,18,-1
 1421 1302 l 1,19,20
 1424 1275 1424 1275 1424 1247 c 1,21,22
 1398 1229 1398 1229 1295 1181 c 0,23,24
 1261 1165 1261 1165 1229.5 1118.5 c 128,-1,25
 1198 1072 1198 1072 1180.5 1028 c 128,-1,26
 1163 984 1163 984 1140 919.5 c 128,-1,27
 1117 855 1117 855 1108 833 c 0,28,29
 1056 711 1056 711 971.5 500 c 128,-1,30
 887 289 887 289 828 139 c 2,31,-1
 770 -11 l 1,32,33
 738 -19 738 -19 721 -19 c 0,34,35
 694 -19 694 -19 680 -17 c 1,36,37
 460 489 460 489 188 1088 c 0,38,39
 170 1129 170 1129 152.5 1154 c 128,-1,40
 135 1179 135 1179 109 1196 c 128,-1,41
 83 1213 83 1213 60 1222 c 128,-1,42
 37 1231 37 1231 -10 1245 c 1,43,-1
 -8 1302 l 1,44,-1
 581 1302 l 1,45,46
 581 1293 581 1293 584 1273 c 128,-1,47
 587 1253 587 1253 587 1242 c 1,48,49
 577 1239 577 1239 548.5 1232 c 128,-1,50
 520 1225 520 1225 498.5 1218.5 c 128,-1,51
 477 1212 477 1212 453 1201.5 c 128,-1,52
 429 1191 429 1191 415.5 1175 c 128,-1,53
 402 1159 402 1159 402 1138 c 0,0,1
EndSplineSet
EndChar

StartChar: W
Encoding: 55 87 58
Width: 1933
Flags: W
LayerCount: 2
Fore
SplineSet
375 1182 m 0,0,1
 375 1153 375 1153 665 353 c 1,2,-1
 934 1071 l 1,3,4
 926 1091 926 1091 909.5 1131.5 c 128,-1,5
 893 1172 893 1172 885 1192 c 1,6,7
 875 1201 875 1201 827.5 1219 c 128,-1,8
 780 1237 780 1237 740 1255 c 128,-1,9
 700 1273 700 1273 700 1282 c 0,10,11
 700 1283 700 1283 701.5 1287.5 c 128,-1,12
 703 1292 703 1292 705 1296.5 c 128,-1,13
 707 1301 707 1301 707 1302 c 1,14,-1
 1349 1302 l 1,15,16
 1349 1301 1349 1301 1352 1292.5 c 128,-1,17
 1355 1284 1355 1284 1355 1282 c 0,18,19
 1355 1258 1355 1258 1325 1249 c 128,-1,20
 1295 1240 1295 1240 1259 1240.5 c 128,-1,21
 1223 1241 1223 1241 1193 1229 c 128,-1,22
 1163 1217 1163 1217 1163 1188 c 0,23,24
 1163 1167 1163 1167 1275.5 813 c 128,-1,25
 1388 459 1388 459 1424 355 c 1,26,27
 1428 368 1428 368 1463 472.5 c 128,-1,28
 1498 577 1498 577 1531.5 679.5 c 128,-1,29
 1565 782 1565 782 1602.5 898 c 128,-1,30
 1640 1014 1640 1014 1663 1093 c 128,-1,31
 1686 1172 1686 1172 1686 1187 c 0,32,33
 1686 1219 1686 1219 1649.5 1233 c 128,-1,34
 1613 1247 1613 1247 1559 1253.5 c 128,-1,35
 1505 1260 1505 1260 1485 1271 c 1,36,-1
 1479 1282 l 1,37,-1
 1485 1302 l 1,38,-1
 2002 1302 l 2,39,40
 2013 1302 2013 1302 2020 1291 c 1,41,42
 2020 1273 2020 1273 1982 1261 c 128,-1,43
 1944 1249 1944 1249 1896.5 1242 c 128,-1,44
 1849 1235 1849 1235 1803.5 1213 c 128,-1,45
 1758 1191 1758 1191 1746 1157 c 0,46,47
 1734 1124 1734 1124 1696 992 c 1,48,-1
 1397 1 l 2,49,50
 1391 -19 1391 -19 1355 -19 c 0,51,52
 1323 -19 1323 -19 1312 1 c 0,53,54
 1297 30 1297 30 1277.5 96 c 128,-1,55
 1258 162 1258 162 1256 167 c 2,56,-1
 972 994 l 1,57,-1
 713 249 l 2,58,59
 704 224 704 224 688.5 171 c 128,-1,60
 673 118 673 118 658 75.5 c 128,-1,61
 643 33 643 33 627 1 c 0,62,63
 616 -21 616 -21 585 -21 c 0,64,65
 569 -21 569 -21 554.5 -7 c 128,-1,66
 540 7 540 7 528.5 31.5 c 128,-1,67
 517 56 517 56 509 78 c 128,-1,68
 501 100 501 100 493 126.5 c 128,-1,69
 485 153 485 153 482 161 c 0,70,71
 450 247 450 247 320.5 594 c 128,-1,72
 191 941 191 941 120 1128 c 0,73,74
 106 1164 106 1164 77 1187 c 128,-1,75
 48 1210 48 1210 18.5 1219 c 128,-1,76
 -11 1228 -11 1228 -46.5 1244 c 128,-1,77
 -82 1260 -82 1260 -103 1280 c 1,78,-1
 -96 1302 l 1,79,-1
 547 1302 l 1,80,81
 547 1301 547 1301 549.5 1293.5 c 128,-1,82
 552 1286 552 1286 552 1282 c 0,83,84
 552 1261 552 1261 524.5 1251.5 c 128,-1,85
 497 1242 497 1242 463.5 1240.5 c 128,-1,86
 430 1239 430 1239 402.5 1225.5 c 128,-1,87
 375 1212 375 1212 375 1182 c 0,0,1
EndSplineSet
EndChar

StartChar: X
Encoding: 56 88 59
Width: 1463
Flags: W
LayerCount: 2
Fore
SplineSet
1053 1029 m 2,0,-1
 811 725 l 1,1,-1
 1182 236 l 2,2,3
 1242 157 1242 157 1278.5 125.5 c 128,-1,4
 1315 94 1315 94 1372 78 c 0,5,6
 1383 75 1383 75 1403.5 69.5 c 128,-1,7
 1424 64 1424 64 1439 59.5 c 128,-1,8
 1454 55 1454 55 1462 52 c 1,9,10
 1462 38 1462 38 1460 0 c 1,11,-1
 808 0 l 1,12,13
 806 17 806 17 806 52 c 1,14,15
 962 87 962 87 962 156 c 0,16,17
 962 189 962 189 942 216 c 2,18,-1
 679 565 l 1,19,-1
 456 294 l 2,20,21
 377 197 377 197 377 144 c 0,22,23
 377 126 377 126 390.5 112 c 128,-1,24
 404 98 404 98 430 87.5 c 128,-1,25
 456 77 456 77 480.5 70.5 c 128,-1,26
 505 64 505 64 541 57 c 1,27,28
 542 48 542 48 542 30 c 0,29,30
 542 11 542 11 541 0 c 1,31,-1
 20 0 l 1,32,33
 18 17 18 17 18 52 c 1,34,35
 29 56 29 56 66 68 c 128,-1,36
 103 80 103 80 128.5 90 c 128,-1,37
 154 100 154 100 188 120 c 128,-1,38
 222 140 222 140 245 165 c 0,39,40
 271 194 271 194 319 252 c 2,41,-1
 632 628 l 1,42,-1
 273 1097 l 2,43,44
 249 1128 249 1128 222.5 1151.5 c 128,-1,45
 196 1175 196 1175 167 1190 c 128,-1,46
 138 1205 138 1205 116.5 1213.5 c 128,-1,47
 95 1222 95 1222 64 1231.5 c 128,-1,48
 33 1241 33 1241 21 1246 c 1,49,50
 21 1279 21 1279 23 1302 c 1,51,-1
 665 1302 l 1,52,53
 667 1268 667 1268 667 1250 c 1,54,55
 602 1237 602 1237 557 1209.5 c 128,-1,56
 512 1182 512 1182 512 1144 c 0,57,58
 512 1129 512 1129 529 1095 c 1,59,-1
 762 788 l 1,60,-1
 945 1014 l 2,61,62
 983 1062 983 1062 995 1083.5 c 128,-1,63
 1007 1105 1007 1105 1007 1130 c 0,64,65
 1007 1170 1007 1170 967.5 1201.5 c 128,-1,66
 928 1233 928 1233 861 1246 c 1,67,68
 859 1254 859 1254 859 1273 c 0,69,70
 859 1291 859 1291 861 1302 c 1,71,-1
 1374 1302 l 1,72,73
 1376 1285 1376 1285 1376 1250 c 1,74,75
 1369 1247 1369 1247 1332.5 1235 c 128,-1,76
 1296 1223 1296 1223 1267.5 1212 c 128,-1,77
 1239 1201 1239 1201 1200.5 1177.5 c 128,-1,78
 1162 1154 1162 1154 1136 1126 c 0,79,80
 1091 1078 1091 1078 1053 1029 c 2,0,-1
EndSplineSet
EndChar

StartChar: Y
Encoding: 57 89 60
Width: 1345
Flags: W
LayerCount: 2
Fore
SplineSet
1341 1250 m 1,0,1
 1337 1248 1337 1248 1329 1245 c 0,2,3
 1270 1221 1270 1221 1240 1206.5 c 128,-1,4
 1210 1192 1210 1192 1170.5 1160.5 c 128,-1,5
 1131 1129 1131 1129 1103 1086 c 2,6,-1
 775 583 l 1,7,-1
 775 246 l 2,8,9
 775 187 775 187 784.5 153.5 c 128,-1,10
 794 120 794 120 815.5 106 c 128,-1,11
 837 92 837 92 859.5 87.5 c 128,-1,12
 882 83 882 83 921 75 c 128,-1,13
 960 67 960 67 992 52 c 1,14,-1
 990 0 l 1,15,-1
 344 0 l 1,16,-1
 342 52 l 1,17,18
 373 70 373 70 411 77.5 c 128,-1,19
 449 85 449 85 472.5 87.5 c 128,-1,20
 496 90 496 90 518 103 c 128,-1,21
 540 116 540 116 550 152 c 128,-1,22
 560 188 560 188 560 254 c 2,23,-1
 560 562 l 1,24,-1
 195 1134 l 2,25,26
 172 1170 172 1170 109 1205 c 128,-1,27
 46 1240 46 1240 -2 1251 c 1,28,-1
 -2 1302 l 1,29,-1
 618 1302 l 1,30,-1
 620 1250 l 1,31,32
 586 1244 586 1244 553.5 1233.5 c 128,-1,33
 521 1223 521 1223 490 1198.5 c 128,-1,34
 459 1174 459 1174 459 1142 c 0,35,36
 459 1121 459 1121 498.5 1050 c 128,-1,37
 538 979 538 979 583 910.5 c 128,-1,38
 628 842 628 842 682 760.5 c 128,-1,39
 736 679 736 679 744 667 c 1,40,41
 745 669 745 669 794.5 743 c 128,-1,42
 844 817 844 817 885.5 883 c 128,-1,43
 927 949 927 949 965.5 1026.5 c 128,-1,44
 1004 1104 1004 1104 1004 1140 c 0,45,46
 1004 1157 1004 1157 995 1171.5 c 128,-1,47
 986 1186 986 1186 973.5 1195.5 c 128,-1,48
 961 1205 961 1205 940 1214 c 128,-1,49
 919 1223 919 1223 905.5 1227 c 128,-1,50
 892 1231 892 1231 869 1237.5 c 128,-1,51
 846 1244 846 1244 839 1246 c 1,52,-1
 837 1273 l 2,53,54
 837 1280 837 1280 839 1302 c 1,55,-1
 1341 1302 l 1,56,-1
 1341 1250 l 1,0,1
EndSplineSet
EndChar

StartChar: Z
Encoding: 58 90 61
Width: 1305
Flags: W
LayerCount: 2
Fore
SplineSet
1219 357 m 1,0,-1
 1159 -10 l 1,1,-1
 1118 -10 l 2,2,3
 1093 -10 1093 -10 1045 -5 c 128,-1,4
 997 0 997 0 974 0 c 2,5,-1
 97 0 l 1,6,-1
 93 43 l 1,7,-1
 853 1119 l 1,8,-1
 927 1225 l 1,9,-1
 531 1225 l 2,10,11
 489 1225 489 1225 467 1224 c 128,-1,12
 445 1223 445 1223 412.5 1217.5 c 128,-1,13
 380 1212 380 1212 359.5 1200.5 c 128,-1,14
 339 1189 339 1189 316.5 1167 c 128,-1,15
 294 1145 294 1145 276 1112 c 0,16,17
 270 1100 270 1100 253 1068 c 128,-1,18
 236 1036 236 1036 223 1014 c 128,-1,19
 210 992 210 992 196 972 c 1,20,21
 170 972 170 972 143 975 c 1,22,-1
 170 1303 l 1,23,-1
 202 1303 l 2,24,25
 366 1303 366 1303 694.5 1302.5 c 128,-1,26
 1023 1302 1023 1302 1188 1302 c 1,27,28
 1201 1297 1201 1297 1201 1272 c 2,29,-1
 1200 1245 l 1,30,-1
 455 198 l 1,31,32
 393 108 393 108 381 89 c 1,33,34
 429 74 429 74 471 74 c 2,35,-1
 610 74 l 2,36,37
 800 74 800 74 910 92 c 0,38,39
 967 101 967 101 997.5 125 c 128,-1,40
 1028 149 1028 149 1057 203 c 0,41,42
 1114 309 1114 309 1163 359 c 1,43,-1
 1219 357 l 1,0,-1
EndSplineSet
EndChar

StartChar: bracketleft
Encoding: 59 91 62
Width: 662
Flags: W
LayerCount: 2
Fore
SplineSet
173 1449 m 0,0,1
 173 1475 173 1475 203 1499.5 c 128,-1,2
 233 1524 233 1524 260 1524 c 0,3,4
 336 1524 336 1524 488.5 1526.5 c 128,-1,5
 641 1529 641 1529 717 1529 c 0,6,7
 757 1529 757 1529 786.5 1510.5 c 128,-1,8
 816 1492 816 1492 816 1455 c 0,9,10
 816 1416 816 1416 789 1398 c 128,-1,11
 762 1380 762 1380 721 1380 c 2,12,-1
 329 1380 l 1,13,14
 329 1239 329 1239 320 956.5 c 128,-1,15
 311 674 311 674 311 532 c 0,16,17
 311 268 311 268 316 -62 c 1,18,19
 368 -62 368 -62 491.5 -59 c 128,-1,20
 615 -56 615 -56 682 -56 c 0,21,22
 708 -56 708 -56 732.5 -86 c 128,-1,23
 757 -116 757 -116 757 -143 c 0,24,25
 757 -214 757 -214 669 -214 c 0,26,27
 598 -214 598 -214 456 -206.5 c 128,-1,28
 314 -199 314 -199 243 -199 c 0,29,30
 206 -199 206 -199 192.5 -178.5 c 128,-1,31
 179 -158 179 -158 179 -119 c 0,32,33
 179 -51 179 -51 181.5 86.5 c 128,-1,34
 184 224 184 224 184 292 c 0,35,36
 184 485 184 485 178.5 870.5 c 128,-1,37
 173 1256 173 1256 173 1449 c 0,0,1
EndSplineSet
EndChar

StartChar: backslash
Encoding: 60 92 63
Width: 689
Flags: W
LayerCount: 2
Fore
SplineSet
17 1378 m 1,0,1
 48 1402 48 1402 97 1402 c 1,2,3
 129 1372 129 1372 149 1332 c 128,-1,4
 169 1292 169 1292 189.5 1225.5 c 128,-1,5
 210 1159 210 1159 216 1142 c 2,6,-1
 617 72 l 2,7,8
 624 53 624 53 629.5 25.5 c 128,-1,9
 635 -2 635 -2 636.5 -19 c 128,-1,10
 638 -36 638 -36 640.5 -72 c 128,-1,11
 643 -108 643 -108 644 -117 c 1,12,-1
 625 -117 l 2,13,14
 586 -117 586 -117 567 -112 c 1,15,16
 533 -39 533 -39 502 53 c 0,17,18
 443 226 443 226 267.5 676 c 128,-1,19
 92 1126 92 1126 17 1378 c 1,0,1
EndSplineSet
EndChar

StartChar: bracketright
Encoding: 61 93 64
Width: 664
Flags: W
LayerCount: 2
Fore
SplineSet
0 -214 m 0,0,1
 -88 -214 -88 -214 -88 -143 c 0,2,3
 -88 -54 -88 -54 59 -54 c 0,4,5
 84 -54 84 -54 133.5 -58.5 c 128,-1,6
 183 -63 183 -63 208 -63 c 2,7,-1
 353 -63 l 1,8,9
 358 267 358 267 358 532 c 0,10,11
 358 678 358 678 349 960.5 c 128,-1,12
 340 1243 340 1243 340 1380 c 1,13,-1
 -66 1380 l 2,14,15
 -98 1380 -98 1380 -122.5 1401.5 c 128,-1,16
 -147 1423 -147 1423 -147 1455 c 0,17,18
 -147 1492 -147 1492 -117.5 1510.5 c 128,-1,19
 -88 1529 -88 1529 -48 1529 c 0,20,21
 28 1529 28 1529 180.5 1526.5 c 128,-1,22
 333 1524 333 1524 409 1524 c 0,23,24
 436 1524 436 1524 466 1499.5 c 128,-1,25
 496 1475 496 1475 496 1449 c 0,26,27
 496 1281 496 1281 492 944.5 c 128,-1,28
 488 608 488 608 488 440 c 0,29,30
 488 315 488 315 496.5 152.5 c 128,-1,31
 505 -10 505 -10 505 -48 c 0,32,33
 505 -128 505 -128 488 -163.5 c 128,-1,34
 471 -199 471 -199 426 -199 c 0,35,36
 355 -199 355 -199 213 -206.5 c 128,-1,37
 71 -214 71 -214 0 -214 c 0,0,1
EndSplineSet
EndChar

StartChar: asciicircum
Encoding: 62 94 65
Width: 1192
Flags: W
LayerCount: 2
Fore
SplineSet
653 1369 m 1,0,1
 667 1344 667 1344 736.5 1223.5 c 128,-1,2
 806 1103 806 1103 836.5 1048.5 c 128,-1,3
 867 994 867 994 915 901.5 c 128,-1,4
 963 809 963 809 994 738 c 1,5,6
 954 722 954 722 899 722 c 1,7,8
 845 785 845 785 795 861 c 128,-1,9
 745 937 745 937 682.5 1044 c 128,-1,10
 620 1151 620 1151 594 1193 c 1,11,12
 559 1139 559 1139 500 1042.5 c 128,-1,13
 441 946 441 946 390 867 c 128,-1,14
 339 788 339 788 288 722 c 1,15,16
 234 722 234 722 194 738 c 1,17,18
 228 816 228 816 276.5 907.5 c 128,-1,19
 325 999 325 999 401 1132.5 c 128,-1,20
 477 1266 477 1266 496 1300 c 0,21,22
 526 1355 526 1355 573 1392 c 1,23,24
 616 1392 616 1392 653 1369 c 1,0,1
EndSplineSet
EndChar

StartChar: underscore
Encoding: 63 95 66
Width: 935
Flags: W
LayerCount: 2
Fore
SplineSet
893 -129 m 1,0,1
 855 -147 855 -147 768 -147 c 2,2,-1
 102 -147 l 1,3,4
 71 -134 71 -134 57.5 -117 c 128,-1,5
 44 -100 44 -100 44 -68 c 1,6,7
 89 -49 89 -49 196 -49 c 2,8,-1
 835 -49 l 1,9,10
 893 -74 893 -74 893 -129 c 1,0,1
EndSplineSet
EndChar

StartChar: grave
Encoding: 64 96 67
Width: 968
Flags: W
LayerCount: 2
Fore
SplineSet
252 1442 m 0,0,1
 231 1460 231 1460 231 1488 c 0,2,3
 231 1518 231 1518 256 1544 c 128,-1,4
 281 1570 281 1570 312 1570 c 0,5,6
 348 1570 348 1570 373 1536 c 0,7,8
 649 1166 649 1166 660 1152 c 1,9,10
 671 1136 671 1136 671 1122 c 0,11,12
 671 1096 671 1096 648 1096 c 0,13,14
 631 1096 631 1096 608 1116 c 0,15,16
 568 1151 568 1151 424 1284 c 128,-1,17
 280 1417 280 1417 252 1442 c 0,0,1
EndSplineSet
EndChar

StartChar: a
Encoding: 65 97 68
Width: 1013
Flags: W
LayerCount: 2
Fore
SplineSet
630 200 m 1,0,-1
 630 455 l 1,1,2
 622 452 622 452 580 439 c 128,-1,3
 538 426 538 426 516 417.5 c 128,-1,4
 494 409 494 409 453.5 392.5 c 128,-1,5
 413 376 413 376 389 360 c 128,-1,6
 365 344 365 344 339 322.5 c 128,-1,7
 313 301 313 301 300.5 275 c 128,-1,8
 288 249 288 249 288 220 c 0,9,10
 288 161 288 161 320.5 127 c 128,-1,11
 353 93 353 93 412 93 c 0,12,13
 521 93 521 93 630 200 c 1,0,-1
630 514 m 1,14,-1
 630 609 l 2,15,16
 630 664 630 664 623.5 703 c 128,-1,17
 617 742 617 742 598.5 778.5 c 128,-1,18
 580 815 580 815 542 833.5 c 128,-1,19
 504 852 504 852 447 852 c 0,20,21
 402 852 402 852 345 826.5 c 128,-1,22
 288 801 288 801 288 762 c 0,23,24
 288 744 288 744 305 713 c 128,-1,25
 322 682 322 682 322 665 c 0,26,27
 322 625 322 625 296.5 598.5 c 128,-1,28
 271 572 271 572 231 572 c 0,29,30
 181 572 181 572 151.5 609 c 128,-1,31
 122 646 122 646 122 698 c 0,32,33
 122 757 122 757 160.5 803.5 c 128,-1,34
 199 850 199 850 258.5 875.5 c 128,-1,35
 318 901 318 901 378 913.5 c 128,-1,36
 438 926 438 926 492 926 c 0,37,38
 578 926 578 926 637 909.5 c 128,-1,39
 696 893 696 893 731.5 865 c 128,-1,40
 767 837 767 837 786 786 c 128,-1,41
 805 735 805 735 811 680.5 c 128,-1,42
 817 626 817 626 817 541 c 0,43,44
 817 536 817 536 814 458 c 128,-1,45
 811 380 811 380 811 324 c 0,46,47
 811 99 811 99 858 99 c 0,48,49
 892 99 892 99 946 168 c 1,50,-1
 988 123 l 1,51,52
 959 75 959 75 936 47.5 c 128,-1,53
 913 20 913 20 875 0 c 128,-1,54
 837 -20 837 -20 788 -20 c 0,55,56
 722 -20 722 -20 679.5 21.5 c 128,-1,57
 637 63 637 63 633 129 c 1,58,59
 496 -20 496 -20 321 -20 c 0,60,61
 224 -20 224 -20 157.5 32 c 128,-1,62
 91 84 91 84 91 178 c 0,63,64
 91 220 91 220 108 257.5 c 128,-1,65
 125 295 125 295 150 322.5 c 128,-1,66
 175 350 175 350 217 375.5 c 128,-1,67
 259 401 259 401 295 417 c 128,-1,68
 331 433 331 433 384.5 450 c 128,-1,69
 438 467 438 467 472 475.5 c 128,-1,70
 506 484 506 484 558 496.5 c 128,-1,71
 610 509 610 509 630 514 c 1,14,-1
EndSplineSet
EndChar

StartChar: b
Encoding: 66 98 69
Width: 1134
Flags: W
LayerCount: 2
Fore
SplineSet
344 665 m 1,0,-1
 344 124 l 2,1,2
 344 95 344 95 401 76.5 c 128,-1,3
 458 58 458 58 538 58 c 0,4,5
 585 58 585 58 628.5 68.5 c 128,-1,6
 672 79 672 79 715.5 104.5 c 128,-1,7
 759 130 759 130 791 169 c 128,-1,8
 823 208 823 208 843.5 270.5 c 128,-1,9
 864 333 864 333 866 412 c 0,10,11
 866 416 866 416 866 420 c 128,-1,12
 866 424 866 424 866 428 c 0,13,14
 866 593 866 593 794 693.5 c 128,-1,15
 722 794 722 794 599 794 c 0,16,17
 527 794 527 794 458 757 c 128,-1,18
 389 720 389 720 344 665 c 1,0,-1
158 134 m 2,19,-1
 158 1163 l 1,20,21
 146 1183 146 1183 99 1205.5 c 128,-1,22
 52 1228 52 1228 11 1241 c 2,23,-1
 -30 1254 l 1,24,-1
 -28 1288 l 1,25,-1
 258 1367 l 1,26,-1
 344 1376 l 1,27,-1
 344 758 l 1,28,29
 500 926 500 926 677 926 c 0,30,31
 763 926 763 926 835 886 c 128,-1,32
 907 846 907 846 953.5 780 c 128,-1,33
 1000 714 1000 714 1026 631.5 c 128,-1,34
 1052 549 1052 549 1052 462 c 0,35,36
 1052 356 1052 356 1021 271.5 c 128,-1,37
 990 187 990 187 939.5 133.5 c 128,-1,38
 889 80 889 80 820 44.5 c 128,-1,39
 751 9 751 9 679 -5.5 c 128,-1,40
 607 -20 607 -20 528 -20 c 0,41,42
 383 -20 383 -20 270.5 25.5 c 128,-1,43
 158 71 158 71 158 134 c 2,19,-1
EndSplineSet
EndChar

StartChar: c
Encoding: 67 99 70
Width: 980
Flags: W
LayerCount: 2
Fore
SplineSet
847 211 m 1,0,-1
 879 188 l 1,1,2
 848 89 848 89 747.5 34.5 c 128,-1,3
 647 -20 647 -20 525 -20 c 0,4,5
 387 -20 387 -20 284.5 46.5 c 128,-1,6
 182 113 182 113 132 218 c 128,-1,7
 82 323 82 323 82 448 c 0,8,9
 82 650 82 650 222 788 c 128,-1,10
 362 926 362 926 581 926 c 0,11,12
 710 926 710 926 797.5 872 c 128,-1,13
 885 818 885 818 886 728 c 0,14,15
 886 709 886 709 879.5 693.5 c 128,-1,16
 873 678 873 678 863.5 668.5 c 128,-1,17
 854 659 854 659 841.5 653 c 128,-1,18
 829 647 829 647 817.5 644.5 c 128,-1,19
 806 642 806 642 795 642 c 0,20,21
 765 642 765 642 747 653 c 128,-1,22
 729 664 729 664 721.5 682 c 128,-1,23
 714 700 714 700 710 722 c 128,-1,24
 706 744 706 744 698.5 766 c 128,-1,25
 691 788 691 788 677.5 806.5 c 128,-1,26
 664 825 664 825 633.5 837.5 c 128,-1,27
 603 850 603 850 557 852 c 1,28,-1
 547 852 l 2,29,30
 491 852 491 852 440.5 829 c 128,-1,31
 390 806 390 806 350.5 762.5 c 128,-1,32
 311 719 311 719 288 651.5 c 128,-1,33
 265 584 265 584 265 502 c 0,34,35
 265 341 265 341 349 230.5 c 128,-1,36
 433 120 433 120 582 120 c 0,37,38
 669 120 669 120 727 141 c 128,-1,39
 785 162 785 162 847 211 c 1,0,-1
EndSplineSet
EndChar

StartChar: d
Encoding: 68 100 71
Width: 1200
Flags: W
LayerCount: 2
Fore
SplineSet
822 222 m 1,0,-1
 822 510 l 2,1,2
 822 607 822 607 805 666.5 c 128,-1,3
 788 726 788 726 736 772 c 0,4,5
 652 846 652 846 557 846 c 0,6,7
 438 846 438 846 363.5 737 c 128,-1,8
 289 628 289 628 289 477 c 0,9,10
 289 382 289 382 320 298.5 c 128,-1,11
 351 215 351 215 420.5 157 c 128,-1,12
 490 99 490 99 585 99 c 0,13,14
 730 99 730 99 822 222 c 1,0,-1
822 849 m 1,15,-1
 822 1175 l 1,16,17
 809 1195 809 1195 766.5 1217.5 c 128,-1,18
 724 1240 724 1240 688 1253 c 2,19,-1
 652 1266 l 1,20,-1
 654 1301 l 1,21,-1
 936 1369 l 1,22,-1
 1008 1376 l 1,23,-1
 1008 199 l 2,24,25
 1008 167 1008 167 1024.5 143.5 c 128,-1,26
 1041 120 1041 120 1067.5 108.5 c 128,-1,27
 1094 97 1094 97 1119.5 92 c 128,-1,28
 1145 87 1145 87 1170 87 c 1,29,-1
 1170 32 l 1,30,-1
 903 -12 l 1,31,-1
 836 -12 l 1,32,-1
 827 143 l 1,33,34
 685 -20 685 -20 511 -20 c 128,-1,35
 337 -20 337 -20 220 101 c 128,-1,36
 103 222 103 222 103 414 c 0,37,38
 103 637 103 637 235 780 c 128,-1,39
 367 923 367 923 567 923 c 0,40,41
 628 923 628 923 686 904.5 c 128,-1,42
 744 886 744 886 822 849 c 1,15,-1
EndSplineSet
EndChar

StartChar: e
Encoding: 69 101 72
Width: 963
Flags: W
LayerCount: 2
Fore
SplineSet
891 494 m 1,0,-1
 259 494 l 1,1,2
 259 309 259 309 354.5 215 c 128,-1,3
 450 121 450 121 597 121 c 0,4,5
 723 121 723 121 840 193 c 1,6,-1
 869 165 l 1,7,8
 834 80 834 80 731 30 c 128,-1,9
 628 -20 628 -20 522 -20 c 0,10,11
 330 -20 330 -20 206 110 c 128,-1,12
 82 240 82 240 82 447 c 0,13,14
 82 586 82 586 144 697 c 128,-1,15
 206 808 206 808 306.5 867 c 128,-1,16
 407 926 407 926 523 926 c 0,17,18
 666 926 666 926 763 832.5 c 128,-1,19
 860 739 860 739 880 588 c 1,20,21
 891 542 891 542 891 503 c 2,22,-1
 891 494 l 1,0,-1
259 543 m 1,23,-1
 637 558 l 2,24,25
 681 560 681 560 711 574 c 1,26,27
 703 709 703 709 650 784 c 128,-1,28
 597 859 597 859 500 859 c 0,29,30
 399 859 399 859 333.5 771 c 128,-1,31
 268 683 268 683 259 543 c 1,23,-1
EndSplineSet
EndChar

StartChar: f
Encoding: 70 102 73
Width: 754
Flags: W
LayerCount: 2
Fore
SplineSet
685 824 m 1,0,-1
 453 824 l 1,1,-1
 453 259 l 2,2,3
 453 255 453 255 453 245.5 c 128,-1,4
 453 236 453 236 453 230 c 0,5,6
 453 205 453 205 455.5 186 c 128,-1,7
 458 167 458 167 469.5 141 c 128,-1,8
 481 115 481 115 501 97.5 c 128,-1,9
 521 80 521 80 559.5 66 c 128,-1,10
 598 52 598 52 651 50 c 1,11,12
 651 19 651 19 650 0 c 1,13,-1
 89 0 l 1,14,15
 87 38 87 38 87 50 c 1,16,17
 104 55 104 55 133.5 62 c 128,-1,18
 163 69 163 69 175 72.5 c 128,-1,19
 187 76 187 76 206.5 84.5 c 128,-1,20
 226 93 226 93 234 102 c 128,-1,21
 242 111 242 111 251.5 126.5 c 128,-1,22
 261 142 261 142 264 163.5 c 128,-1,23
 267 185 267 185 267 215 c 2,24,-1
 267 824 l 1,25,-1
 111 824 l 1,26,-1
 109 899 l 1,27,-1
 178 899 l 2,28,29
 230 899 230 899 246 910.5 c 128,-1,30
 262 922 262 922 263 971 c 0,31,32
 267 1166 267 1166 360 1270 c 128,-1,33
 453 1374 453 1374 623 1374 c 0,34,35
 727 1374 727 1374 796 1335.5 c 128,-1,36
 865 1297 865 1297 865 1230 c 0,37,38
 865 1191 865 1191 840 1165.5 c 128,-1,39
 815 1140 815 1140 771 1140 c 0,40,41
 741 1140 741 1140 721 1157.5 c 128,-1,42
 701 1175 701 1175 690 1200.5 c 128,-1,43
 679 1226 679 1226 668.5 1251 c 128,-1,44
 658 1276 658 1276 638.5 1293.5 c 128,-1,45
 619 1311 619 1311 590 1311 c 0,46,47
 521 1311 521 1311 487 1247.5 c 128,-1,48
 453 1184 453 1184 453 1021 c 2,49,-1
 453 899 l 1,50,-1
 683 899 l 1,51,-1
 685 824 l 1,0,-1
EndSplineSet
EndChar

StartChar: g
Encoding: 71 103 74
Width: 1001
Flags: W
LayerCount: 2
Fore
SplineSet
557 -23 m 2,0,-1
 472 -21 l 2,1,2
 396 -20 396 -20 300 -9 c 1,3,4
 203 -92 203 -92 203 -161 c 0,5,6
 203 -198 203 -198 231.5 -225.5 c 128,-1,7
 260 -253 260 -253 304 -266.5 c 128,-1,8
 348 -280 348 -280 388.5 -286 c 128,-1,9
 429 -292 429 -292 465 -292 c 0,10,11
 518 -292 518 -292 574.5 -283 c 128,-1,12
 631 -274 631 -274 682.5 -256.5 c 128,-1,13
 734 -239 734 -239 767 -209 c 128,-1,14
 800 -179 800 -179 800 -142 c 0,15,16
 800 -29 800 -29 557 -23 c 2,0,-1
446 852 m 0,17,18
 377 852 377 852 331 791 c 128,-1,19
 285 730 285 730 285 634 c 0,20,21
 285 528 285 528 332.5 460 c 128,-1,22
 380 392 380 392 474 392 c 0,23,24
 555 392 555 392 594.5 447 c 128,-1,25
 634 502 634 502 634 597 c 0,26,27
 634 717 634 717 581 784.5 c 128,-1,28
 528 852 528 852 446 852 c 0,17,18
938 918 m 1,29,-1
 943 805 l 1,30,31
 921 812 921 812 871 812 c 0,32,33
 843 812 843 812 807.5 810 c 128,-1,34
 772 808 772 808 751 806 c 2,35,-1
 730 803 l 1,36,37
 739 793 739 793 752 776 c 128,-1,38
 765 759 765 759 787 712 c 128,-1,39
 809 665 809 665 809 626 c 0,40,41
 809 531 809 531 755.5 461 c 128,-1,42
 702 391 702 391 623 358.5 c 128,-1,43
 544 326 544 326 455 326 c 0,44,45
 405 326 405 326 327 344 c 1,46,47
 320 336 320 336 303.5 320.5 c 128,-1,48
 287 305 287 305 279 295 c 128,-1,49
 271 285 271 285 263.5 265 c 128,-1,50
 256 245 256 245 256 219 c 0,51,52
 256 204 256 204 264 194 c 128,-1,53
 272 184 272 184 291 177.5 c 128,-1,54
 310 171 310 171 332 167.5 c 128,-1,55
 354 164 354 164 391.5 161.5 c 128,-1,56
 429 159 429 159 463.5 157.5 c 128,-1,57
 498 156 498 156 552.5 153 c 128,-1,58
 607 150 607 150 653 147 c 0,59,60
 780 138 780 138 858 81 c 128,-1,61
 936 24 936 24 936 -76 c 0,62,63
 936 -166 936 -166 867.5 -235 c 128,-1,64
 799 -304 799 -304 687 -339.5 c 128,-1,65
 575 -375 575 -375 439 -375 c 0,66,67
 271 -375 271 -375 172 -324 c 128,-1,68
 73 -273 73 -273 73 -208 c 0,69,70
 73 -113 73 -113 226 0 c 1,71,72
 170 23 170 23 138.5 59 c 128,-1,73
 107 95 107 95 107 139 c 0,74,75
 107 204 107 204 150 259 c 128,-1,76
 193 314 193 314 272 370 c 1,77,78
 107 457 107 457 107 613 c 0,79,80
 107 750 107 750 205 838 c 128,-1,81
 303 926 303 926 454 926 c 0,82,83
 573 926 573 926 674 873 c 1,84,85
 800 922 800 922 891 922 c 1,86,-1
 938 918 l 1,29,-1
EndSplineSet
EndChar

StartChar: h
Encoding: 72 104 75
Width: 1217
Flags: W
LayerCount: 2
Fore
SplineSet
1039 568 m 2,0,-1
 1039 221 l 2,1,2
 1039 144 1039 144 1078.5 100.5 c 128,-1,3
 1118 57 1118 57 1191 50 c 1,4,-1
 1189 0 l 1,5,-1
 697 0 l 1,6,7
 695 34 695 34 695 50 c 1,8,9
 719 60 719 60 751 70 c 128,-1,10
 783 80 783 80 797 85.5 c 128,-1,11
 811 91 811 91 826.5 105 c 128,-1,12
 842 119 842 119 847.5 145 c 128,-1,13
 853 171 853 171 853 214 c 2,14,-1
 853 577 l 2,15,16
 853 687 853 687 806.5 752.5 c 128,-1,17
 760 818 760 818 661 818 c 0,18,19
 529 818 529 818 401 684 c 1,20,-1
 401 233 l 2,21,22
 401 143 401 143 442 101 c 128,-1,23
 483 59 483 59 576 50 c 1,24,-1
 575 0 l 1,25,-1
 42 0 l 1,26,27
 40 34 40 34 40 50 c 1,28,29
 215 64 215 64 215 233 c 2,30,-1
 215 1164 l 1,31,32
 199 1187 199 1187 136 1220.5 c 128,-1,33
 73 1254 73 1254 44 1258 c 1,34,-1
 44 1293 l 1,35,-1
 330 1369 l 1,36,-1
 401 1376 l 1,37,-1
 401 768 l 1,38,39
 480 847 480 847 556 886.5 c 128,-1,40
 632 926 632 926 732 926 c 0,41,42
 871 926 871 926 955 837.5 c 128,-1,43
 1039 749 1039 749 1039 568 c 2,0,-1
EndSplineSet
EndChar

StartChar: k
Encoding: 75 107 78
Width: 1169
Flags: W
LayerCount: 2
Fore
SplineSet
598 50 m 1,0,-1
 596 0 l 1,1,-1
 81 0 l 1,2,3
 80 16 80 16 80 32 c 128,-1,4
 80 48 80 48 81 54 c 1,5,6
 117 62 117 62 133 66.5 c 128,-1,7
 149 71 149 71 173.5 81.5 c 128,-1,8
 198 92 198 92 208.5 104 c 128,-1,9
 219 116 219 116 227.5 136.5 c 128,-1,10
 236 157 236 157 236 185 c 2,11,-1
 236 1164 l 1,12,13
 220 1187 220 1187 157 1220.5 c 128,-1,14
 94 1254 94 1254 65 1258 c 1,15,-1
 65 1293 l 1,16,-1
 351 1369 l 1,17,-1
 422 1376 l 1,18,-1
 422 475 l 1,19,-1
 504 475 l 1,20,-1
 824 789 l 1,21,22
 826 794 826 794 826 800 c 0,23,24
 826 821 826 821 806 831 c 128,-1,25
 786 841 786 841 761.5 841 c 128,-1,26
 737 841 737 841 717 846.5 c 128,-1,27
 697 852 697 852 697 866 c 128,-1,28
 697 880 697 880 700 899 c 1,29,-1
 1124 899 l 1,30,-1
 1127 866 l 1,31,32
 1127 845 1127 845 1044 828 c 0,33,34
 976 814 976 814 942 785 c 1,35,-1
 666 502 l 1,36,-1
 930 160 l 2,37,38
 961 119 961 119 1016.5 92.5 c 128,-1,39
 1072 66 1072 66 1106 59.5 c 128,-1,40
 1140 53 1140 53 1156 53 c 1,41,42
 1154 10 1154 10 1153 0 c 1,43,-1
 658 0 l 1,44,45
 658 3 658 3 657 8 c 128,-1,46
 656 13 656 13 654.5 26 c 128,-1,47
 653 39 653 39 653 44 c 128,-1,48
 653 49 653 49 653 52 c 1,49,50
 753 52 753 52 753 96 c 0,51,52
 753 105 753 105 740 119 c 1,53,-1
 507 420 l 1,54,-1
 422 420 l 1,55,-1
 422 222 l 2,56,57
 422 136 422 136 465.5 97.5 c 128,-1,58
 509 59 509 59 598 50 c 1,0,-1
EndSplineSet
EndChar

StartChar: l
Encoding: 76 108 79
Width: 594
Flags: W
LayerCount: 2
Fore
SplineSet
320 1369 m 1,0,-1
 392 1376 l 1,1,-1
 392 234 l 2,2,3
 392 150 392 150 426.5 104.5 c 128,-1,4
 461 59 461 59 541 50 c 1,5,-1
 539 0 l 1,6,-1
 47 0 l 1,7,8
 46 34 46 34 46 50 c 1,9,10
 59 59 59 59 97.5 69 c 128,-1,11
 136 79 136 79 164.5 95 c 128,-1,12
 193 111 193 111 198 140 c 0,13,14
 206 183 206 183 206 228 c 0,15,16
 206 385 206 385 205.5 698.5 c 128,-1,17
 205 1012 205 1012 205 1169 c 1,18,19
 193 1189 193 1189 151.5 1211 c 128,-1,20
 110 1233 110 1233 75 1246 c 2,21,-1
 40 1258 l 1,22,-1
 42 1293 l 1,23,-1
 320 1369 l 1,0,-1
EndSplineSet
EndChar

StartChar: m
Encoding: 77 109 80
Width: 1757
Flags: W
LayerCount: 2
Fore
SplineSet
391 678 m 1,0,-1
 391 235 l 2,1,2
 391 203 391 203 396 177.5 c 128,-1,3
 401 152 401 152 407.5 134.5 c 128,-1,4
 414 117 414 117 429 103 c 128,-1,5
 444 89 444 89 453.5 82 c 128,-1,6
 463 75 463 75 484.5 68.5 c 128,-1,7
 506 62 506 62 516 59.5 c 128,-1,8
 526 57 526 57 551 53 c 0,9,10
 556 52 556 52 559.5 51.5 c 128,-1,11
 563 51 563 51 567 50 c 1,12,-1
 565 0 l 1,13,-1
 49 0 l 1,14,-1
 49 53 l 1,15,16
 55 55 55 55 85 63 c 128,-1,17
 115 71 115 71 134 77.5 c 128,-1,18
 153 84 153 84 173 101 c 128,-1,19
 193 118 193 118 198 140 c 1,20,21
 205 165 205 165 205 222 c 2,22,-1
 205 734 l 1,23,24
 193 758 193 758 153 779 c 128,-1,25
 113 800 113 800 80 810 c 1,26,-1
 46 819 l 1,27,-1
 49 853 l 1,28,-1
 324 921 l 1,29,-1
 383 925 l 1,30,-1
 394 754 l 1,31,32
 527 926 527 926 712 926 c 0,33,34
 905 926 905 926 972 765 c 1,35,36
 1020 818 1020 818 1059 849.5 c 128,-1,37
 1098 881 1098 881 1155 902.5 c 128,-1,38
 1212 924 1212 924 1279 924 c 0,39,40
 1410 924 1410 924 1489.5 862.5 c 128,-1,41
 1569 801 1569 801 1580 676 c 0,42,43
 1588 582 1588 582 1588 487 c 2,44,-1
 1588 225 l 2,45,46
 1588 175 1588 175 1595 140 c 0,47,48
 1597 129 1597 129 1602.5 119 c 128,-1,49
 1608 109 1608 109 1613 102 c 128,-1,50
 1618 95 1618 95 1629 88 c 128,-1,51
 1640 81 1640 81 1646 77.5 c 128,-1,52
 1652 74 1652 74 1667.5 68.5 c 128,-1,53
 1683 63 1683 63 1688 61.5 c 128,-1,54
 1693 60 1693 60 1710.5 55.5 c 128,-1,55
 1728 51 1728 51 1731 50 c 1,56,-1
 1729 0 l 1,57,-1
 1248 0 l 1,58,59
 1246 34 1246 34 1246 50 c 1,60,61
 1252 52 1252 52 1277.5 58.5 c 128,-1,62
 1303 65 1303 65 1316 70 c 128,-1,63
 1329 75 1329 75 1348 84.5 c 128,-1,64
 1367 94 1367 94 1378 107.5 c 128,-1,65
 1389 121 1389 121 1393 138 c 0,66,67
 1401 178 1401 178 1401 225 c 2,68,-1
 1401 622 l 2,69,70
 1401 716 1401 716 1353 767.5 c 128,-1,71
 1305 819 1305 819 1216 819 c 0,72,73
 1154 819 1154 819 1093 782.5 c 128,-1,74
 1032 746 1032 746 985 694 c 1,75,76
 991 625 991 625 991 472 c 2,77,-1
 991 230 l 2,78,79
 991 173 991 173 997 142 c 0,80,81
 1000 124 1000 124 1010.5 110 c 128,-1,82
 1021 96 1021 96 1040.5 86.5 c 128,-1,83
 1060 77 1060 77 1073.5 71.5 c 128,-1,84
 1087 66 1087 66 1112.5 59 c 128,-1,85
 1138 52 1138 52 1145 50 c 1,86,-1
 1143 0 l 1,87,-1
 643 0 l 1,88,89
 641 34 641 34 641 50 c 1,90,91
 642 50 642 50 654 52.5 c 128,-1,92
 666 55 666 55 672 56.5 c 128,-1,93
 678 58 678 58 692 62 c 128,-1,94
 706 66 706 66 714.5 70.5 c 128,-1,95
 723 75 723 75 736 83 c 128,-1,96
 749 91 749 91 757.5 99.5 c 128,-1,97
 766 108 766 108 775.5 121.5 c 128,-1,98
 785 135 785 135 790.5 150 c 128,-1,99
 796 165 796 165 800 185.5 c 128,-1,100
 804 206 804 206 804 229 c 2,101,-1
 804 577 l 2,102,103
 804 694 804 694 767 756 c 128,-1,104
 730 818 730 818 638 818 c 0,105,106
 566 818 566 818 507.5 780.5 c 128,-1,107
 449 743 449 743 391 678 c 1,0,-1
EndSplineSet
EndChar

StartChar: n
Encoding: 78 110 81
Width: 1200
Flags: W
LayerCount: 2
Fore
SplineSet
385 668 m 1,0,-1
 385 222 l 2,1,2
 385 136 385 136 428.5 97.5 c 128,-1,3
 472 59 472 59 561 50 c 1,4,-1
 559 0 l 1,5,-1
 44 0 l 1,6,7
 43 16 43 16 43 32 c 128,-1,8
 43 48 43 48 44 54 c 1,9,10
 80 62 80 62 96 66.5 c 128,-1,11
 112 71 112 71 136.5 81.5 c 128,-1,12
 161 92 161 92 171.5 104 c 128,-1,13
 182 116 182 116 190.5 136.5 c 128,-1,14
 199 157 199 157 199 185 c 2,15,-1
 199 735 l 1,16,17
 187 758 187 758 147.5 779 c 128,-1,18
 108 800 108 800 74 810 c 2,19,-1
 40 819 l 1,20,-1
 43 853 l 1,21,-1
 316 921 l 1,22,-1
 377 925 l 1,23,-1
 388 755 l 1,24,25
 443 829 443 829 528.5 877.5 c 128,-1,26
 614 926 614 926 713 926 c 0,27,28
 858 926 858 926 938 844 c 128,-1,29
 1018 762 1018 762 1025 599 c 0,30,31
 1028 535 1028 535 1028 468 c 2,32,-1
 1028 245 l 2,33,34
 1028 212 1028 212 1030 188.5 c 128,-1,35
 1032 165 1032 165 1034.5 148 c 128,-1,36
 1037 131 1037 131 1045 118.5 c 128,-1,37
 1053 106 1053 106 1058.5 99 c 128,-1,38
 1064 92 1064 92 1078.5 85.5 c 128,-1,39
 1093 79 1093 79 1102.5 75.5 c 128,-1,40
 1112 72 1112 72 1135 65.5 c 128,-1,41
 1158 59 1158 59 1173 54 c 1,42,43
 1174 48 1174 48 1174 32 c 2,44,-1
 1173 0 l 1,45,-1
 680 0 l 1,46,47
 678 34 678 34 678 50 c 1,48,49
 689 54 689 54 721 63 c 128,-1,50
 753 72 753 72 772.5 79.5 c 128,-1,51
 792 87 792 87 812 105.5 c 128,-1,52
 832 124 832 124 836 149 c 0,53,54
 841 178 841 178 841 226 c 2,55,-1
 841 449 l 2,56,57
 841 495 841 495 841 517.5 c 128,-1,58
 841 540 841 540 839 579 c 128,-1,59
 837 618 837 618 834 638 c 128,-1,60
 831 658 831 658 824.5 688 c 128,-1,61
 818 718 818 718 808.5 733.5 c 128,-1,62
 799 749 799 749 784.5 768 c 128,-1,63
 770 787 770 787 751.5 796 c 128,-1,64
 733 805 733 805 707.5 811.5 c 128,-1,65
 682 818 682 818 651 818 c 0,66,67
 527 818 527 818 385 668 c 1,0,-1
EndSplineSet
EndChar

StartChar: o
Encoding: 79 111 82
Width: 1111
Flags: W
LayerCount: 2
Fore
SplineSet
282 515 m 0,0,1
 282 401 282 401 316 297.5 c 128,-1,2
 350 194 350 194 418 126 c 128,-1,3
 486 58 486 58 573 58 c 0,4,5
 700 58 700 58 766 149 c 128,-1,6
 832 240 832 240 832 388 c 0,7,8
 832 516 832 516 797.5 622.5 c 128,-1,9
 763 729 763 729 696 794 c 128,-1,10
 629 859 629 859 543 859 c 0,11,12
 426 859 426 859 354 773 c 128,-1,13
 282 687 282 687 282 515 c 0,0,1
82 456 m 0,14,15
 82 593 82 593 147 702 c 128,-1,16
 212 811 212 811 318.5 868.5 c 128,-1,17
 425 926 425 926 549 926 c 0,18,19
 682 926 682 926 790.5 870 c 128,-1,20
 899 814 899 814 964 706 c 128,-1,21
 1029 598 1029 598 1029 457 c 128,-1,22
 1029 316 1029 316 964 205.5 c 128,-1,23
 899 95 899 95 793 37.5 c 128,-1,24
 687 -20 687 -20 560 -20 c 0,25,26
 466 -20 466 -20 379 15 c 128,-1,27
 292 50 292 50 226.5 111.5 c 128,-1,28
 161 173 161 173 121.5 263 c 128,-1,29
 82 353 82 353 82 456 c 0,14,15
EndSplineSet
EndChar

StartChar: p
Encoding: 80 112 83
Width: 1175
Flags: W
LayerCount: 2
Fore
SplineSet
392 677 m 1,0,-1
 392 347 l 2,1,2
 392 222 392 222 461 143.5 c 128,-1,3
 530 65 530 65 652 65 c 0,4,5
 777 65 777 65 842 162 c 128,-1,6
 907 259 907 259 907 428 c 0,7,8
 907 607 907 607 827.5 701.5 c 128,-1,9
 748 796 748 796 633 796 c 0,10,11
 515 796 515 796 392 677 c 1,0,-1
40 822 m 1,12,-1
 40 856 l 1,13,-1
 310 921 l 1,14,-1
 378 926 l 1,15,-1
 386 754 l 1,16,17
 460 836 460 836 535 881 c 128,-1,18
 610 926 610 926 706 926 c 0,19,20
 878 926 878 926 985.5 804.5 c 128,-1,21
 1093 683 1093 683 1093 477 c 0,22,23
 1093 257 1093 257 963.5 119 c 128,-1,24
 834 -19 834 -19 637 -19 c 0,25,26
 501 -19 501 -19 392 75 c 1,27,-1
 392 -144 l 2,28,29
 392 -236 392 -236 435.5 -276.5 c 128,-1,30
 479 -317 479 -317 576 -328 c 1,31,-1
 574 -378 l 1,32,-1
 47 -378 l 1,33,34
 45 -344 45 -344 45 -328 c 1,35,36
 206 -306 206 -306 206 -153 c 2,37,-1
 206 722 l 1,38,39
 180 770 180 770 40 822 c 1,12,-1
EndSplineSet
EndChar

StartChar: q
Encoding: 81 113 84
Width: 1132
Flags: W
LayerCount: 2
Fore
SplineSet
789 236 m 1,0,-1
 789 624 l 1,1,2
 776 729 776 729 707.5 791 c 128,-1,3
 639 853 639 853 525 853 c 0,4,5
 404 853 404 853 333.5 753 c 128,-1,6
 263 653 263 653 263 495 c 0,7,8
 263 321 263 321 344 217 c 128,-1,9
 425 113 425 113 546 113 c 0,10,11
 665 113 665 113 789 236 c 1,0,-1
790 -186 m 2,12,-1
 790 144 l 1,13,14
 704 55 704 55 630 16.5 c 128,-1,15
 556 -22 556 -22 474 -22 c 0,16,17
 356 -22 356 -22 265 43 c 128,-1,18
 174 108 174 108 128 210.5 c 128,-1,19
 82 313 82 313 82 432 c 0,20,21
 82 665 82 665 212 794.5 c 128,-1,22
 342 924 342 924 548 924 c 0,23,24
 717 924 717 924 867 848 c 1,25,-1
 867 885 l 1,26,27
 874 902 874 902 902 914 c 128,-1,28
 930 926 930 926 954 926 c 0,29,30
 975 926 975 926 975 898 c 2,31,-1
 975 -138 l 2,32,33
 975 -224 975 -224 1009.5 -269 c 128,-1,34
 1044 -314 1044 -314 1129 -329 c 1,35,-1
 1127 -378 l 1,36,-1
 610 -378 l 1,37,38
 608 -344 608 -344 608 -329 c 1,39,40
 619 -325 619 -325 651.5 -316 c 128,-1,41
 684 -307 684 -307 702.5 -299 c 128,-1,42
 721 -291 721 -291 744 -277 c 128,-1,43
 767 -263 767 -263 778.5 -240 c 128,-1,44
 790 -217 790 -217 790 -186 c 2,12,-1
EndSplineSet
EndChar

StartChar: r
Encoding: 82 114 85
Width: 799
Flags: W
LayerCount: 2
Fore
SplineSet
384 633 m 1,0,-1
 384 231 l 2,1,2
 384 204 384 204 386 185.5 c 128,-1,3
 388 167 388 167 398 140.5 c 128,-1,4
 408 114 408 114 426 97 c 128,-1,5
 444 80 444 80 479.5 66.5 c 128,-1,6
 515 53 515 53 565 50 c 1,7,-1
 564 0 l 1,8,-1
 43 0 l 1,9,10
 42 51 42 51 43 54 c 1,11,12
 55 57 55 57 77.5 63 c 128,-1,13
 100 69 100 69 108.5 71.5 c 128,-1,14
 117 74 117 74 133 80 c 128,-1,15
 149 86 149 86 154.5 91 c 128,-1,16
 160 96 160 96 170 104.5 c 128,-1,17
 180 113 180 113 183 123.5 c 128,-1,18
 186 134 186 134 191 148.5 c 128,-1,19
 196 163 196 163 197 182 c 128,-1,20
 198 201 198 201 198 225 c 2,21,-1
 198 738 l 1,22,23
 185 760 185 760 145.5 780.5 c 128,-1,24
 106 801 106 801 73 810 c 2,25,-1
 40 820 l 1,26,-1
 42 855 l 1,27,-1
 308 924 l 1,28,-1
 365 926 l 1,29,-1
 381 732 l 1,30,31
 437 835 437 835 497.5 878 c 128,-1,32
 558 921 558 921 636 921 c 0,33,34
 695 921 695 921 736.5 886.5 c 128,-1,35
 778 852 778 852 778 811 c 0,36,37
 778 779 778 779 755 735.5 c 128,-1,38
 732 692 732 692 692 692 c 0,39,40
 662 692 662 692 641 708 c 128,-1,41
 620 724 620 724 610 743 c 128,-1,42
 600 762 600 762 583.5 778 c 128,-1,43
 567 794 567 794 547 794 c 0,44,45
 531 794 531 794 517 790 c 128,-1,46
 503 786 503 786 489 774.5 c 128,-1,47
 475 763 475 763 466 755.5 c 128,-1,48
 457 748 457 748 443 727.5 c 128,-1,49
 429 707 429 707 423.5 699 c 128,-1,50
 418 691 418 691 402.5 665 c 128,-1,51
 387 639 387 639 384 633 c 1,0,-1
EndSplineSet
EndChar

StartChar: s
Encoding: 83 115 86
Width: 854
Flags: W
LayerCount: 2
Fore
SplineSet
685 853 m 1,0,-1
 691 631 l 1,1,2
 677 630 677 630 644 630 c 1,3,4
 615 731 615 731 556.5 795 c 128,-1,5
 498 859 498 859 407 859 c 0,6,7
 344 859 344 859 307.5 828 c 128,-1,8
 271 797 271 797 271 738 c 0,9,10
 271 713 271 713 284 689 c 128,-1,11
 297 665 297 665 312.5 648 c 128,-1,12
 328 631 328 631 362 609 c 128,-1,13
 396 587 396 587 416 576 c 128,-1,14
 436 565 436 565 480.5 542.5 c 128,-1,15
 525 520 525 520 540 512 c 0,16,17
 652 452 652 452 703.5 389.5 c 128,-1,18
 755 327 755 327 755 237 c 0,19,20
 755 113 755 113 666.5 46.5 c 128,-1,21
 578 -20 578 -20 436 -20 c 0,22,23
 354 -20 354 -20 270 -0.5 c 128,-1,24
 186 19 186 19 132 52 c 1,25,-1
 132 296 l 1,26,27
 171 301 171 301 185 301 c 1,28,29
 208 190 208 190 266.5 120 c 128,-1,30
 325 50 325 50 427 50 c 0,31,32
 500 50 500 50 548.5 86.5 c 128,-1,33
 597 123 597 123 597 183 c 0,34,35
 597 215 597 215 581.5 241.5 c 128,-1,36
 566 268 566 268 532 291.5 c 128,-1,37
 498 315 498 315 463 333.5 c 128,-1,38
 428 352 428 352 371 382.5 c 128,-1,39
 314 413 314 413 270 441 c 0,40,41
 194 488 194 488 155.5 546 c 128,-1,42
 117 604 117 604 117 684 c 0,43,44
 117 799 117 799 200.5 862.5 c 128,-1,45
 284 926 284 926 413 926 c 0,46,47
 570 926 570 926 685 853 c 1,0,-1
EndSplineSet
EndChar

StartChar: t
Encoding: 84 116 87
Width: 684
Flags: W
LayerCount: 2
Fore
SplineSet
616 824 m 1,0,-1
 367 824 l 1,1,-1
 367 314 l 2,2,3
 367 269 367 269 367.5 244.5 c 128,-1,4
 368 220 368 220 370.5 191 c 128,-1,5
 373 162 373 162 378.5 148.5 c 128,-1,6
 384 135 384 135 393 120 c 128,-1,7
 402 105 402 105 417 99.5 c 128,-1,8
 432 94 432 94 451.5 90 c 128,-1,9
 471 86 471 86 499 86 c 0,10,11
 567 86 567 86 639 108 c 1,12,-1
 647 35 l 1,13,14
 532 -20 532 -20 419 -20 c 0,15,16
 278 -20 278 -20 229 52.5 c 128,-1,17
 180 125 180 125 180 317 c 2,18,-1
 180 824 l 1,19,-1
 31 824 l 1,20,-1
 31 859 l 1,21,22
 83 880 83 880 122.5 905.5 c 128,-1,23
 162 931 162 931 194 967 c 128,-1,24
 226 1003 226 1003 244.5 1027.5 c 128,-1,25
 263 1052 263 1052 294 1101 c 0,26,27
 312 1130 312 1130 322 1139.5 c 128,-1,28
 332 1149 332 1149 342 1149 c 0,29,30
 365 1149 365 1149 365 1110 c 2,31,-1
 365 899 l 1,32,-1
 616 899 l 1,33,-1
 616 824 l 1,0,-1
EndSplineSet
EndChar

StartChar: u
Encoding: 85 117 88
Width: 1191
Flags: W
LayerCount: 2
Fore
SplineSet
821 145 m 1,0,1
 673 -20 673 -20 490 -20 c 0,2,3
 415 -20 415 -20 360.5 5 c 128,-1,4
 306 30 306 30 274 70 c 128,-1,5
 242 110 242 110 223 171.5 c 128,-1,6
 204 233 204 233 198 292.5 c 128,-1,7
 192 352 192 352 192 429 c 2,8,-1
 192 735 l 1,9,10
 179 758 179 758 139 779 c 128,-1,11
 99 800 99 800 66 810 c 2,12,-1
 33 819 l 1,13,-1
 35 854 l 1,14,-1
 316 922 l 1,15,-1
 378 926 l 1,16,-1
 378 440 l 2,17,18
 378 250 378 250 416 174 c 128,-1,19
 454 98 454 98 554 98 c 0,20,21
 693 98 693 98 816 220 c 1,22,-1
 816 735 l 1,23,24
 803 758 803 758 763 779 c 128,-1,25
 723 800 723 800 690 810 c 2,26,-1
 657 819 l 1,27,-1
 659 854 l 1,28,-1
 940 922 l 1,29,-1
 1002 926 l 1,30,-1
 1002 201 l 2,31,32
 1002 175 1002 175 1011.5 156 c 128,-1,33
 1021 137 1021 137 1033 126 c 128,-1,34
 1045 115 1045 115 1070 106 c 128,-1,35
 1095 97 1095 97 1111 94 c 128,-1,36
 1127 91 1127 91 1160 85 c 1,37,-1
 1157 32 l 1,38,-1
 829 -15 l 1,39,-1
 821 145 l 1,0,1
EndSplineSet
EndChar

StartChar: v
Encoding: 86 118 89
Width: 987
Flags: W
LayerCount: 2
Fore
SplineSet
794 706 m 2,0,-1
 484 -12 l 1,1,2
 472 -18 472 -18 454 -18 c 0,3,4
 434 -18 434 -18 424 -12 c 1,5,-1
 118 724 l 2,6,7
 104 758 104 758 92.5 778 c 128,-1,8
 81 798 81 798 68 808 c 128,-1,9
 55 818 55 818 45 822 c 128,-1,10
 35 826 35 826 14.5 832.5 c 128,-1,11
 -6 839 -6 839 -23 847 c 1,12,-1
 -23 899 l 1,13,-1
 427 899 l 1,14,15
 427 892 427 892 429.5 872.5 c 128,-1,16
 432 853 432 853 432 845 c 1,17,18
 399 836 399 836 382 830.5 c 128,-1,19
 365 825 365 825 343.5 815 c 128,-1,20
 322 805 322 805 312.5 791.5 c 128,-1,21
 303 778 303 778 303 760 c 0,22,23
 303 750 303 750 308 733 c 1,24,-1
 512 230 l 1,25,-1
 684 649 l 2,26,27
 712 718 712 718 712 755 c 1,28,29
 709 790 709 790 678.5 808.5 c 128,-1,30
 648 827 648 827 582 843 c 1,31,32
 581 849 581 849 581 866 c 2,33,-1
 582 899 l 1,34,-1
 954 899 l 1,35,36
 956 882 956 882 956 848 c 1,37,38
 949 843 949 843 909.5 826.5 c 128,-1,39
 870 810 870 810 843.5 784 c 128,-1,40
 817 758 817 758 794 706 c 2,0,-1
EndSplineSet
EndChar

StartChar: w
Encoding: 87 119 90
Width: 1425
Flags: W
LayerCount: 2
Fore
SplineSet
297 726 m 1,0,1
 297 722 297 722 298 719 c 2,2,-1
 483 243 l 1,3,-1
 666 688 l 1,4,5
 647 756 647 756 605 802 c 128,-1,6
 563 848 563 848 498 851 c 1,7,-1
 500 899 l 1,8,-1
 942 899 l 1,9,10
 944 865 944 865 944 851 c 1,11,12
 931 845 931 845 906 836.5 c 128,-1,13
 881 828 881 828 867 822 c 128,-1,14
 853 816 853 816 841 802 c 128,-1,15
 829 788 829 788 829 768 c 0,16,17
 829 747 829 747 847 698 c 2,18,-1
 1010 251 l 1,19,-1
 1166 672 l 2,20,21
 1185 721 1185 721 1185 754 c 0,22,23
 1185 776 1185 776 1181 790 c 128,-1,24
 1177 804 1177 804 1163 813.5 c 128,-1,25
 1149 823 1149 823 1141 826.5 c 128,-1,26
 1133 830 1133 830 1105 837 c 128,-1,27
 1077 844 1077 844 1064 848 c 1,28,29
 1062 862 1062 862 1062 872 c 0,30,31
 1062 881 1062 881 1064 899 c 1,32,-1
 1415 899 l 1,33,-1
 1415 846 l 1,34,35
 1372 840 1372 840 1322 797.5 c 128,-1,36
 1272 755 1272 755 1257 714 c 2,37,-1
 987 -14 l 1,38,39
 976 -20 976 -20 957 -20 c 128,-1,40
 938 -20 938 -20 926 -14 c 1,41,-1
 699 596 l 1,42,-1
 458 -14 l 1,43,44
 446 -20 446 -20 427 -20 c 0,45,46
 406 -20 406 -20 395 -14 c 1,47,-1
 116 699 l 2,48,49
 102 736 102 736 92.5 755 c 128,-1,50
 83 774 83 774 67.5 796.5 c 128,-1,51
 52 819 52 819 30 831 c 128,-1,52
 8 843 8 843 -22 850 c 1,53,-1
 -20 899 l 1,54,-1
 392 899 l 1,55,56
 393 882 393 882 393 851 c 1,57,58
 345 835 345 835 318.5 815 c 128,-1,59
 292 795 292 795 292 758 c 0,60,61
 292 741 292 741 297 726 c 1,0,1
EndSplineSet
EndChar

StartChar: x
Encoding: 88 120 91
Width: 1115
Flags: W
LayerCount: 2
Fore
SplineSet
224 152 m 2,0,-1
 471 431 l 1,1,-1
 204 772 l 2,2,3
 187 794 187 794 164.5 809 c 128,-1,4
 142 824 142 824 109.5 837 c 128,-1,5
 77 850 77 850 75 851 c 1,6,-1
 76 899 l 1,7,-1
 519 899 l 1,8,9
 520 866 520 866 520 851 c 1,10,11
 432 824 432 824 432 779 c 0,12,13
 432 771 432 771 441 748 c 1,14,-1
 581 561 l 1,15,-1
 703 710 l 2,16,17
 734 748 734 748 734 774 c 128,-1,18
 734 800 734 800 706 820.5 c 128,-1,19
 678 841 678 841 633 848 c 1,20,-1
 633 899 l 1,21,-1
 1003 899 l 1,22,23
 1004 866 1004 866 1004 850 c 1,24,25
 998 847 998 847 969.5 837 c 128,-1,26
 941 827 941 827 923.5 819.5 c 128,-1,27
 906 812 906 812 880.5 794 c 128,-1,28
 855 776 855 776 836 753 c 2,29,-1
 630 501 l 1,30,-1
 900 159 l 2,31,32
 941 106 941 106 968 88 c 128,-1,33
 995 70 995 70 1055 47 c 1,34,-1
 1053 0 l 1,35,-1
 576 0 l 1,36,37
 575 32 575 32 575 48 c 1,38,39
 589 55 589 55 622.5 65 c 128,-1,40
 656 75 656 75 674.5 86 c 128,-1,41
 693 97 693 97 693 115 c 0,42,43
 693 137 693 137 668 165 c 1,44,-1
 512 376 l 1,45,-1
 376 225 l 2,46,47
 353 200 353 200 336.5 167.5 c 128,-1,48
 320 135 320 135 320 113 c 0,49,50
 320 89 320 89 349.5 75.5 c 128,-1,51
 379 62 379 62 435 51 c 1,52,53
 436 45 436 45 436 30 c 2,54,-1
 435 0 l 1,55,-1
 52 0 l 1,56,57
 50 31 50 31 50 48 c 1,58,59
 57 52 57 52 94 67 c 128,-1,60
 131 82 131 82 165 102.5 c 128,-1,61
 199 123 199 123 224 152 c 2,0,-1
EndSplineSet
EndChar

StartChar: y
Encoding: 89 121 92
Width: 1000
Flags: W
LayerCount: 2
Fore
SplineSet
470 0 m 1,0,-1
 158 712 l 2,1,2
 140 753 140 753 122 779.5 c 128,-1,3
 104 806 104 806 87 818 c 128,-1,4
 70 830 70 830 57.5 834 c 128,-1,5
 45 838 45 838 27 841 c 128,-1,6
 9 844 9 844 0 847 c 1,7,-1
 0 899 l 1,8,-1
 469 899 l 1,9,-1
 474 842 l 1,10,11
 408 830 408 830 377 814.5 c 128,-1,12
 346 799 346 799 346 767 c 0,13,14
 346 746 346 746 359 705 c 1,15,-1
 557 212 l 1,16,-1
 728 675 l 2,17,18
 743 714 743 714 743 743 c 0,19,20
 743 786 743 786 712 808.5 c 128,-1,21
 681 831 681 831 613 843 c 1,22,23
 612 849 612 849 612 866 c 2,24,-1
 613 899 l 1,25,-1
 980 899 l 1,26,27
 981 866 981 866 981 848 c 1,28,29
 968 838 968 838 944 827.5 c 128,-1,30
 920 817 920 817 902 809 c 128,-1,31
 884 801 884 801 864 775 c 128,-1,32
 844 749 844 749 832 707 c 1,33,-1
 477 -167 l 2,34,35
 433 -277 433 -277 372.5 -336 c 128,-1,36
 312 -395 312 -395 219 -395 c 0,37,38
 152 -395 152 -395 108.5 -363.5 c 128,-1,39
 65 -332 65 -332 65 -279 c 0,40,41
 65 -240 65 -240 92.5 -213 c 128,-1,42
 120 -186 120 -186 159 -186 c 2,43,-1
 166 -186 l 1,44,45
 195 -188 195 -188 215 -202 c 128,-1,46
 235 -216 235 -216 243 -231 c 128,-1,47
 251 -246 251 -246 266 -258.5 c 128,-1,48
 281 -271 281 -271 302 -271 c 0,49,50
 321 -271 321 -271 337.5 -259 c 128,-1,51
 354 -247 354 -247 368 -229 c 128,-1,52
 382 -211 382 -211 398.5 -175.5 c 128,-1,53
 415 -140 415 -140 428.5 -107 c 128,-1,54
 442 -74 442 -74 463 -19 c 0,55,56
 468 -6 468 -6 470 0 c 1,0,-1
EndSplineSet
EndChar

StartChar: z
Encoding: 90 122 93
Width: 949
Flags: W
LayerCount: 2
Fore
SplineSet
874 840 m 1,0,-1
 329 60 l 1,1,-1
 523 60 l 2,2,3
 606 60 606 60 694 86 c 0,4,5
 728 96 728 96 753.5 133 c 128,-1,6
 779 170 779 170 801 216 c 128,-1,7
 823 262 823 262 840 279 c 1,8,9
 848 279 848 279 865 278 c 128,-1,10
 882 277 882 277 891 277 c 1,11,-1
 862 -11 l 1,12,13
 737 0 737 0 703 0 c 2,14,-1
 95 0 l 1,15,-1
 81 33 l 1,16,-1
 658 838 l 1,17,-1
 489 838 l 2,18,19
 402 838 402 838 364 829 c 1,20,21
 324 824 324 824 292 793 c 128,-1,22
 260 762 260 762 229 720 c 128,-1,23
 198 678 198 678 175 662 c 1,24,-1
 130 664 l 1,25,-1
 151 925 l 1,26,27
 220 899 220 899 318 899 c 2,28,-1
 819 899 l 2,29,30
 827 899 827 899 840.5 898 c 128,-1,31
 854 897 854 897 864 896 c 2,32,-1
 874 895 l 1,33,-1
 874 840 l 1,0,-1
EndSplineSet
EndChar

StartChar: braceleft
Encoding: 91 123 94
Width: 827
Flags: W
LayerCount: 2
Fore
SplineSet
191 619 m 1,0,1
 191 653 191 653 213 667 c 1,2,3
 302 675 302 675 352.5 728.5 c 128,-1,4
 403 782 403 782 403 871 c 0,5,6
 403 919 403 919 389 1014 c 128,-1,7
 375 1109 375 1109 375 1157 c 0,8,9
 375 1313 375 1313 469.5 1400 c 128,-1,10
 564 1487 564 1487 724 1497 c 1,11,12
 729 1482 729 1482 729 1467 c 0,13,14
 729 1453 729 1453 724 1440 c 1,15,16
 633 1428 633 1428 582.5 1387 c 128,-1,17
 532 1346 532 1346 532 1261 c 0,18,19
 532 1212 532 1212 553 1114.5 c 128,-1,20
 574 1017 574 1017 574 967 c 0,21,22
 574 841 574 841 501 755 c 128,-1,23
 428 669 428 669 304 632 c 1,24,25
 427 595 427 595 500.5 508 c 128,-1,26
 574 421 574 421 574 297 c 0,27,28
 574 245 574 245 552 145.5 c 128,-1,29
 530 46 530 46 530 -4 c 0,30,31
 530 -144 530 -144 724 -176 c 1,32,33
 732 -189 732 -189 732 -205 c 0,34,35
 732 -220 732 -220 724 -233 c 1,36,37
 559 -223 559 -223 467.5 -133 c 128,-1,38
 376 -43 376 -43 376 120 c 0,39,40
 376 168 376 168 388.5 263 c 128,-1,41
 401 358 401 358 401 406 c 0,42,43
 401 456 401 456 389 488.5 c 128,-1,44
 377 521 377 521 354 537.5 c 128,-1,45
 331 554 331 554 307 563.5 c 128,-1,46
 283 573 283 573 249 587 c 128,-1,47
 215 601 215 601 191 619 c 1,0,1
EndSplineSet
EndChar

StartChar: bar
Encoding: 92 124 95
Width: 824
Flags: W
LayerCount: 2
Fore
SplineSet
469 1244 m 2,0,-1
 469 -88 l 2,1,2
 469 -242 469 -242 438 -315 c 1,3,4
 402 -314 402 -314 354 -283 c 1,5,-1
 354 1431 l 1,6,7
 379 1467 379 1467 434 1467 c 2,8,-1
 438 1467 l 1,9,10
 469 1343 469 1343 469 1244 c 2,0,-1
EndSplineSet
EndChar

StartChar: braceright
Encoding: 93 125 96
Width: 827
Flags: W
LayerCount: 2
Fore
SplineSet
614 667 m 1,0,1
 637 653 637 653 637 619 c 1,2,3
 611 602 611 602 574.5 587 c 128,-1,4
 538 572 538 572 515 562.5 c 128,-1,5
 492 553 492 553 469 535 c 128,-1,6
 446 517 446 517 435 484 c 128,-1,7
 424 451 424 451 424 399 c 0,8,9
 424 353 424 353 437.5 262.5 c 128,-1,10
 451 172 451 172 451 127 c 0,11,12
 451 -40 451 -40 361.5 -131 c 128,-1,13
 272 -222 272 -222 104 -233 c 1,14,15
 96 -225 96 -225 96 -212 c 0,16,17
 96 -187 96 -187 104 -176 c 1,18,19
 297 -147 297 -147 297 -4 c 0,20,21
 297 46 297 46 275 145.5 c 128,-1,22
 253 245 253 245 253 297 c 0,23,24
 253 421 253 421 326.5 508 c 128,-1,25
 400 595 400 595 523 632 c 1,26,27
 399 668 399 668 326 755 c 128,-1,28
 253 842 253 842 253 967 c 0,29,30
 253 1017 253 1017 274 1114.5 c 128,-1,31
 295 1212 295 1212 295 1261 c 0,32,33
 295 1345 295 1345 244 1386.5 c 128,-1,34
 193 1428 193 1428 104 1440 c 1,35,36
 98 1452 98 1452 98 1467 c 0,37,38
 98 1479 98 1479 104 1497 c 1,39,40
 263 1487 263 1487 357.5 1400 c 128,-1,41
 452 1313 452 1313 452 1157 c 0,42,43
 452 1108 452 1108 438 1011.5 c 128,-1,44
 424 915 424 915 424 866 c 0,45,46
 424 778 424 778 475 726 c 128,-1,47
 526 674 526 674 614 667 c 1,0,1
EndSplineSet
EndChar

StartChar: asciitilde
Encoding: 94 126 97
Width: 858
Flags: W
LayerCount: 2
Fore
SplineSet
757 846 m 1,0,-1
 846 846 l 1,1,2
 846 726 846 726 794.5 654.5 c 128,-1,3
 743 583 743 583 645 583 c 0,4,5
 590 583 590 583 524.5 603.5 c 128,-1,6
 459 624 459 624 409.5 648 c 128,-1,7
 360 672 360 672 305 692.5 c 128,-1,8
 250 713 250 713 214 713 c 0,9,10
 111 713 111 713 97 596 c 1,11,-1
 6 596 l 1,12,13
 29 851 29 851 223 851 c 0,14,15
 283 851 283 851 366 817.5 c 128,-1,16
 449 784 449 784 524.5 751 c 128,-1,17
 600 718 600 718 642 718 c 0,18,19
 752 718 752 718 757 846 c 1,0,-1
EndSplineSet
EndChar

StartChar: exclamdown
Encoding: 95 161 98
Width: 567
Flags: W
LayerCount: 2
Fore
SplineSet
279 -29 m 0,0,1
 153 -29 153 -29 153 82 c 0,2,3
 153 167 153 167 170 304 c 128,-1,4
 187 441 187 441 214 609 c 128,-1,5
 241 777 241 777 248 833 c 0,6,7
 248 837 248 837 249 851.5 c 128,-1,8
 250 866 250 866 251.5 876.5 c 128,-1,9
 253 887 253 887 256.5 900 c 128,-1,10
 260 913 260 913 266.5 920 c 128,-1,11
 273 927 273 927 283 927 c 0,12,13
 291 927 291 927 297 918 c 128,-1,14
 303 909 303 909 306.5 893.5 c 128,-1,15
 310 878 310 878 312 864 c 128,-1,16
 314 850 314 850 315 835 c 128,-1,17
 316 820 316 820 317 817 c 0,18,19
 320 797 320 797 341.5 658 c 128,-1,20
 363 519 363 519 374 441.5 c 128,-1,21
 385 364 385 364 397 254.5 c 128,-1,22
 409 145 409 145 409 84 c 0,23,24
 409 27 409 27 373 -1 c 128,-1,25
 337 -29 337 -29 279 -29 c 0,0,1
162 1191 m 0,26,27
 162 1241 162 1241 197.5 1276.5 c 128,-1,28
 233 1312 233 1312 283 1312 c 0,29,30
 334 1312 334 1312 370.5 1277 c 128,-1,31
 407 1242 407 1242 407 1191 c 128,-1,32
 407 1140 407 1140 370.5 1103.5 c 128,-1,33
 334 1067 334 1067 283 1067 c 128,-1,34
 232 1067 232 1067 197 1103.5 c 128,-1,35
 162 1140 162 1140 162 1191 c 0,26,27
EndSplineSet
EndChar

StartChar: cent
Encoding: 96 162 99
Width: 1049
Flags: W
LayerCount: 2
Fore
SplineSet
485 165 m 1,0,-1
 611 846 l 1,1,2
 550 846 550 846 497 826 c 128,-1,3
 444 806 444 806 402 766.5 c 128,-1,4
 360 727 360 727 335.5 662.5 c 128,-1,5
 311 598 311 598 311 516 c 0,6,7
 311 379 311 379 354 293.5 c 128,-1,8
 397 208 397 208 485 165 c 1,0,-1
396 -201 m 1,9,-1
 448 6 l 1,10,11
 301 44 301 44 213 162.5 c 128,-1,12
 125 281 125 281 125 447 c 0,13,14
 125 535 125 535 155.5 618.5 c 128,-1,15
 186 702 186 702 243 770.5 c 128,-1,16
 300 839 300 839 392 881 c 128,-1,17
 484 923 484 923 596 923 c 0,18,19
 601 923 601 923 611 922.5 c 128,-1,20
 621 922 621 922 627 922 c 1,21,-1
 657 1107 l 2,22,23
 667 1167 667 1167 704 1223 c 1,24,25
 737 1223 737 1223 755 1221 c 1,26,27
 753 1159 753 1159 743 1097 c 2,28,-1
 714 916 l 1,29,30
 814 901 814 901 873.5 853.5 c 128,-1,31
 933 806 933 806 933 735 c 0,32,33
 933 692 933 692 907 665.5 c 128,-1,34
 881 639 881 639 844 639 c 0,35,36
 810 639 810 639 794 653.5 c 128,-1,37
 778 668 778 668 773.5 691 c 128,-1,38
 769 714 769 714 765 739 c 128,-1,39
 761 764 761 764 743.5 789.5 c 128,-1,40
 726 815 726 815 691 830 c 1,41,-1
 563 139 l 1,42,43
 611 122 611 122 668 122 c 0,44,45
 801 122 801 122 891 212 c 1,46,47
 908 204 908 204 923 189 c 1,48,49
 920 176 920 176 907 142 c 0,50,51
 882 76 882 76 789.5 29.5 c 128,-1,52
 697 -17 697 -17 604 -19 c 1,53,54
 568 -29 568 -29 536 -29 c 2,55,-1
 527 -29 l 1,56,57
 510 -175 510 -175 462 -253 c 1,58,59
 414 -253 414 -253 396 -201 c 1,9,-1
EndSplineSet
EndChar

StartChar: sterling
Encoding: 97 163 100
Width: 1238
Flags: W
LayerCount: 2
Fore
SplineSet
575 565 m 1,0,-1
 590 350 l 1,1,2
 590 299 590 299 570 233 c 1,3,4
 576 231 576 231 624.5 209.5 c 128,-1,5
 673 188 673 188 695 179.5 c 128,-1,6
 717 171 717 171 754 161 c 128,-1,7
 791 151 791 151 817 151 c 0,8,9
 861 151 861 151 894.5 166.5 c 128,-1,10
 928 182 928 182 947 204.5 c 128,-1,11
 966 227 966 227 979 249.5 c 128,-1,12
 992 272 992 272 1001.5 287.5 c 128,-1,13
 1011 303 1011 303 1020 303 c 0,14,15
 1026 303 1026 303 1039 298 c 1,16,17
 1028 162 1028 162 1011 110 c 0,18,19
 972 -9 972 -9 846 -19 c 0,20,21
 833 -20 833 -20 820 -20 c 0,22,23
 770 -20 770 -20 708 1.5 c 128,-1,24
 646 23 646 23 610 42.5 c 128,-1,25
 574 62 574 62 510 100 c 1,26,27
 473 46 473 46 419.5 13 c 128,-1,28
 366 -20 366 -20 305 -20 c 0,29,30
 233 -20 233 -20 186 29.5 c 128,-1,31
 139 79 139 79 139 151 c 0,32,33
 139 222 139 222 185 261.5 c 128,-1,34
 231 301 231 301 303 301 c 0,35,36
 365 301 365 301 441 279 c 1,37,-1
 376 565 l 1,38,39
 372 565 372 565 359.5 564.5 c 128,-1,40
 347 564 347 564 339 564 c 0,41,42
 227 564 227 564 227 612 c 0,43,44
 227 658 227 658 324 658 c 0,45,46
 332 658 332 658 343.5 657.5 c 128,-1,47
 355 657 355 657 359 657 c 1,48,49
 358 670 358 670 353.5 743.5 c 128,-1,50
 349 817 349 817 349 856 c 0,51,52
 349 1012 349 1012 456 1106.5 c 128,-1,53
 563 1201 563 1201 721 1201 c 0,54,55
 770 1201 770 1201 817.5 1189 c 128,-1,56
 865 1177 865 1177 907 1153.5 c 128,-1,57
 949 1130 949 1130 975 1089 c 128,-1,58
 1001 1048 1001 1048 1001 996 c 0,59,60
 1001 947 1001 947 970.5 919.5 c 128,-1,61
 940 892 940 892 898 892 c 0,62,63
 860 892 860 892 833 915 c 128,-1,64
 806 938 806 938 806 979 c 0,65,66
 806 994 806 994 816 1021 c 128,-1,67
 826 1048 826 1048 826 1062 c 0,68,69
 826 1102 826 1102 799 1128.5 c 128,-1,70
 772 1155 772 1155 732 1155 c 0,71,72
 685 1155 685 1155 650.5 1126.5 c 128,-1,73
 616 1098 616 1098 598 1053.5 c 128,-1,74
 580 1009 580 1009 572 964.5 c 128,-1,75
 564 920 564 920 564 878 c 0,76,77
 564 858 564 858 575 657 c 1,78,-1
 803 657 l 1,79,80
 809 638 809 638 809 607 c 0,81,82
 809 575 809 575 803 565 c 1,83,-1
 575 565 l 1,0,-1
322 64 m 128,-1,85
 358 64 358 64 388 87.5 c 128,-1,86
 418 111 418 111 433 146 c 1,87,88
 345 196 345 196 301 196 c 0,89,90
 279 196 279 196 264 183 c 128,-1,91
 249 170 249 170 249 149 c 0,92,93
 249 112 249 112 267.5 88 c 128,-1,84
 286 64 286 64 322 64 c 128,-1,85
EndSplineSet
EndChar

StartChar: currency
Encoding: 98 164 101
Width: 1188
Flags: W
LayerCount: 2
Fore
SplineSet
331 721 m 0,0,1
 331 604 331 604 404.5 524.5 c 128,-1,2
 478 445 478 445 594 445 c 0,3,4
 702 445 702 445 779.5 522 c 128,-1,5
 857 599 857 599 857 707 c 0,6,7
 857 823 857 823 783 903 c 128,-1,8
 709 983 709 983 594 983 c 0,9,10
 486 983 486 983 408.5 906 c 128,-1,11
 331 829 331 829 331 721 c 0,0,1
817 1044 m 1,12,13
 824 1053 824 1053 847.5 1083.5 c 128,-1,14
 871 1114 871 1114 882 1127.5 c 128,-1,15
 893 1141 893 1141 914.5 1161 c 128,-1,16
 936 1181 936 1181 957 1194 c 1,17,18
 1007 1163 1007 1163 1039 1109 c 1,19,20
 1024 1085 1024 1085 1003.5 1060.5 c 128,-1,21
 983 1036 983 1036 953 1004 c 128,-1,22
 923 972 923 972 912 959 c 1,23,24
 998 848 998 848 998 714 c 0,25,26
 998 581 998 581 914 470 c 1,27,28
 921 461 921 461 974.5 405.5 c 128,-1,29
 1028 350 1028 350 1046 318 c 1,30,31
 1010 268 1010 268 959 238 c 1,32,33
 942 248 942 248 920.5 269 c 128,-1,34
 899 290 899 290 888 303 c 128,-1,35
 877 316 877 316 850 349.5 c 128,-1,36
 823 383 823 383 822 384 c 1,37,38
 720 318 720 318 596 318 c 0,39,40
 479 318 479 318 373 382 c 1,41,42
 366 373 366 373 342.5 342.5 c 128,-1,43
 319 312 319 312 307.5 298.5 c 128,-1,44
 296 285 296 285 274.5 265 c 128,-1,45
 253 245 253 245 231 233 c 1,46,47
 177 269 177 269 149 317 c 1,48,49
 162 336 162 336 179 357.5 c 128,-1,50
 196 379 196 379 209.5 393.5 c 128,-1,51
 223 408 223 408 245 431.5 c 128,-1,52
 267 455 267 455 277 467 c 1,53,54
 191 579 191 579 191 713 c 128,-1,55
 191 847 191 847 275 958 c 1,56,57
 267 968 267 968 214 1023 c 128,-1,58
 161 1078 161 1078 142 1110 c 1,59,60
 182 1162 182 1162 230 1190 c 1,61,62
 244 1181 244 1181 259 1168.5 c 128,-1,63
 274 1156 274 1156 291.5 1136.5 c 128,-1,64
 309 1117 309 1117 317.5 1106.5 c 128,-1,65
 326 1096 326 1096 346.5 1070 c 128,-1,66
 367 1044 367 1044 369 1042 c 1,67,68
 477 1109 477 1109 594 1109 c 0,69,70
 713 1109 713 1109 817 1044 c 1,12,13
EndSplineSet
EndChar

StartChar: yen
Encoding: 99 165 102
Width: 1340
Flags: W
LayerCount: 2
Fore
SplineSet
370 303 m 1,0,-1
 540 303 l 1,1,-1
 540 395 l 1,2,3
 516 395 516 395 464.5 393 c 128,-1,4
 413 391 413 391 389 391 c 0,5,6
 318 391 318 391 283.5 403.5 c 128,-1,7
 249 416 249 416 249 452 c 0,8,9
 249 464 249 464 254.5 469.5 c 128,-1,10
 260 475 260 475 282.5 479.5 c 128,-1,11
 305 484 305 484 346 485.5 c 128,-1,12
 387 487 387 487 463 487 c 2,13,-1
 540 487 l 1,14,-1
 540 530 l 1,15,-1
 260 1030 l 2,16,17
 252 1045 252 1045 198 1074.5 c 128,-1,18
 144 1104 144 1104 95 1129 c 128,-1,19
 46 1154 46 1154 46 1159 c 0,20,21
 46 1163 46 1163 50 1176 c 1,22,-1
 676 1176 l 1,23,24
 680 1167 680 1167 680 1158 c 0,25,26
 680 1142 680 1142 633 1127.5 c 128,-1,27
 586 1113 586 1113 538.5 1097 c 128,-1,28
 491 1081 491 1081 491 1059 c 0,29,30
 491 1052 491 1052 496 1040 c 1,31,-1
 726 630 l 1,32,-1
 940 1040 l 2,33,34
 946 1050 946 1050 946 1060 c 0,35,36
 946 1077 946 1077 925 1088.5 c 128,-1,37
 904 1100 904 1100 876.5 1105.5 c 128,-1,38
 849 1111 849 1111 815 1122 c 128,-1,39
 781 1133 781 1133 762 1148 c 0,40,41
 758 1151 758 1151 758 1159 c 0,42,43
 758 1163 758 1163 762 1176 c 1,44,-1
 1258 1176 l 1,45,46
 1262 1167 1262 1167 1262 1157 c 0,47,48
 1262 1146 1262 1146 1232 1135 c 128,-1,49
 1202 1124 1202 1124 1171 1119 c 0,50,51
 1112 1109 1112 1109 1076.5 1092 c 128,-1,52
 1041 1075 1041 1075 1021 1040 c 2,53,-1
 755 580 l 1,54,-1
 755 487 l 1,55,-1
 984 487 l 2,56,57
 1004 487 1004 487 1024.5 483.5 c 128,-1,58
 1045 480 1045 480 1066 467.5 c 128,-1,59
 1087 455 1087 455 1087 434 c 0,60,61
 1087 418 1087 418 1065 405.5 c 128,-1,62
 1043 393 1043 393 1006 393 c 2,63,-1
 755 393 l 1,64,-1
 755 307 l 1,65,-1
 1011 307 l 2,66,67
 1048 307 1048 307 1068 294.5 c 128,-1,68
 1088 282 1088 282 1088 265 c 0,69,70
 1088 235 1088 235 1060 222.5 c 128,-1,71
 1032 210 1032 210 995 210 c 2,72,-1
 755 210 l 1,73,-1
 755 124 l 2,74,75
 755 89 755 89 791.5 72 c 128,-1,76
 828 55 828 55 871.5 53 c 128,-1,77
 915 51 915 51 951.5 43 c 128,-1,78
 988 35 988 35 988 17 c 0,79,80
 988 12 988 12 984 0 c 1,81,-1
 314 0 l 1,82,83
 309 12 309 12 309 18 c 0,84,85
 309 36 309 36 333 43.5 c 128,-1,86
 357 51 357 51 390.5 53 c 128,-1,87
 424 55 424 55 458 59 c 128,-1,88
 492 63 492 63 516 80.5 c 128,-1,89
 540 98 540 98 540 130 c 2,90,-1
 540 210 l 1,91,-1
 463 210 l 2,92,93
 369 210 369 210 320.5 216 c 128,-1,94
 272 222 272 222 260.5 230 c 128,-1,95
 249 238 249 238 249 254 c 0,96,97
 249 278 249 278 274.5 290 c 128,-1,98
 300 302 300 302 370 303 c 1,0,-1
EndSplineSet
EndChar

StartChar: brokenbar
Encoding: 100 166 103
Width: 826
Flags: W
LayerCount: 2
Fore
SplineSet
355 407 m 1,0,1
 377 443 377 443 438 443 c 1,2,3
 477 369 477 369 477 183 c 0,4,5
 477 145 477 145 475 77.5 c 128,-1,6
 473 10 473 10 473 -17 c 0,7,8
 473 -170 473 -170 438 -229 c 1,9,10
 420 -229 420 -229 408 -225 c 128,-1,11
 396 -221 396 -221 380 -211 c 128,-1,12
 364 -201 364 -201 355 -197 c 1,13,-1
 355 407 l 1,0,1
355 1343 m 1,14,15
 377 1379 377 1379 438 1379 c 1,16,17
 470 1301 470 1301 470 1247 c 2,18,-1
 470 739 l 1,19,20
 434 707 434 707 387 707 c 1,21,22
 355 799 355 799 355 1010 c 2,23,-1
 355 1343 l 1,14,15
EndSplineSet
EndChar

StartChar: section
Encoding: 101 167 104
Width: 856
Flags: W
LayerCount: 2
Fore
SplineSet
234 1043 m 1,0,1
 187 973 187 973 187 872 c 0,2,3
 187 773 187 773 221 685.5 c 128,-1,4
 255 598 255 598 309.5 529.5 c 128,-1,5
 364 461 364 461 421.5 399 c 128,-1,6
 479 337 479 337 536.5 261 c 128,-1,7
 594 185 594 185 624 110 c 1,8,-1
 626 107 l 1,9,10
 659 173 659 173 659 255 c 0,11,12
 659 332 659 332 630 422 c 128,-1,13
 601 512 601 512 559.5 590.5 c 128,-1,14
 518 669 518 669 455.5 758.5 c 128,-1,15
 393 848 393 848 344 910 c 128,-1,16
 295 972 295 972 234 1043 c 1,0,1
195 1073 m 1,17,18
 181 1108 181 1108 181 1152 c 0,19,20
 181 1248 181 1248 250 1304 c 128,-1,21
 319 1360 319 1360 417 1360 c 0,22,23
 466 1360 466 1360 514 1352.5 c 128,-1,24
 562 1345 562 1345 613 1327 c 128,-1,25
 664 1309 664 1309 695.5 1271.5 c 128,-1,26
 727 1234 727 1234 727 1181 c 0,27,28
 727 1160 727 1160 705.5 1147 c 128,-1,29
 684 1134 684 1134 662 1134 c 128,-1,30
 640 1134 640 1134 610.5 1159.5 c 128,-1,31
 581 1185 581 1185 555.5 1215 c 128,-1,32
 530 1245 530 1245 491 1270.5 c 128,-1,33
 452 1296 452 1296 413 1296 c 0,34,35
 352 1296 352 1296 306.5 1266.5 c 128,-1,36
 261 1237 261 1237 261 1179 c 0,37,38
 261 1143 261 1143 287.5 1102 c 128,-1,39
 314 1061 314 1061 356.5 1019.5 c 128,-1,40
 399 978 399 978 450.5 930.5 c 128,-1,41
 502 883 502 883 554 825.5 c 128,-1,42
 606 768 606 768 648.5 704.5 c 128,-1,43
 691 641 691 641 717.5 556.5 c 128,-1,44
 744 472 744 472 744 381 c 0,45,46
 744 227 744 227 658 76 c 1,47,48
 683 26 683 26 683 -21 c 0,49,50
 683 -113 683 -113 605.5 -167.5 c 128,-1,51
 528 -222 528 -222 432 -222 c 0,52,53
 393 -222 393 -222 353 -217.5 c 128,-1,54
 313 -213 313 -213 267 -200 c 128,-1,55
 221 -187 221 -187 186 -166.5 c 128,-1,56
 151 -146 151 -146 128 -112 c 128,-1,57
 105 -78 105 -78 105 -34 c 0,58,59
 105 -3 105 -3 124.5 14 c 128,-1,60
 144 31 144 31 175 31 c 0,61,62
 197 31 197 31 212.5 17.5 c 128,-1,63
 228 4 228 4 235.5 -16 c 128,-1,64
 243 -36 243 -36 257 -59 c 128,-1,65
 271 -82 271 -82 288 -102 c 128,-1,66
 305 -122 305 -122 341.5 -135.5 c 128,-1,67
 378 -149 378 -149 429 -149 c 0,68,69
 471 -149 471 -149 508.5 -139 c 128,-1,70
 546 -129 546 -129 575.5 -100.5 c 128,-1,71
 605 -72 605 -72 605 -30 c 0,72,73
 605 17 605 17 578 65 c 128,-1,74
 551 113 551 113 507.5 156.5 c 128,-1,75
 464 200 464 200 411 247 c 128,-1,76
 358 294 358 294 305.5 348 c 128,-1,77
 253 402 253 402 209.5 460.5 c 128,-1,78
 166 519 166 519 139 596 c 128,-1,79
 112 673 112 673 112 757 c 0,80,81
 112 910 112 910 195 1073 c 1,17,18
EndSplineSet
EndChar

StartChar: dieresis
Encoding: 102 168 105
Width: 1121
Flags: W
LayerCount: 2
Fore
SplineSet
338 1301 m 0,0,1
 383 1301 383 1301 415 1269 c 128,-1,2
 447 1237 447 1237 447 1192 c 0,3,4
 447 1146 447 1146 415 1114.5 c 128,-1,5
 383 1083 383 1083 338 1083 c 0,6,7
 292 1083 292 1083 260.5 1114.5 c 128,-1,8
 229 1146 229 1146 229 1192 c 0,9,10
 229 1237 229 1237 260.5 1269 c 128,-1,11
 292 1301 292 1301 338 1301 c 0,0,1
777 1301 m 0,12,13
 823 1301 823 1301 855 1269 c 128,-1,14
 887 1237 887 1237 887 1192 c 0,15,16
 887 1146 887 1146 855 1114.5 c 128,-1,17
 823 1083 823 1083 777 1083 c 0,18,19
 732 1083 732 1083 700.5 1114.5 c 128,-1,20
 669 1146 669 1146 669 1192 c 0,21,22
 669 1237 669 1237 700.5 1269 c 128,-1,23
 732 1301 732 1301 777 1301 c 0,12,13
EndSplineSet
EndChar

StartChar: copyright
Encoding: 103 169 106
Width: 1507
Flags: W
LayerCount: 2
Fore
SplineSet
1350 627 m 0,0,1
 1350 755 1350 755 1306.5 868.5 c 128,-1,2
 1263 982 1263 982 1185.5 1066.5 c 128,-1,3
 1108 1151 1108 1151 994.5 1200 c 128,-1,4
 881 1249 881 1249 748 1249 c 0,5,6
 580 1249 580 1249 445 1169 c 128,-1,7
 310 1089 310 1089 236 956 c 128,-1,8
 162 823 162 823 162 666 c 0,9,10
 162 491 162 491 239 348.5 c 128,-1,11
 316 206 316 206 456 123.5 c 128,-1,12
 596 41 596 41 772 41 c 0,13,14
 890 41 890 41 997 87 c 128,-1,15
 1104 133 1104 133 1181.5 211 c 128,-1,16
 1259 289 1259 289 1304.5 398 c 128,-1,17
 1350 507 1350 507 1350 627 c 0,0,1
1435 646 m 0,18,19
 1435 456 1435 456 1343.5 302 c 128,-1,20
 1252 148 1252 148 1096 62.5 c 128,-1,21
 940 -23 940 -23 753 -23 c 0,22,23
 575 -23 575 -23 420 61.5 c 128,-1,24
 265 146 265 146 169 301 c 128,-1,25
 73 456 73 456 73 646 c 0,26,27
 73 787 73 787 129 913 c 128,-1,28
 185 1039 185 1039 278.5 1126 c 128,-1,29
 372 1213 372 1213 496.5 1263.5 c 128,-1,30
 621 1314 621 1314 754 1314 c 128,-1,31
 887 1314 887 1314 1011 1264.5 c 128,-1,32
 1135 1215 1135 1215 1228.5 1129 c 128,-1,33
 1322 1043 1322 1043 1378.5 916.5 c 128,-1,34
 1435 790 1435 790 1435 646 c 0,18,19
1080 1080 m 1,35,-1
 1101 840 l 1,36,37
 1089 838 1089 838 1071 838 c 1,38,39
 992 1055 992 1055 775 1055 c 0,40,41
 639 1055 639 1055 555 950.5 c 128,-1,42
 471 846 471 846 471 678 c 0,43,44
 471 489 471 489 558 385.5 c 128,-1,45
 645 282 645 282 801 282 c 0,46,47
 893 282 893 282 955 308 c 128,-1,48
 1017 334 1017 334 1088 392 c 1,49,50
 1099 389 1099 389 1114 376 c 1,51,52
 1074 298 1074 298 973.5 251.5 c 128,-1,53
 873 205 873 205 763 205 c 0,54,55
 568 205 568 205 439 329.5 c 128,-1,56
 310 454 310 454 310 647 c 0,57,58
 310 834 310 834 439 959 c 128,-1,59
 568 1084 568 1084 756 1096 c 1,60,61
 821 1096 821 1096 897 1075 c 128,-1,62
 973 1054 973 1054 989 1054 c 0,63,64
 1006 1054 1006 1054 1016 1080 c 1,65,-1
 1080 1080 l 1,35,-1
EndSplineSet
EndChar

StartChar: ordfeminine
Encoding: 104 170 107
Width: 708
Flags: W
LayerCount: 2
Fore
SplineSet
439 688 m 1,0,-1
 439 855 l 1,1,2
 426 851 426 851 393.5 841.5 c 128,-1,3
 361 832 361 832 340.5 825.5 c 128,-1,4
 320 819 320 819 291.5 805.5 c 128,-1,5
 263 792 263 792 246.5 778 c 128,-1,6
 230 764 230 764 217.5 742 c 128,-1,7
 205 720 205 720 205 693 c 0,8,9
 205 657 205 657 228.5 638 c 128,-1,10
 252 619 252 619 289 619 c 0,11,12
 358 619 358 619 439 688 c 1,0,-1
439 893 m 1,13,-1
 439 959 l 2,14,15
 439 1035 439 1035 413 1076 c 128,-1,16
 387 1117 387 1117 314 1117 c 0,17,18
 296 1117 296 1117 272 1111 c 128,-1,19
 248 1105 248 1105 226.5 1090.5 c 128,-1,20
 205 1076 205 1076 205 1058 c 0,21,22
 205 1046 205 1046 217 1026 c 128,-1,23
 229 1006 229 1006 229 995 c 0,24,25
 229 975 229 975 200 955 c 128,-1,26
 171 935 171 935 149 935 c 0,27,28
 128 935 128 935 110 964 c 128,-1,29
 92 993 92 993 92 1016 c 0,30,31
 92 1056 92 1056 118.5 1086.5 c 128,-1,32
 145 1117 145 1117 186.5 1133 c 128,-1,33
 228 1149 228 1149 268.5 1156.5 c 128,-1,34
 309 1164 309 1164 345 1164 c 0,35,36
 472 1164 472 1164 519 1110.5 c 128,-1,37
 566 1057 566 1057 566 928 c 0,38,39
 566 923 566 923 563 869.5 c 128,-1,40
 560 816 560 816 560 780 c 0,41,42
 560 736 560 736 560.5 716.5 c 128,-1,43
 561 697 561 697 564.5 673.5 c 128,-1,44
 568 650 568 650 575.5 642 c 128,-1,45
 583 634 583 634 597 634 c 0,46,47
 614 634 614 634 646 651 c 1,48,-1
 662 602 l 1,49,50
 645 573 645 573 608.5 559.5 c 128,-1,51
 572 546 572 546 532 546 c 128,-1,52
 492 546 492 546 468 574 c 128,-1,53
 444 602 444 602 441 644 c 1,54,55
 326 546 326 546 227 546 c 0,56,57
 164 546 164 546 117 579 c 128,-1,58
 70 612 70 612 70 673 c 0,59,60
 70 720 70 720 95.5 755 c 128,-1,61
 121 790 121 790 167.5 811.5 c 128,-1,62
 214 833 214 833 257 845.5 c 128,-1,63
 300 858 300 858 357 871.5 c 128,-1,64
 414 885 414 885 439 893 c 1,13,-1
EndSplineSet
EndChar

StartChar: guillemotleft
Encoding: 105 171 108
Width: 794
Flags: W
LayerCount: 2
Fore
SplineSet
228 507 m 1,0,1
 249 465 249 465 301 373.5 c 128,-1,2
 353 282 353 282 389.5 209.5 c 128,-1,3
 426 137 426 137 442 85 c 1,4,5
 424 63 424 63 400 63 c 1,6,7
 370 83 370 83 339 124 c 2,8,-1
 45 507 l 1,9,-1
 346 885 l 2,10,11
 352 893 352 893 362.5 906.5 c 128,-1,12
 373 920 373 920 381 930.5 c 128,-1,13
 389 941 389 941 396 947 c 1,14,15
 430 947 430 947 449 922 c 1,16,17
 434 874 434 874 396 802.5 c 128,-1,18
 358 731 358 731 304 640 c 128,-1,19
 250 549 250 549 228 507 c 1,0,1
693 808 m 2,20,-1
 540 507 l 1,21,-1
 689 200 l 2,22,23
 701 175 701 175 710 134 c 1,24,25
 693 113 693 113 669 113 c 1,26,27
 645 128 645 128 613 172 c 2,28,-1
 369 507 l 1,29,30
 543 744 543 744 665 898 c 1,31,32
 700 898 700 898 718 872 c 1,33,34
 708 837 708 837 693 808 c 2,20,-1
EndSplineSet
EndChar

StartChar: logicalnot
Encoding: 106 172 109
Width: 1345
Flags: W
LayerCount: 2
Fore
SplineSet
141 893 m 1,0,-1
 314 893 l 2,1,2
 560 893 560 893 1048 895 c 0,3,4
 1108 895 1108 895 1183 885 c 1,5,6
 1198 786 1198 786 1198 620 c 2,7,-1
 1198 403 l 2,8,9
 1198 317 1198 317 1167 286 c 1,10,11
 1140 286 1140 286 1097.5 299 c 128,-1,12
 1055 312 1055 312 1043 314 c 1,13,-1
 1043 742 l 1,14,-1
 230 742 l 2,15,16
 142 742 142 742 109 773 c 1,17,18
 109 794 109 794 114 813 c 128,-1,19
 119 832 119 832 128 856 c 128,-1,20
 137 880 137 880 141 893 c 1,0,-1
EndSplineSet
EndChar

StartChar: uni00AD
Encoding: 107 173 110
Width: 772
Flags: W
LayerCount: 2
Fore
SplineSet
586 391 m 2,0,-1
 151 391 l 1,1,2
 136 398 136 398 129 408.5 c 128,-1,3
 122 419 122 419 121 428.5 c 128,-1,4
 120 438 120 438 120 461 c 0,5,6
 120 506 120 506 124 525 c 1,7,8
 159 530 159 530 221 530 c 2,9,-1
 586 530 l 2,10,11
 643 530 643 530 685 524 c 1,12,13
 689 504 689 504 689 458 c 128,-1,14
 689 412 689 412 685 394 c 1,15,16
 658 391 658 391 586 391 c 2,0,-1
EndSplineSet
EndChar

StartChar: registered
Encoding: 108 174 111
Width: 1507
Flags: W
LayerCount: 2
Fore
SplineSet
1350 627 m 0,0,1
 1350 800 1350 800 1274.5 942 c 128,-1,2
 1199 1084 1199 1084 1060.5 1166.5 c 128,-1,3
 922 1249 922 1249 748 1249 c 0,4,5
 586 1249 586 1249 451.5 1172.5 c 128,-1,6
 317 1096 317 1096 239.5 962 c 128,-1,7
 162 828 162 828 162 666 c 0,8,9
 162 491 162 491 239 348.5 c 128,-1,10
 316 206 316 206 456 123.5 c 128,-1,11
 596 41 596 41 772 41 c 0,12,13
 931 41 931 41 1064 120 c 128,-1,14
 1197 199 1197 199 1273.5 333.5 c 128,-1,15
 1350 468 1350 468 1350 627 c 0,0,1
1435 646 m 0,16,17
 1435 458 1435 458 1344 304 c 128,-1,18
 1253 150 1253 150 1097 63.5 c 128,-1,19
 941 -23 941 -23 753 -23 c 0,20,21
 616 -23 616 -23 490.5 29.5 c 128,-1,22
 365 82 365 82 273.5 170.5 c 128,-1,23
 182 259 182 259 127.5 383.5 c 128,-1,24
 73 508 73 508 73 646 c 0,25,26
 73 830 73 830 165.5 984 c 128,-1,27
 258 1138 258 1138 414.5 1226 c 128,-1,28
 571 1314 571 1314 754 1314 c 0,29,30
 939 1314 939 1314 1095 1226.5 c 128,-1,31
 1251 1139 1251 1139 1343 985 c 128,-1,32
 1435 831 1435 831 1435 646 c 0,16,17
630 1018 m 1,33,-1
 630 680 l 1,34,35
 675 681 675 681 707 683.5 c 128,-1,36
 739 686 739 686 780.5 696 c 128,-1,37
 822 706 822 706 847.5 723.5 c 128,-1,38
 873 741 873 741 891.5 774 c 128,-1,39
 910 807 910 807 910 853 c 0,40,41
 910 941 910 941 849.5 982.5 c 128,-1,42
 789 1024 789 1024 697 1024 c 0,43,44
 663 1024 663 1024 630 1018 c 1,33,-1
701 644 m 1,45,-1
 630 644 l 1,46,-1
 630 338 l 2,47,48
 630 316 630 316 643.5 302 c 128,-1,49
 657 288 657 288 670 283.5 c 128,-1,50
 683 279 683 279 710.5 273.5 c 128,-1,51
 738 268 738 268 745 266 c 1,52,-1
 744 241 l 1,53,-1
 378 241 l 1,54,-1
 376 266 l 1,55,56
 386 270 386 270 405 274.5 c 128,-1,57
 424 279 424 279 435.5 283 c 128,-1,58
 447 287 447 287 460 295 c 128,-1,59
 473 303 473 303 479 316.5 c 128,-1,60
 485 330 485 330 485 349 c 2,61,-1
 485 951 l 2,62,63
 485 966 485 966 480 978 c 128,-1,64
 475 990 475 990 469.5 997.5 c 128,-1,65
 464 1005 464 1005 451 1013.5 c 128,-1,66
 438 1022 438 1022 431.5 1025 c 128,-1,67
 425 1028 425 1028 407 1035.5 c 128,-1,68
 389 1043 389 1043 384 1045 c 1,69,-1
 385 1069 l 1,70,-1
 746 1069 l 2,71,72
 800 1069 800 1069 852 1058.5 c 128,-1,73
 904 1048 904 1048 953.5 1025 c 128,-1,74
 1003 1002 1003 1002 1033.5 958.5 c 128,-1,75
 1064 915 1064 915 1064 857 c 0,76,77
 1064 811 1064 811 1045 774.5 c 128,-1,78
 1026 738 1026 738 992 714.5 c 128,-1,79
 958 691 958 691 920.5 676 c 128,-1,80
 883 661 883 661 838 652 c 1,81,82
 844 642 844 642 876 588.5 c 128,-1,83
 908 535 908 535 934.5 493.5 c 128,-1,84
 961 452 961 452 995.5 401.5 c 128,-1,85
 1030 351 1030 351 1059.5 319.5 c 128,-1,86
 1089 288 1089 288 1109 282 c 1,87,88
 1112 274 1112 274 1129 266.5 c 128,-1,89
 1146 259 1146 259 1146 241 c 1,90,-1
 947 241 l 1,91,92
 791 481 791 481 701 644 c 1,45,-1
EndSplineSet
EndChar

StartChar: macron
Encoding: 109 175 112
Width: 772
Flags: W
LayerCount: 2
Fore
SplineSet
691 1044 m 1,0,-1
 89 1044 l 1,1,-1
 89 1172 l 1,2,-1
 691 1172 l 1,3,-1
 691 1044 l 1,0,-1
EndSplineSet
EndChar

StartChar: degree
Encoding: 110 176 113
Width: 703
Flags: W
LayerCount: 2
Fore
SplineSet
593 1045 m 0,0,1
 593 946 593 946 522.5 874.5 c 128,-1,2
 452 803 452 803 351 803 c 0,3,4
 248 803 248 803 177 873.5 c 128,-1,5
 106 944 106 944 106 1045 c 0,6,7
 106 1145 106 1145 177.5 1216 c 128,-1,8
 249 1287 249 1287 351 1287 c 0,9,10
 452 1287 452 1287 522.5 1216 c 128,-1,11
 593 1145 593 1145 593 1045 c 0,0,1
543 1045 m 0,12,13
 543 1121 543 1121 487 1177 c 128,-1,14
 431 1233 431 1233 352 1233 c 128,-1,15
 273 1233 273 1233 216.5 1177 c 128,-1,16
 160 1121 160 1121 160 1045 c 0,17,18
 160 966 160 966 216 910.5 c 128,-1,19
 272 855 272 855 352 855 c 0,20,21
 431 855 431 855 487 911.5 c 128,-1,22
 543 968 543 968 543 1045 c 0,12,13
EndSplineSet
EndChar

StartChar: plusminus
Encoding: 111 177 114
Width: 1099
Flags: W
LayerCount: 2
Fore
SplineSet
107 618 m 1,0,1
 171 642 171 642 321 642 c 0,2,3
 356 642 356 642 411.5 640.5 c 128,-1,4
 467 639 467 639 482 639 c 1,5,6
 482 670 482 670 481 734 c 128,-1,7
 480 798 480 798 480 831 c 0,8,9
 480 940 480 940 490 1012 c 1,10,11
 520 1015 520 1015 550 1015 c 0,12,13
 589 1015 589 1015 608 1012 c 1,14,15
 619 937 619 937 619 825 c 0,16,17
 619 793 619 793 618 731 c 128,-1,18
 617 669 617 669 617 639 c 1,19,20
 644 639 644 639 700 639.5 c 128,-1,21
 756 640 756 640 785 640 c 0,22,23
 908 640 908 640 990 629 c 1,24,25
 993 599 993 599 993 570 c 0,26,27
 993 540 993 540 990 512 c 1,28,29
 914 503 914 503 810 503 c 0,30,31
 777 503 777 503 712.5 504 c 128,-1,32
 648 505 648 505 617 505 c 1,33,34
 617 478 617 478 617.5 422 c 128,-1,35
 618 366 618 366 618 337 c 0,36,37
 618 214 618 214 607 132 c 1,38,39
 577 129 577 129 548 129 c 128,-1,40
 519 129 519 129 489 132 c 1,41,42
 480 208 480 208 480 312 c 0,43,44
 480 345 480 345 481 409.5 c 128,-1,45
 482 474 482 474 482 505 c 1,46,-1
 159 505 l 1,47,48
 126 524 126 524 116.5 549 c 128,-1,49
 107 574 107 574 107 618 c 1,0,1
EndSplineSet
EndChar

StartChar: acute
Encoding: 112 180 115
Width: 968
Flags: W
LayerCount: 2
Fore
SplineSet
650 1442 m 0,0,1
 622 1417 622 1417 478 1284 c 128,-1,2
 334 1151 334 1151 294 1116 c 0,3,4
 271 1096 271 1096 254 1096 c 0,5,6
 231 1096 231 1096 231 1122 c 0,7,8
 231 1136 231 1136 242 1152 c 1,9,10
 253 1166 253 1166 529 1536 c 0,11,12
 554 1570 554 1570 590 1570 c 0,13,14
 621 1570 621 1570 646 1544 c 128,-1,15
 671 1518 671 1518 671 1488 c 0,16,17
 671 1460 671 1460 650 1442 c 0,0,1
EndSplineSet
EndChar

StartChar: paragraph
Encoding: 113 182 116
Width: 1029
Flags: W
LayerCount: 2
Fore
SplineSet
835 1204 m 1,0,-1
 836 -112 l 2,1,2
 836 -131 836 -131 878 -137.5 c 128,-1,3
 920 -144 920 -144 962.5 -146.5 c 128,-1,4
 1005 -149 1005 -149 1005 -158 c 2,5,-1
 1005 -224 l 1,6,-1
 744 -224 l 1,7,-1
 744 1220 l 1,8,-1
 604 1220 l 1,9,-1
 604 -224 l 1,10,-1
 313 -224 l 1,11,-1
 313 -158 l 2,12,13
 313 -149 313 -149 362.5 -146 c 128,-1,14
 412 -143 412 -143 462 -136.5 c 128,-1,15
 512 -130 512 -130 512 -112 c 2,16,-1
 512 577 l 1,17,18
 22 577 22 577 22 935 c 0,19,20
 22 1021 22 1021 52 1087.5 c 128,-1,21
 82 1154 82 1154 130.5 1194 c 128,-1,22
 179 1234 179 1234 247.5 1259 c 128,-1,23
 316 1284 316 1284 385.5 1293.5 c 128,-1,24
 455 1303 455 1303 535 1303 c 2,25,-1
 1003 1303 l 1,26,-1
 1005 1264 l 1,27,28
 992 1252 992 1252 921.5 1241 c 128,-1,29
 851 1230 851 1230 835 1204 c 1,0,-1
EndSplineSet
EndChar

StartChar: cedilla
Encoding: 114 184 117
Width: 691
Flags: W
LayerCount: 2
Fore
SplineSet
358 11 m 1,0,1
 375 -62 375 -62 382 -94 c 1,2,3
 462 -105 462 -105 502.5 -147.5 c 128,-1,4
 543 -190 543 -190 543 -246 c 0,5,6
 543 -327 543 -327 475.5 -376 c 128,-1,7
 408 -425 408 -425 312 -425 c 0,8,9
 250 -425 250 -425 176 -393 c 1,10,-1
 189 -336 l 1,11,12
 229 -356 229 -356 271 -356 c 0,13,14
 316 -356 316 -356 348 -331.5 c 128,-1,15
 380 -307 380 -307 380 -268 c 0,16,17
 380 -171 380 -171 228 -164 c 1,18,-1
 275 11 l 1,19,-1
 358 11 l 1,0,1
EndSplineSet
EndChar

StartChar: ordmasculine
Encoding: 115 186 118
Width: 791
Flags: W
LayerCount: 2
Fore
SplineSet
209 893 m 0,0,1
 209 761 209 761 267 681.5 c 128,-1,2
 325 602 325 602 408 602 c 0,3,4
 484 602 484 602 536 658.5 c 128,-1,5
 588 715 588 715 588 808 c 0,6,7
 588 861 588 861 575.5 914.5 c 128,-1,8
 563 968 563 968 539.5 1014.5 c 128,-1,9
 516 1061 516 1061 476 1090 c 128,-1,10
 436 1119 436 1119 386 1119 c 0,11,12
 307 1119 307 1119 258 1060 c 128,-1,13
 209 1001 209 1001 209 893 c 0,0,1
72 861 m 0,14,15
 72 993 72 993 167 1078.5 c 128,-1,16
 262 1164 262 1164 392 1164 c 0,17,18
 531 1164 531 1164 625 1080.5 c 128,-1,19
 719 997 719 997 719 858 c 128,-1,20
 719 719 719 719 625.5 633 c 128,-1,21
 532 547 532 547 399 547 c 0,22,23
 265 547 265 547 168.5 635 c 128,-1,24
 72 723 72 723 72 861 c 0,14,15
EndSplineSet
EndChar

StartChar: guillemotright
Encoding: 116 187 119
Width: 794
Flags: W
LayerCount: 2
Fore
SplineSet
352 85 m 1,0,1
 372 152 372 152 406 221 c 128,-1,2
 440 290 440 290 493.5 380.5 c 128,-1,3
 547 471 547 471 566 507 c 1,4,5
 548 539 548 539 493 628 c 128,-1,6
 438 717 438 717 401 787.5 c 128,-1,7
 364 858 364 858 345 921 c 1,8,9
 363 946 363 946 398 946 c 1,10,11
 454 886 454 886 513 812 c 128,-1,12
 572 738 572 738 640.5 646.5 c 128,-1,13
 709 555 709 555 748 507 c 1,14,-1
 461 132 l 2,15,16
 426 86 426 86 394 63 c 1,17,18
 371 63 371 63 352 85 c 1,0,1
84 134 m 1,19,20
 95 190 95 190 122 252 c 128,-1,21
 149 314 149 314 196 399 c 128,-1,22
 243 484 243 484 254 507 c 1,23,24
 242 531 242 531 195.5 611.5 c 128,-1,25
 149 692 149 692 118.5 756 c 128,-1,26
 88 820 88 820 76 872 c 1,27,28
 95 897 95 897 129 897 c 1,29,30
 193 825 193 825 303 674 c 128,-1,31
 413 523 413 523 425 507 c 1,32,33
 419 498 419 498 373.5 432 c 128,-1,34
 328 366 328 366 288 308.5 c 128,-1,35
 248 251 248 251 199.5 191 c 128,-1,36
 151 131 151 131 125 112 c 1,37,38
 103 112 103 112 84 134 c 1,19,20
EndSplineSet
EndChar

StartChar: onequarter
Encoding: 117 188 120
Width: 1894
Flags: W
LayerCount: 2
Fore
SplineSet
398 1295 m 1,0,-1
 397 685 l 2,1,2
 397 654 397 654 398.5 638 c 128,-1,3
 400 622 400 622 407 601.5 c 128,-1,4
 414 581 414 581 431 571 c 128,-1,5
 448 561 448 561 476 559 c 0,6,7
 478 559 478 559 487.5 558.5 c 128,-1,8
 497 558 497 558 503.5 557.5 c 128,-1,9
 510 557 510 557 517 554.5 c 128,-1,10
 524 552 524 552 526 548 c 1,11,-1
 526 512 l 1,12,-1
 115 512 l 1,13,-1
 115 547 l 1,14,15
 135 557 135 557 158.5 561 c 128,-1,16
 182 565 182 565 196 566 c 128,-1,17
 210 567 210 567 223 574.5 c 128,-1,18
 236 582 236 582 241.5 603 c 128,-1,19
 247 624 247 624 247 663 c 2,20,-1
 247 1084 l 2,21,22
 247 1117 247 1117 241 1136.5 c 128,-1,23
 235 1156 235 1156 221.5 1165 c 128,-1,24
 208 1174 208 1174 194 1177.5 c 128,-1,25
 180 1181 180 1181 157 1186.5 c 128,-1,26
 134 1192 134 1192 117 1199 c 1,27,-1
 119 1234 l 1,28,29
 259 1250 259 1250 364 1301 c 1,30,31
 381 1301 381 1301 398 1295 c 1,0,-1
543 -77 m 1,32,33
 525 -81 525 -81 489 -81 c 2,34,-1
 456 -81 l 1,35,36
 461 -65 461 -65 472 -27 c 128,-1,37
 483 11 483 11 493 40 c 128,-1,38
 503 69 503 69 515 91 c 2,39,-1
 1024 1045 l 2,40,41
 1038 1071 1038 1071 1069.5 1136.5 c 128,-1,42
 1101 1202 1101 1202 1122.5 1244.5 c 128,-1,43
 1144 1287 1144 1287 1180 1336 c 128,-1,44
 1216 1385 1216 1385 1253 1410 c 1,45,46
 1305 1410 1305 1410 1343 1386 c 1,47,-1
 1265 1254 l 2,48,49
 1239 1211 1239 1211 1183.5 1118 c 128,-1,50
 1128 1025 1128 1025 1096 970.5 c 128,-1,51
 1064 916 1064 916 1018.5 837 c 128,-1,52
 973 758 973 758 937 691 c 0,53,54
 899 620 899 620 856.5 533.5 c 128,-1,55
 814 447 814 447 786.5 387.5 c 128,-1,56
 759 328 759 328 710 222.5 c 128,-1,57
 661 117 661 117 640 71 c 0,58,59
 623 34 623 34 543 -77 c 1,32,33
1202 325 m 1,60,-1
 1465 325 l 1,61,-1
 1465 716 l 1,62,-1
 1202 325 l 1,60,-1
1745 251 m 1,63,-1
 1617 251 l 1,64,-1
 1617 155 l 2,65,66
 1617 135 1617 135 1632 121 c 128,-1,67
 1647 107 1647 107 1663.5 102 c 128,-1,68
 1680 97 1680 97 1707 91.5 c 128,-1,69
 1734 86 1734 86 1742 84 c 1,70,-1
 1742 47 l 1,71,-1
 1342 47 l 1,72,-1
 1342 83 l 1,73,74
 1349 86 1349 86 1388.5 93.5 c 128,-1,75
 1428 101 1428 101 1447.5 114.5 c 128,-1,76
 1467 128 1467 128 1467 155 c 2,77,-1
 1467 251 l 1,78,-1
 1116 251 l 1,79,-1
 1111 319 l 1,80,-1
 1477 840 l 1,81,82
 1615 846 1615 846 1617 846 c 1,83,-1
 1617 328 l 1,84,85
 1656 328 1656 328 1678.5 333 c 128,-1,86
 1701 338 1701 338 1708 343 c 128,-1,87
 1715 348 1715 348 1725.5 363 c 128,-1,88
 1736 378 1736 378 1745 386 c 1,89,90
 1766 386 1766 386 1774 367 c 1,91,92
 1770 344 1770 344 1758 300 c 128,-1,93
 1746 256 1746 256 1745 251 c 1,63,-1
EndSplineSet
EndChar

StartChar: onehalf
Encoding: 118 189 121
Width: 1831
Flags: W
LayerCount: 2
Fore
SplineSet
395 1295 m 1,0,-1
 394 685 l 2,1,2
 394 654 394 654 395.5 638 c 128,-1,3
 397 622 397 622 404 601.5 c 128,-1,4
 411 581 411 581 428 571 c 128,-1,5
 445 561 445 561 473 559 c 0,6,7
 475 559 475 559 485 558.5 c 128,-1,8
 495 558 495 558 501.5 557.5 c 128,-1,9
 508 557 508 557 515 554.5 c 128,-1,10
 522 552 522 552 525 548 c 1,11,-1
 523 512 l 1,12,-1
 114 512 l 1,13,-1
 112 547 l 1,14,15
 133 557 133 557 156.5 561 c 128,-1,16
 180 565 180 565 194 566 c 128,-1,17
 208 567 208 567 220.5 574 c 128,-1,18
 233 581 233 581 238.5 602 c 128,-1,19
 244 623 244 623 244 663 c 2,20,-1
 244 1084 l 2,21,22
 244 1117 244 1117 238 1136.5 c 128,-1,23
 232 1156 232 1156 218.5 1165 c 128,-1,24
 205 1174 205 1174 192 1177.5 c 128,-1,25
 179 1181 179 1181 156 1186.5 c 128,-1,26
 133 1192 133 1192 116 1199 c 1,27,-1
 116 1234 l 1,28,29
 256 1250 256 1250 361 1301 c 1,30,31
 379 1301 379 1301 395 1295 c 1,0,-1
1679 269 m 1,32,-1
 1636 45 l 1,33,-1
 1571 45 l 2,34,35
 1521 45 1521 45 1419 45.5 c 128,-1,36
 1317 46 1317 46 1266 46 c 0,37,38
 1165 46 1165 46 1114 45 c 1,39,-1
 1110 88 l 1,40,41
 1134 116 1134 116 1191.5 173.5 c 128,-1,42
 1249 231 1249 231 1294.5 280.5 c 128,-1,43
 1340 330 1340 330 1388.5 390 c 128,-1,44
 1437 450 1437 450 1464.5 509.5 c 128,-1,45
 1492 569 1492 569 1492 620 c 0,46,47
 1492 679 1492 679 1457 720 c 128,-1,48
 1422 761 1422 761 1364 761 c 0,49,50
 1307 761 1307 761 1251 725 c 128,-1,51
 1195 689 1195 689 1152 636 c 1,52,-1
 1109 654 l 1,53,54
 1140 736 1140 736 1219 789 c 128,-1,55
 1298 842 1298 842 1390 842 c 0,56,57
 1498 842 1498 842 1575.5 784 c 128,-1,58
 1653 726 1653 726 1653 621 c 0,59,60
 1653 569 1653 569 1624 514 c 128,-1,61
 1595 459 1595 459 1545 407 c 128,-1,62
 1495 355 1495 355 1446.5 312 c 128,-1,63
 1398 269 1398 269 1339 220.5 c 128,-1,64
 1280 172 1280 172 1253 145 c 1,65,-1
 1462 145 l 2,66,67
 1529 145 1529 145 1561 160.5 c 128,-1,68
 1593 176 1593 176 1615 233 c 0,69,70
 1624 258 1624 258 1635 269 c 1,71,-1
 1679 269 l 1,32,-1
543 -77 m 1,72,73
 525 -81 525 -81 489 -81 c 2,74,-1
 456 -81 l 1,75,76
 462 -63 462 -63 472 -26.5 c 128,-1,77
 482 10 482 10 492 38.5 c 128,-1,78
 502 67 502 67 515 91 c 2,79,-1
 1024 1045 l 2,80,81
 1039 1072 1039 1072 1069.5 1137.5 c 128,-1,82
 1100 1203 1100 1203 1121.5 1245 c 128,-1,83
 1143 1287 1143 1287 1179 1335.5 c 128,-1,84
 1215 1384 1215 1384 1253 1410 c 1,85,86
 1305 1410 1305 1410 1343 1386 c 1,87,88
 1303 1318 1303 1318 1214 1170.5 c 128,-1,89
 1125 1023 1125 1023 1059 910 c 128,-1,90
 993 797 993 797 937 691 c 0,91,92
 889 601 889 601 819 444.5 c 128,-1,93
 749 288 749 288 682.5 156 c 128,-1,94
 616 24 616 24 543 -77 c 1,72,73
EndSplineSet
EndChar

StartChar: threequarters
Encoding: 119 190 122
Width: 1931
Flags: W
LayerCount: 2
Fore
SplineSet
643 -77 m 1,0,1
 625 -81 625 -81 589 -81 c 2,2,-1
 556 -81 l 1,3,4
 561 -65 561 -65 572 -27 c 128,-1,5
 583 11 583 11 593 40 c 128,-1,6
 603 69 603 69 615 91 c 2,7,-1
 1124 1045 l 2,8,9
 1138 1071 1138 1071 1169.5 1136.5 c 128,-1,10
 1201 1202 1201 1202 1222.5 1244.5 c 128,-1,11
 1244 1287 1244 1287 1280 1336 c 128,-1,12
 1316 1385 1316 1385 1353 1410 c 1,13,14
 1405 1410 1405 1410 1443 1386 c 1,15,-1
 1365 1254 l 2,16,17
 1339 1211 1339 1211 1283.5 1118 c 128,-1,18
 1228 1025 1228 1025 1196 970.5 c 128,-1,19
 1164 916 1164 916 1118.5 837 c 128,-1,20
 1073 758 1073 758 1037 691 c 0,21,22
 999 620 999 620 956.5 533.5 c 128,-1,23
 914 447 914 447 886.5 387.5 c 128,-1,24
 859 328 859 328 810 222.5 c 128,-1,25
 761 117 761 117 740 71 c 0,26,27
 723 34 723 34 643 -77 c 1,0,1
1202 325 m 1,28,-1
 1465 325 l 1,29,-1
 1465 716 l 1,30,-1
 1202 325 l 1,28,-1
1745 251 m 1,31,-1
 1617 251 l 1,32,-1
 1617 155 l 2,33,34
 1617 135 1617 135 1632 121 c 128,-1,35
 1647 107 1647 107 1663.5 102 c 128,-1,36
 1680 97 1680 97 1707 91.5 c 128,-1,37
 1734 86 1734 86 1742 84 c 1,38,-1
 1742 47 l 1,39,-1
 1342 47 l 1,40,-1
 1342 83 l 1,41,42
 1349 86 1349 86 1388.5 93.5 c 128,-1,43
 1428 101 1428 101 1447.5 114.5 c 128,-1,44
 1467 128 1467 128 1467 155 c 2,45,-1
 1467 251 l 1,46,-1
 1116 251 l 1,47,-1
 1111 319 l 1,48,-1
 1477 840 l 1,49,50
 1615 846 1615 846 1617 846 c 1,51,-1
 1617 328 l 1,52,53
 1656 328 1656 328 1678.5 333 c 128,-1,54
 1701 338 1701 338 1708 343 c 128,-1,55
 1715 348 1715 348 1725.5 363 c 128,-1,56
 1736 378 1736 378 1745 386 c 1,57,58
 1766 386 1766 386 1774 367 c 1,59,60
 1770 344 1770 344 1758 300 c 128,-1,61
 1746 256 1746 256 1745 251 c 1,31,-1
397 950 m 1,62,63
 521 950 521 950 598.5 873.5 c 128,-1,64
 676 797 676 797 676 673 c 0,65,66
 676 620 676 620 655 575 c 128,-1,67
 634 530 634 530 599.5 499.5 c 128,-1,68
 565 469 565 469 519.5 447 c 128,-1,69
 474 425 474 425 425.5 415 c 128,-1,70
 377 405 377 405 328 405 c 0,71,72
 288 405 288 405 246 411.5 c 128,-1,73
 204 418 204 418 159.5 433.5 c 128,-1,74
 115 449 115 449 87 480 c 128,-1,75
 59 511 59 511 59 554 c 0,76,77
 59 586 59 586 82.5 609.5 c 128,-1,78
 106 633 106 633 137 633 c 0,79,80
 163 633 163 633 184 612.5 c 128,-1,81
 205 592 205 592 205 566 c 0,82,83
 205 554 205 554 197.5 534 c 128,-1,84
 190 514 190 514 190 504 c 0,85,86
 190 478 190 478 234 462.5 c 128,-1,87
 278 447 278 447 310 447 c 0,88,89
 403 447 403 447 457 511 c 128,-1,90
 511 575 511 575 511 670 c 0,91,92
 511 767 511 767 464.5 831.5 c 128,-1,93
 418 896 418 896 325 896 c 0,94,95
 294 896 294 896 251 887 c 1,96,-1
 217 925 l 1,97,98
 220 926 220 926 226 930 c 1,99,100
 262 947 262 947 284.5 958.5 c 128,-1,101
 307 970 307 970 348 995 c 128,-1,102
 389 1020 389 1020 413.5 1041.5 c 128,-1,103
 438 1063 438 1063 457.5 1092.5 c 128,-1,104
 477 1122 477 1122 477 1150 c 0,105,106
 477 1257 477 1257 372 1257 c 0,107,108
 328 1257 328 1257 260 1219.5 c 128,-1,109
 192 1182 192 1182 155 1182 c 0,110,111
 142 1182 142 1182 142 1201 c 1,112,-1
 145 1213 l 1,113,114
 182 1266 182 1266 251 1296.5 c 128,-1,115
 320 1327 320 1327 390 1327 c 0,116,117
 476 1327 476 1327 535.5 1281 c 128,-1,118
 595 1235 595 1235 595 1151 c 0,119,120
 595 1069 595 1069 538 1014 c 128,-1,121
 481 959 481 959 397 950 c 1,62,63
EndSplineSet
EndChar

StartChar: questiondown
Encoding: 120 191 123
Width: 806
Flags: W
LayerCount: 2
Fore
SplineSet
494 1080 m 128,-1,1
 443 1080 443 1080 405.5 1117 c 128,-1,2
 368 1154 368 1154 368 1205 c 128,-1,3
 368 1256 368 1256 405.5 1292.5 c 128,-1,4
 443 1329 443 1329 494 1329 c 0,5,6
 544 1329 544 1329 580.5 1292 c 128,-1,7
 617 1255 617 1255 617 1205 c 0,8,9
 617 1154 617 1154 581 1117 c 128,-1,0
 545 1080 545 1080 494 1080 c 128,-1,1
460 958 m 1,10,-1
 541 958 l 1,11,12
 544 930 544 930 558.5 856 c 128,-1,13
 573 782 573 782 573 740 c 0,14,15
 573 714 573 714 545.5 686 c 128,-1,16
 518 658 518 658 477.5 634.5 c 128,-1,17
 437 611 437 611 389 579 c 128,-1,18
 341 547 341 547 300.5 514 c 128,-1,19
 260 481 260 481 232.5 433.5 c 128,-1,20
 205 386 205 386 205 332 c 0,21,22
 205 238 205 238 278.5 168 c 128,-1,23
 352 98 352 98 446 98 c 0,24,25
 470 98 470 98 492.5 110.5 c 128,-1,26
 515 123 515 123 532.5 141 c 128,-1,27
 550 159 550 159 567.5 177 c 128,-1,28
 585 195 585 195 607.5 207.5 c 128,-1,29
 630 220 630 220 654 220 c 0,30,31
 686 220 686 220 708 194.5 c 128,-1,32
 730 169 730 169 730 137 c 0,33,34
 730 96 730 96 705.5 65.5 c 128,-1,35
 681 35 681 35 641 18.5 c 128,-1,36
 601 2 601 2 559 -5.5 c 128,-1,37
 517 -13 517 -13 474 -13 c 0,38,39
 378 -13 378 -13 284 36 c 128,-1,40
 190 85 190 85 129 169.5 c 128,-1,41
 68 254 68 254 68 346 c 0,42,43
 68 418 68 418 89.5 476 c 128,-1,44
 111 534 111 534 145.5 572 c 128,-1,45
 180 610 180 610 222 641.5 c 128,-1,46
 264 673 264 673 306 700.5 c 128,-1,47
 348 728 348 728 382.5 757 c 128,-1,48
 417 786 417 786 438.5 827 c 128,-1,49
 460 868 460 868 460 919 c 2,50,-1
 460 958 l 1,10,-1
EndSplineSet
EndChar

StartChar: AE
Encoding: 127 198 130
Width: 1966
Flags: W
LayerCount: 2
Fore
SplineSet
1415 638 m 1,0,-1
 1060 638 l 1,1,-1
 1142 256 l 2,2,3
 1145 246 1145 246 1151.5 219.5 c 128,-1,4
 1158 193 1158 193 1160.5 183.5 c 128,-1,5
 1163 174 1163 174 1169.5 154 c 128,-1,6
 1176 134 1176 134 1181 125.5 c 128,-1,7
 1186 117 1186 117 1194 105 c 128,-1,8
 1202 93 1202 93 1211.5 87 c 128,-1,9
 1221 81 1221 81 1233 78 c 0,10,11
 1256 72 1256 72 1341 70 c 1,12,-1
 1471 73 l 1,13,14
 1587 73 1587 73 1653 101 c 1,15,16
 1686 109 1686 109 1710.5 136.5 c 128,-1,17
 1735 164 1735 164 1748 195.5 c 128,-1,18
 1761 227 1761 227 1784 265 c 128,-1,19
 1807 303 1807 303 1835 325 c 1,20,21
 1858 325 1858 325 1889 322 c 1,22,-1
 1833 -20 l 1,23,24
 1777 -22 1777 -22 1754 -22 c 0,25,26
 1744 -22 1744 -22 1727 -11 c 128,-1,27
 1710 0 1710 0 1692 0 c 2,28,-1
 735 0 l 1,29,-1
 735 26 l 2,30,31
 735 44 735 44 736 52 c 1,32,33
 768 59 768 59 790 66 c 128,-1,34
 812 73 812 73 838 84.5 c 128,-1,35
 864 96 864 96 879.5 110 c 128,-1,36
 895 124 895 124 906 145.5 c 128,-1,37
 917 167 917 167 917 193 c 0,38,39
 917 200 917 200 914.5 216 c 128,-1,40
 912 232 912 232 912 241 c 1,41,-1
 845 609 l 1,42,-1
 461 609 l 1,43,-1
 323 358 l 2,44,45
 318 349 318 349 298 314.5 c 128,-1,46
 278 280 278 280 270 265 c 128,-1,47
 262 250 262 250 253.5 224.5 c 128,-1,48
 245 199 245 199 245 178 c 0,49,50
 245 156 245 156 254 139 c 128,-1,51
 263 122 263 122 275.5 111.5 c 128,-1,52
 288 101 288 101 309.5 92.5 c 128,-1,53
 331 84 331 84 349 79 c 128,-1,54
 367 74 367 74 394 67 c 128,-1,55
 421 60 421 60 438 55 c 1,56,-1
 435 25 l 1,57,-1
 433 0 l 1,58,-1
 -47 0 l 1,59,60
 -47 5 -47 5 -47.5 13 c 128,-1,61
 -48 21 -48 21 -48 25 c 0,62,63
 -48 34 -48 34 -46 52 c 1,64,65
 -35 58 -35 58 -2.5 72.5 c 128,-1,66
 30 87 30 87 50.5 98 c 128,-1,67
 71 109 71 109 98.5 134 c 128,-1,68
 126 159 126 159 144 192 c 0,69,70
 552 935 552 935 591 1006 c 0,71,72
 636 1090 636 1090 636 1148 c 0,73,74
 636 1198 636 1198 601 1224 c 1,75,76
 609 1240 609 1240 619.5 1261.5 c 128,-1,77
 630 1283 630 1283 634.5 1291.5 c 128,-1,78
 639 1300 639 1300 645 1309.5 c 128,-1,79
 651 1319 651 1319 656 1324 c 1,80,81
 757 1324 757 1324 808 1305 c 1,82,-1
 1546 1305 l 2,83,84
 1572 1305 1572 1305 1603 1323 c 1,85,86
 1637 1323 1637 1323 1685 1320 c 1,87,-1
 1741 997 l 1,88,89
 1707 995 1707 995 1690 995 c 1,90,91
 1663 1012 1663 1012 1639 1046.5 c 128,-1,92
 1615 1081 1615 1081 1600.5 1112 c 128,-1,93
 1586 1143 1586 1143 1561.5 1171 c 128,-1,94
 1537 1199 1537 1199 1508 1207 c 1,95,96
 1397 1231 1397 1231 1224 1231 c 2,97,-1
 1124 1231 l 2,98,99
 1003 1231 1003 1231 928 1209 c 1,100,101
 936 1172 936 1172 1045 719 c 1,102,-1
 1308 719 l 2,103,104
 1392 719 1392 719 1452 729 c 1,105,106
 1467 733 1467 733 1479.5 743 c 128,-1,107
 1492 753 1492 753 1499.5 764.5 c 128,-1,108
 1507 776 1507 776 1514 795.5 c 128,-1,109
 1521 815 1521 815 1524.5 827.5 c 128,-1,110
 1528 840 1528 840 1533 862 c 128,-1,111
 1538 884 1538 884 1540 893 c 1,112,113
 1552 893 1552 893 1594 891 c 1,114,-1
 1689 466 l 1,115,116
 1649 464 1649 464 1631 464 c 1,117,118
 1597 507 1597 507 1579 528 c 128,-1,119
 1561 549 1561 549 1530.5 579.5 c 128,-1,120
 1500 610 1500 610 1472 623.5 c 128,-1,121
 1444 637 1444 637 1415 638 c 1,0,-1
502 685 m 1,122,-1
 831 685 l 1,123,-1
 745 1130 l 1,124,-1
 502 685 l 1,122,-1
EndSplineSet
EndChar

StartChar: Eth
Encoding: 137 208 140
Width: 1613
Flags: W
LayerCount: 2
Fore
SplineSet
292 219 m 2,0,-1
 292 637 l 1,1,-1
 111 637 l 1,2,-1
 111 765 l 1,3,-1
 292 765 l 1,4,-1
 292 1010 l 2,5,6
 292 1069 292 1069 282 1131 c 0,7,8
 278 1154 278 1154 262 1172 c 128,-1,9
 246 1190 246 1190 220 1201.5 c 128,-1,10
 194 1213 194 1213 171 1220.5 c 128,-1,11
 148 1228 148 1228 115.5 1237 c 128,-1,12
 83 1246 83 1246 68 1251 c 1,13,-1
 70 1302 l 1,14,-1
 662 1302 l 2,15,16
 809 1302 809 1302 933.5 1280.5 c 128,-1,17
 1058 1259 1058 1259 1166.5 1210.5 c 128,-1,18
 1275 1162 1275 1162 1350.5 1088.5 c 128,-1,19
 1426 1015 1426 1015 1469 905.5 c 128,-1,20
 1512 796 1512 796 1512 658 c 0,21,22
 1512 556 1512 556 1483 460.5 c 128,-1,23
 1454 365 1454 365 1394.5 281 c 128,-1,24
 1335 197 1335 197 1250.5 134.5 c 128,-1,25
 1166 72 1166 72 1047 36 c 128,-1,26
 928 0 928 0 789 0 c 2,27,-1
 70 0 l 1,28,-1
 68 52 l 1,29,30
 84 57 84 57 126.5 66.5 c 128,-1,31
 169 76 169 76 190.5 84 c 128,-1,32
 212 92 212 92 239.5 108.5 c 128,-1,33
 267 125 267 125 279.5 152.5 c 128,-1,34
 292 180 292 180 292 219 c 2,0,-1
713 637 m 1,35,-1
 507 637 l 1,36,-1
 507 271 l 2,37,38
 507 86 507 86 655 80 c 0,39,40
 711 77 711 77 770 77 c 0,41,42
 870 77 870 77 954.5 107.5 c 128,-1,43
 1039 138 1039 138 1097 190 c 128,-1,44
 1155 242 1155 242 1195.5 311 c 128,-1,45
 1236 380 1236 380 1255 455 c 128,-1,46
 1274 530 1274 530 1274 609 c 0,47,48
 1274 741 1274 741 1238.5 851 c 128,-1,49
 1203 961 1203 961 1132 1046 c 128,-1,50
 1061 1131 1061 1131 944.5 1178 c 128,-1,51
 828 1225 828 1225 675 1225 c 2,52,-1
 507 1225 l 1,53,-1
 507 765 l 1,54,-1
 713 765 l 1,55,-1
 713 637 l 1,35,-1
EndSplineSet
EndChar

StartChar: multiply
Encoding: 144 215 147
Width: 1098
Flags: W
LayerCount: 2
Fore
SplineSet
141 932 m 1,0,1
 177 982 177 982 234 1023 c 1,2,3
 266 996 266 996 310 954.5 c 128,-1,4
 354 913 354 913 383.5 883.5 c 128,-1,5
 413 854 413 854 471.5 795 c 128,-1,6
 530 736 530 736 549 717 c 1,7,8
 562 730 562 730 609.5 778.5 c 128,-1,9
 657 827 657 827 680 849.5 c 128,-1,10
 703 872 703 872 741 909.5 c 128,-1,11
 779 947 779 947 808.5 974 c 128,-1,12
 838 1001 838 1001 864 1023 c 1,13,14
 917 984 917 984 957 932 c 1,15,16
 938 908 938 908 883 853 c 2,17,-1
 648 618 l 1,18,19
 670 596 670 596 726.5 540 c 128,-1,20
 783 484 783 484 814.5 452.5 c 128,-1,21
 846 421 846 421 887.5 377.5 c 128,-1,22
 929 334 929 334 956 303 c 1,23,24
 917 250 917 250 864 211 c 1,25,26
 836 231 836 231 784 284 c 2,27,-1
 549 519 l 1,28,-1
 315 285 l 2,29,30
 269 239 269 239 235 212 c 1,31,32
 182 251 182 251 143 304 c 1,33,34
 170 338 170 338 215 383 c 2,35,-1
 450 618 l 1,36,-1
 215 853 l 2,37,38
 160 908 160 908 141 932 c 1,0,1
EndSplineSet
EndChar

StartChar: Oslash
Encoding: 145 216 148
Width: 1603
Flags: W
LayerCount: 2
Fore
SplineSet
1128 1046 m 1,0,1
 831 628 831 628 569 171 c 1,2,3
 680 51 680 51 837 51 c 0,4,5
 1021 51 1021 51 1139.5 194.5 c 128,-1,6
 1258 338 1258 338 1258 586 c 0,7,8
 1258 859 1258 859 1128 1046 c 1,0,1
490 247 m 1,9,-1
 1056 1127 l 1,10,11
 936 1250 936 1250 769 1250 c 0,12,13
 589 1250 589 1250 467 1108 c 128,-1,14
 345 966 345 966 345 723 c 0,15,16
 345 582 345 582 384 456.5 c 128,-1,17
 423 331 423 331 490 247 c 1,9,-1
1133 1241 m 1,18,19
 1144 1261 1144 1261 1161 1295.5 c 128,-1,20
 1178 1330 1178 1330 1187.5 1347 c 128,-1,21
 1197 1364 1197 1364 1217.5 1383 c 128,-1,22
 1238 1402 1238 1402 1267 1413 c 1,23,24
 1309 1401 1309 1401 1334 1356 c 1,25,26
 1322 1335 1322 1335 1288.5 1284.5 c 128,-1,27
 1255 1234 1255 1234 1227 1189 c 1,28,29
 1351 1096 1351 1096 1421 957 c 128,-1,30
 1491 818 1491 818 1491 648 c 0,31,32
 1491 449 1491 449 1393.5 293.5 c 128,-1,33
 1296 138 1296 138 1135.5 56 c 128,-1,34
 975 -26 975 -26 783 -26 c 0,35,36
 611 -26 611 -26 489 57 c 1,37,38
 485 50 485 50 472 25.5 c 128,-1,39
 459 1 459 1 454.5 -6.5 c 128,-1,40
 450 -14 450 -14 438.5 -34 c 128,-1,41
 427 -54 427 -54 421.5 -61.5 c 128,-1,42
 416 -69 416 -69 404.5 -83.5 c 128,-1,43
 393 -98 393 -98 384.5 -105.5 c 128,-1,44
 376 -113 376 -113 364.5 -121.5 c 128,-1,45
 353 -130 353 -130 341 -136 c 1,46,47
 301 -118 301 -118 282 -71 c 1,48,49
 305 -34 305 -34 326 -5 c 1,50,-1
 393 105 l 1,51,52
 112 293 112 293 112 641 c 0,53,54
 112 794 112 794 167 924 c 128,-1,55
 222 1054 222 1054 316.5 1141.5 c 128,-1,56
 411 1229 411 1229 537.5 1278 c 128,-1,57
 664 1327 664 1327 805 1327 c 0,58,59
 989 1327 989 1327 1133 1241 c 1,18,19
EndSplineSet
EndChar

StartChar: Thorn
Encoding: 151 222 154
Width: 1296
Flags: W
LayerCount: 2
Fore
SplineSet
491 957 m 1,0,-1
 491 380 l 1,1,2
 589 375 589 375 667 375 c 0,3,4
 761 375 761 375 835.5 402 c 128,-1,5
 910 429 910 429 959 493.5 c 128,-1,6
 1008 558 1008 558 1008 654 c 0,7,8
 1008 702 1008 702 997 742.5 c 128,-1,9
 986 783 986 783 969 812.5 c 128,-1,10
 952 842 952 842 922.5 865 c 128,-1,11
 893 888 893 888 865.5 903 c 128,-1,12
 838 918 838 918 796.5 928.5 c 128,-1,13
 755 939 755 939 723.5 944.5 c 128,-1,14
 692 950 692 950 644.5 953 c 128,-1,15
 597 956 597 956 567.5 956.5 c 128,-1,16
 538 957 538 957 491 957 c 1,0,-1
275 214 m 2,17,-1
 275 1048 l 2,18,19
 275 1108 275 1108 266.5 1142 c 128,-1,20
 258 1176 258 1176 238 1190.5 c 128,-1,21
 218 1205 218 1205 196.5 1210 c 128,-1,22
 175 1215 175 1215 138 1225 c 128,-1,23
 101 1235 101 1235 70 1251 c 1,24,-1
 70 1302 l 1,25,-1
 703 1302 l 1,26,-1
 705 1250 l 1,27,28
 688 1244 688 1244 647 1232 c 128,-1,29
 606 1220 606 1220 586 1211 c 128,-1,30
 566 1202 566 1202 540 1184.5 c 128,-1,31
 514 1167 514 1167 502.5 1139.5 c 128,-1,32
 491 1112 491 1112 491 1072 c 2,33,-1
 491 1033 l 1,34,-1
 570 1033 l 2,35,36
 625 1033 625 1033 666.5 1032 c 128,-1,37
 708 1031 708 1031 765.5 1027 c 128,-1,38
 823 1023 823 1023 867 1016 c 128,-1,39
 911 1009 911 1009 963 995.5 c 128,-1,40
 1015 982 1015 982 1053 963.5 c 128,-1,41
 1091 945 1091 945 1128.5 917 c 128,-1,42
 1166 889 1166 889 1189.5 854.5 c 128,-1,43
 1213 820 1213 820 1227.5 772.5 c 128,-1,44
 1242 725 1242 725 1242 668 c 0,45,46
 1242 600 1242 600 1220 543 c 128,-1,47
 1198 486 1198 486 1158.5 446.5 c 128,-1,48
 1119 407 1119 407 1069 378 c 128,-1,49
 1019 349 1019 349 959.5 332.5 c 128,-1,50
 900 316 900 316 841 308 c 128,-1,51
 782 300 782 300 720 300 c 0,52,53
 613 300 613 300 491 308 c 1,54,55
 491 277 491 277 491.5 254 c 128,-1,56
 492 231 492 231 495 210.5 c 128,-1,57
 498 190 498 190 500 176 c 128,-1,58
 502 162 502 162 509.5 148.5 c 128,-1,59
 517 135 517 135 521.5 127 c 128,-1,60
 526 119 526 119 539.5 110.5 c 128,-1,61
 553 102 553 102 560.5 97.5 c 128,-1,62
 568 93 568 93 589 86.5 c 128,-1,63
 610 80 610 80 622.5 76.5 c 128,-1,64
 635 73 635 73 664 66 c 0,65,66
 700 57 700 57 721 51 c 1,67,-1
 719 0 l 1,68,-1
 70 0 l 1,69,-1
 68 52 l 1,70,71
 85 58 85 58 114.5 66.5 c 128,-1,72
 144 75 144 75 162.5 80.5 c 128,-1,73
 181 86 181 86 205 97.5 c 128,-1,74
 229 109 229 109 242.5 123 c 128,-1,75
 256 137 256 137 265.5 160 c 128,-1,76
 275 183 275 183 275 214 c 2,17,-1
EndSplineSet
EndChar

StartChar: germandbls
Encoding: 152 223 155
Width: 1200
Flags: W
LayerCount: 2
Fore
SplineSet
197 252 m 2,0,-1
 197 795 l 1,1,-1
 107 795 l 1,2,3
 107 799 107 799 106.5 808 c 128,-1,4
 106 817 106 817 106 821 c 0,5,6
 106 850 106 850 134 850 c 2,7,-1
 144 850 l 2,8,9
 173 850 173 850 185 862 c 1,10,11
 198 895 198 895 212 970 c 128,-1,12
 226 1045 226 1045 251.5 1108.5 c 128,-1,13
 277 1172 277 1172 330 1221 c 0,14,15
 440 1322 440 1322 619 1322 c 0,16,17
 794 1322 794 1322 907.5 1240.5 c 128,-1,18
 1021 1159 1021 1159 1021 1026 c 0,19,20
 1021 915 1021 915 958 848.5 c 128,-1,21
 895 782 895 782 764 744 c 1,22,-1
 764 741 l 1,23,24
 928 721 928 721 1025.5 613.5 c 128,-1,25
 1123 506 1123 506 1123 365 c 0,26,27
 1123 296 1123 296 1099.5 229 c 128,-1,28
 1076 162 1076 162 1033 106.5 c 128,-1,29
 990 51 990 51 919.5 17 c 128,-1,30
 849 -17 849 -17 764 -17 c 0,31,32
 671 -17 671 -17 615 26 c 128,-1,33
 559 69 559 69 559 133 c 0,34,35
 559 168 559 168 583 191.5 c 128,-1,36
 607 215 607 215 641 215 c 0,37,38
 671 215 671 215 686 201.5 c 128,-1,39
 701 188 701 188 704.5 168 c 128,-1,40
 708 148 708 148 709 128 c 128,-1,41
 710 108 710 108 718 92 c 128,-1,42
 726 76 726 76 745 73 c 1,43,44
 757 59 757 59 792 59 c 0,45,46
 849 59 849 59 892.5 131.5 c 128,-1,47
 936 204 936 204 936 309 c 0,48,49
 936 452 936 452 866 547.5 c 128,-1,50
 796 643 796 643 663 674 c 1,51,52
 631 685 631 685 584 707 c 1,53,54
 584 741 584 741 597 769 c 1,55,56
 840 793 840 793 840 1020 c 0,57,58
 840 1125 840 1125 771 1185.5 c 128,-1,59
 702 1246 702 1246 601 1246 c 0,60,61
 504 1246 504 1246 448.5 1177 c 128,-1,62
 393 1108 393 1108 386 978 c 0,63,64
 383 923 383 923 383 866 c 2,65,-1
 383 249 l 2,66,67
 383 153 383 153 407 116 c 1,68,69
 410 96 410 96 423 85.5 c 128,-1,70
 436 75 436 75 451 73 c 128,-1,71
 466 71 466 71 481 65.5 c 128,-1,72
 496 60 496 60 502 50 c 1,73,74
 502 17 502 17 500 0 c 1,75,-1
 41 0 l 1,76,77
 39 18 39 18 39 52 c 1,78,79
 53 63 53 63 90 73.5 c 128,-1,80
 127 84 127 84 154 102 c 128,-1,81
 181 120 181 120 188 156 c 0,82,83
 197 210 197 210 197 252 c 2,0,-1
EndSplineSet
EndChar

StartChar: ae
Encoding: 159 230 162
Width: 1447
Flags: W
LayerCount: 2
Fore
SplineSet
805 544 m 1,0,-1
 1114 583 l 1,1,2
 1159 592 1159 592 1197 614 c 1,3,4
 1182 734 1182 734 1139 793 c 128,-1,5
 1096 852 1096 852 1014 852 c 0,6,7
 911 852 911 852 859 769 c 128,-1,8
 807 686 807 686 805 544 c 1,0,-1
657 185 m 1,9,10
 619 283 619 283 617 446 c 1,11,12
 564 435 564 435 539 427 c 0,13,14
 451 400 451 400 404 382 c 128,-1,15
 357 364 357 364 321.5 338.5 c 128,-1,16
 286 313 286 313 274 282.5 c 128,-1,17
 262 252 262 252 262 205 c 0,18,19
 262 152 262 152 300 122 c 128,-1,20
 338 92 338 92 396 92 c 0,21,22
 460 92 460 92 533 119.5 c 128,-1,23
 606 147 606 147 657 185 c 1,9,10
1382 554 m 1,24,-1
 804 486 l 1,25,-1
 804 462 l 2,26,27
 804 283 804 283 863 205.5 c 128,-1,28
 922 128 922 128 1083 128 c 0,29,30
 1169 128 1169 128 1227 147 c 128,-1,31
 1285 166 1285 166 1345 208 c 1,32,33
 1364 194 1364 194 1374 179 c 1,34,35
 1348 114 1348 114 1290.5 67.5 c 128,-1,36
 1233 21 1233 21 1164 0.5 c 128,-1,37
 1095 -20 1095 -20 1021 -20 c 0,38,39
 820 -20 820 -20 690 132 c 1,40,41
 607 60 607 60 501 20 c 128,-1,42
 395 -20 395 -20 297 -20 c 0,43,44
 197 -20 197 -20 133 30.5 c 128,-1,45
 69 81 69 81 69 172 c 0,46,47
 69 224 69 224 85 265 c 128,-1,48
 101 306 101 306 134 335 c 128,-1,49
 167 364 167 364 202.5 384.5 c 128,-1,50
 238 405 238 405 294 422 c 128,-1,51
 350 439 350 439 394 449.5 c 128,-1,52
 438 460 438 460 504.5 475 c 128,-1,53
 571 490 571 490 613 501 c 1,54,-1
 613 622 l 2,55,56
 613 852 613 852 448 852 c 0,57,58
 422 852 422 852 384 844 c 128,-1,59
 346 836 346 836 309 813.5 c 128,-1,60
 272 791 272 791 272 760 c 0,61,62
 272 740 272 740 289.5 710.5 c 128,-1,63
 307 681 307 681 307 669 c 0,64,65
 307 648 307 648 266.5 613 c 128,-1,66
 226 578 226 578 191 578 c 0,67,68
 157 578 157 578 130 623.5 c 128,-1,69
 103 669 103 669 103 711 c 0,70,71
 103 758 103 758 132 796 c 128,-1,72
 161 834 161 834 204 857.5 c 128,-1,73
 247 881 247 881 301 896.5 c 128,-1,74
 355 912 355 912 401 918 c 128,-1,75
 447 924 447 924 486 924 c 0,76,77
 692 924 692 924 759 791 c 1,78,79
 855 926 855 926 1049 926 c 0,80,81
 1201 926 1201 926 1291.5 819.5 c 128,-1,82
 1382 713 1382 713 1382 554 c 1,24,-1
EndSplineSet
EndChar

StartChar: eth
Encoding: 169 240 172
Width: 1091
Flags: W
LayerCount: 2
Fore
SplineSet
946 1262 m 1,0,1
 932 1245 932 1245 895.5 1226 c 128,-1,2
 859 1207 859 1207 812 1186.5 c 128,-1,3
 765 1166 765 1166 751 1159 c 1,4,5
 875 1033 875 1033 941 861 c 128,-1,6
 1007 689 1007 689 1007 507 c 0,7,8
 1007 404 1007 404 975 309 c 128,-1,9
 943 214 943 214 885 140.5 c 128,-1,10
 827 67 827 67 738 23 c 128,-1,11
 649 -21 649 -21 542 -21 c 0,12,13
 350 -21 350 -21 216 114.5 c 128,-1,14
 82 250 82 250 82 443 c 0,15,16
 82 573 82 573 134 682 c 128,-1,17
 186 791 186 791 287 858.5 c 128,-1,18
 388 926 388 926 520 926 c 0,19,20
 644 926 644 926 748 837 c 1,21,-1
 751 839 l 1,22,23
 723 982 723 982 629 1104 c 1,24,25
 586 1087 586 1087 508.5 1050 c 128,-1,26
 431 1013 431 1013 412 1004 c 1,27,28
 383 1021 383 1021 373 1055 c 1,29,30
 395 1079 395 1079 430.5 1098 c 128,-1,31
 466 1117 466 1117 514 1137 c 128,-1,32
 562 1157 562 1157 581 1167 c 1,33,34
 509 1250 509 1250 369 1347 c 1,35,-1
 416 1380 l 1,36,37
 594 1310 594 1310 693 1218 c 1,38,-1
 863 1306 l 1,39,40
 940 1306 940 1306 946 1262 c 1,0,1
282 490 m 0,41,42
 282 427 282 427 297 356.5 c 128,-1,43
 312 286 312 286 341.5 217 c 128,-1,44
 371 148 371 148 425 102.5 c 128,-1,45
 479 57 479 57 548 57 c 0,46,47
 619 57 619 57 672.5 91 c 128,-1,48
 726 125 726 125 754.5 181 c 128,-1,49
 783 237 783 237 796.5 299 c 128,-1,50
 810 361 810 361 810 428 c 0,51,52
 810 574 810 574 792 638 c 0,53,54
 768 719 768 719 690.5 784 c 128,-1,55
 613 849 613 849 532 849 c 0,56,57
 475 849 475 849 430 827 c 128,-1,58
 385 805 385 805 358 770 c 128,-1,59
 331 735 331 735 313 687 c 128,-1,60
 295 639 295 639 288.5 591 c 128,-1,61
 282 543 282 543 282 490 c 0,41,42
EndSplineSet
EndChar

StartChar: divide
Encoding: 176 247 179
Width: 1262
Flags: W
LayerCount: 2
Fore
SplineSet
630 888 m 128,-1,1
 580 888 580 888 545 922.5 c 128,-1,2
 510 957 510 957 510 1006 c 0,3,4
 510 1054 510 1054 545.5 1090 c 128,-1,5
 581 1126 581 1126 630 1126 c 0,6,7
 680 1126 680 1126 716 1090 c 128,-1,8
 752 1054 752 1054 752 1006 c 0,9,10
 752 959 752 959 716 923.5 c 128,-1,0
 680 888 680 888 630 888 c 128,-1,1
630 125 m 128,-1,12
 580 125 580 125 545 159.5 c 128,-1,13
 510 194 510 194 510 243 c 0,14,15
 510 291 510 291 545.5 326.5 c 128,-1,16
 581 362 581 362 630 362 c 0,17,18
 680 362 680 362 716 326.5 c 128,-1,19
 752 291 752 291 752 243 c 128,-1,20
 752 195 752 195 716 160 c 128,-1,11
 680 125 680 125 630 125 c 128,-1,12
138 699 m 1,21,22
 278 699 278 699 570 699.5 c 128,-1,23
 862 700 862 700 1018 700 c 0,24,25
 1083 700 1083 700 1155 669 c 1,26,27
 1155 583 1155 583 1123 551 c 1,28,29
 979 551 979 551 686.5 549.5 c 128,-1,30
 394 548 394 548 243 548 c 0,31,32
 143 548 143 548 106 579 c 1,33,34
 106 604 106 604 112 626.5 c 128,-1,35
 118 649 118 649 127 669.5 c 128,-1,36
 136 690 136 690 138 699 c 1,21,22
EndSplineSet
EndChar

StartChar: oslash
Encoding: 177 248 180
Width: 1111
Flags: W
LayerCount: 2
Fore
SplineSet
762 698 m 1,0,1
 592 458 592 458 417 144 c 1,2,3
 487 62 487 62 570 62 c 0,4,5
 697 62 697 62 766 151.5 c 128,-1,6
 835 241 835 241 835 372 c 0,7,8
 835 562 835 562 762 698 c 1,0,1
354 219 m 1,9,-1
 708 772 l 1,10,11
 643 860 643 860 535 860 c 0,12,13
 469 860 469 860 418.5 830 c 128,-1,14
 368 800 368 800 339 750.5 c 128,-1,15
 310 701 310 701 296 643.5 c 128,-1,16
 282 586 282 586 282 524 c 0,17,18
 282 345 282 345 354 219 c 1,9,-1
184 -35 m 1,19,-1
 262 91 l 1,20,21
 175 160 175 160 128.5 255 c 128,-1,22
 82 350 82 350 82 460 c 0,23,24
 82 658 82 658 216.5 792 c 128,-1,25
 351 926 351 926 549 926 c 0,26,27
 672 926 672 926 776 867 c 1,28,29
 790 882 790 882 821 949 c 128,-1,30
 852 1016 852 1016 875 1026 c 1,31,32
 934 1011 934 1011 949 970 c 1,33,34
 934 942 934 942 899.5 892.5 c 128,-1,35
 865 843 865 843 852 821 c 1,36,37
 938 759 938 759 983.5 662.5 c 128,-1,38
 1029 566 1029 566 1029 456 c 0,39,40
 1029 252 1029 252 896 116 c 128,-1,41
 763 -20 763 -20 559 -20 c 0,42,43
 446 -20 446 -20 348 42 c 1,44,45
 344 34 344 34 333 8 c 128,-1,46
 322 -18 322 -18 315 -31 c 128,-1,47
 308 -44 308 -44 295.5 -63.5 c 128,-1,48
 283 -83 283 -83 268.5 -95 c 128,-1,49
 254 -107 254 -107 236 -114 c 1,50,51
 201 -103 201 -103 184 -35 c 1,19,-1
EndSplineSet
EndChar

StartChar: thorn
Encoding: 183 254 186
Width: 1130
Flags: W
LayerCount: 2
Fore
SplineSet
352 677 m 1,0,-1
 352 339 l 2,1,2
 352 274 352 274 362 228.5 c 128,-1,3
 372 183 372 183 398 144 c 128,-1,4
 424 105 424 105 476 85.5 c 128,-1,5
 528 66 528 66 605 66 c 0,6,7
 727 66 727 66 794.5 161.5 c 128,-1,8
 862 257 862 257 862 423 c 0,9,10
 862 520 862 520 839 594.5 c 128,-1,11
 816 669 816 669 776.5 711.5 c 128,-1,12
 737 754 737 754 691 775 c 128,-1,13
 645 796 645 796 594 796 c 0,14,15
 475 796 475 796 352 677 c 1,0,-1
352 35 m 1,16,-1
 352 -144 l 2,17,18
 352 -205 352 -205 363 -242 c 1,19,20
 370 -273 370 -273 401.5 -288.5 c 128,-1,21
 433 -304 433 -304 477.5 -312 c 128,-1,22
 522 -320 522 -320 536 -328 c 1,23,24
 536 -342 536 -342 534 -378 c 1,25,-1
 8 -378 l 1,26,27
 5 -351 5 -351 5 -328 c 1,28,29
 15 -320 15 -320 49 -313 c 128,-1,30
 83 -306 83 -306 110.5 -293 c 128,-1,31
 138 -280 138 -280 144 -255 c 1,32,33
 166 -206 166 -206 166 -146 c 2,34,-1
 166 1165 l 1,35,36
 150 1190 150 1190 80 1217.5 c 128,-1,37
 10 1245 10 1245 -1 1256 c 1,38,39
 -1 1279 -1 1279 1 1290 c 1,40,41
 187 1342 187 1342 280 1369 c 1,42,-1
 352 1376 l 1,43,-1
 352 764 l 1,44,45
 500 926 500 926 668 926 c 0,46,47
 828 926 828 926 938 800 c 128,-1,48
 1048 674 1048 674 1048 481 c 0,49,50
 1048 366 1048 366 1011.5 270.5 c 128,-1,51
 975 175 975 175 912.5 112.5 c 128,-1,52
 850 50 850 50 767.5 16 c 128,-1,53
 685 -18 685 -18 592 -18 c 0,54,55
 466 -18 466 -18 352 35 c 1,16,-1
EndSplineSet
EndChar

StartChar: Dcroat
Encoding: 201 272 202
Width: 1613
Flags: W
LayerCount: 2
Fore
SplineSet
292 219 m 2,0,-1
 292 637 l 1,1,-1
 111 637 l 1,2,-1
 111 765 l 1,3,-1
 292 765 l 1,4,-1
 292 1010 l 2,5,6
 292 1069 292 1069 282 1131 c 0,7,8
 278 1154 278 1154 262 1172 c 128,-1,9
 246 1190 246 1190 220 1201.5 c 128,-1,10
 194 1213 194 1213 171 1220.5 c 128,-1,11
 148 1228 148 1228 115.5 1237 c 128,-1,12
 83 1246 83 1246 68 1251 c 1,13,-1
 70 1302 l 1,14,-1
 662 1302 l 2,15,16
 809 1302 809 1302 933.5 1280.5 c 128,-1,17
 1058 1259 1058 1259 1166.5 1210.5 c 128,-1,18
 1275 1162 1275 1162 1350.5 1088.5 c 128,-1,19
 1426 1015 1426 1015 1469 905.5 c 128,-1,20
 1512 796 1512 796 1512 658 c 0,21,22
 1512 556 1512 556 1483 460.5 c 128,-1,23
 1454 365 1454 365 1394.5 281 c 128,-1,24
 1335 197 1335 197 1250.5 134.5 c 128,-1,25
 1166 72 1166 72 1047 36 c 128,-1,26
 928 0 928 0 789 0 c 2,27,-1
 70 0 l 1,28,-1
 68 52 l 1,29,30
 84 57 84 57 126.5 66.5 c 128,-1,31
 169 76 169 76 190.5 84 c 128,-1,32
 212 92 212 92 239.5 108.5 c 128,-1,33
 267 125 267 125 279.5 152.5 c 128,-1,34
 292 180 292 180 292 219 c 2,0,-1
713 637 m 1,35,-1
 507 637 l 1,36,-1
 507 271 l 2,37,38
 507 86 507 86 655 80 c 0,39,40
 711 77 711 77 770 77 c 0,41,42
 870 77 870 77 954.5 107.5 c 128,-1,43
 1039 138 1039 138 1097 190 c 128,-1,44
 1155 242 1155 242 1195.5 311 c 128,-1,45
 1236 380 1236 380 1255 455 c 128,-1,46
 1274 530 1274 530 1274 609 c 0,47,48
 1274 741 1274 741 1238.5 851 c 128,-1,49
 1203 961 1203 961 1132 1046 c 128,-1,50
 1061 1131 1061 1131 944.5 1178 c 128,-1,51
 828 1225 828 1225 675 1225 c 2,52,-1
 507 1225 l 1,53,-1
 507 765 l 1,54,-1
 713 765 l 1,55,-1
 713 637 l 1,35,-1
EndSplineSet
EndChar

StartChar: gcommaaccent
Encoding: 220 291 215
Width: 965
Flags: W
LayerCount: 2
Fore
SplineSet
560 1 m 2,0,-1
 481 2 l 2,1,2
 409 3 409 3 303 15 c 1,3,4
 206 -68 206 -68 206 -137 c 0,5,6
 206 -174 206 -174 234.5 -201.5 c 128,-1,7
 263 -229 263 -229 307 -242.5 c 128,-1,8
 351 -256 351 -256 391.5 -262 c 128,-1,9
 432 -268 432 -268 468 -268 c 0,10,11
 521 -268 521 -268 577.5 -259 c 128,-1,12
 634 -250 634 -250 685.5 -232.5 c 128,-1,13
 737 -215 737 -215 770 -185 c 128,-1,14
 803 -155 803 -155 803 -118 c 0,15,16
 803 -2 803 -2 560 1 c 2,0,-1
288 634 m 0,17,18
 288 520 288 520 335.5 447 c 128,-1,19
 383 374 383 374 477 374 c 0,20,21
 558 374 558 374 597.5 434 c 128,-1,22
 637 494 637 494 637 597 c 0,23,24
 637 717 637 717 584 784.5 c 128,-1,25
 531 852 531 852 449 852 c 0,26,27
 380 852 380 852 334 791 c 128,-1,28
 288 730 288 730 288 634 c 0,17,18
941 888 m 1,29,-1
 926 761 l 1,30,31
 902 768 902 768 854 778.5 c 128,-1,32
 806 789 806 789 770 796 c 2,33,-1
 733 803 l 1,34,35
 742 793 742 793 755 776 c 128,-1,36
 768 759 768 759 790 712 c 128,-1,37
 812 665 812 665 812 626 c 0,38,39
 812 525 812 525 758.5 451 c 128,-1,40
 705 377 705 377 626 342.5 c 128,-1,41
 547 308 547 308 458 308 c 0,42,43
 408 308 408 308 330 326 c 1,44,45
 323 320 323 320 306.5 310 c 128,-1,46
 290 300 290 300 282 293.5 c 128,-1,47
 274 287 274 287 266.5 273.5 c 128,-1,48
 259 260 259 260 259 243 c 0,49,50
 259 228 259 228 267 218 c 128,-1,51
 275 208 275 208 294 201.5 c 128,-1,52
 313 195 313 195 335 191.5 c 128,-1,53
 357 188 357 188 394.5 185.5 c 128,-1,54
 432 183 432 183 466.5 181.5 c 128,-1,55
 501 180 501 180 555.5 177 c 128,-1,56
 610 174 610 174 656 171 c 0,57,58
 783 162 783 162 861 105 c 128,-1,59
 939 48 939 48 939 -52 c 0,60,61
 939 -142 939 -142 870.5 -211 c 128,-1,62
 802 -280 802 -280 690 -315.5 c 128,-1,63
 578 -351 578 -351 442 -351 c 0,64,65
 274 -351 274 -351 175 -300 c 128,-1,66
 76 -249 76 -249 76 -184 c 0,67,68
 76 -89 76 -89 229 24 c 1,69,70
 173 47 173 47 141.5 83 c 128,-1,71
 110 119 110 119 110 163 c 0,72,73
 110 216 110 216 153 261 c 128,-1,74
 196 306 196 306 275 352 c 1,75,76
 110 445 110 445 110 613 c 0,77,78
 110 750 110 750 208 838 c 128,-1,79
 306 926 306 926 457 926 c 0,80,81
 576 926 576 926 677 873 c 1,82,83
 803 892 803 892 894 892 c 1,84,-1
 941 888 l 1,29,-1
617 1595 m 1,85,86
 645 1572 645 1572 653 1539 c 1,87,88
 640 1532 640 1532 611.5 1516.5 c 128,-1,89
 583 1501 583 1501 568.5 1493 c 128,-1,90
 554 1485 554 1485 532.5 1469 c 128,-1,91
 511 1453 511 1453 500.5 1438.5 c 128,-1,92
 490 1424 490 1424 482 1402.5 c 128,-1,93
 474 1381 474 1381 474 1356 c 1,94,95
 505 1312 505 1312 560 1303 c 0,96,97
 665 1284 665 1284 665 1190 c 0,98,99
 665 1134 665 1134 626.5 1097 c 128,-1,100
 588 1060 588 1060 526 1060 c 0,101,102
 445 1060 445 1060 395 1117.5 c 128,-1,103
 345 1175 345 1175 345 1266 c 0,104,105
 345 1380 345 1380 419 1476.5 c 128,-1,106
 493 1573 493 1573 617 1595 c 1,85,86
EndSplineSet
EndChar

StartChar: Hbar
Encoding: 223 294 216
Width: 1635
Flags: W
LayerCount: 2
Fore
SplineSet
73 1176 m 1,0,-1
 704 1176 l 1,1,2
 709 1159 709 1159 709 1158 c 0,3,4
 709 1139 709 1139 674.5 1128.5 c 128,-1,5
 640 1118 640 1118 598.5 1113 c 128,-1,6
 557 1108 557 1108 522.5 1087.5 c 128,-1,7
 488 1067 488 1067 488 1030 c 2,8,-1
 488 925 l 1,9,-1
 1145 925 l 1,10,-1
 1145 1030 l 2,11,12
 1145 1065 1145 1065 1112.5 1085.5 c 128,-1,13
 1080 1106 1080 1106 1040.5 1111.5 c 128,-1,14
 1001 1117 1001 1117 968.5 1128.5 c 128,-1,15
 936 1140 936 1140 936 1159 c 0,16,17
 936 1163 936 1163 940 1176 c 1,18,-1
 1559 1176 l 1,19,20
 1564 1159 1564 1159 1564 1158 c 0,21,22
 1564 1140 1564 1140 1532 1129 c 128,-1,23
 1500 1118 1500 1118 1462 1112 c 128,-1,24
 1424 1106 1424 1106 1392 1085 c 128,-1,25
 1360 1064 1360 1064 1360 1030 c 2,26,-1
 1360 124 l 2,27,28
 1360 89 1360 89 1392.5 72 c 128,-1,29
 1425 55 1425 55 1463.5 53 c 128,-1,30
 1502 51 1502 51 1534.5 43 c 128,-1,31
 1567 35 1567 35 1567 17 c 0,32,33
 1567 12 1567 12 1563 0 c 1,34,-1
 940 0 l 1,35,36
 935 12 935 12 935 18 c 0,37,38
 935 39 935 39 968 47 c 128,-1,39
 1001 55 1001 55 1040 55 c 128,-1,40
 1079 55 1079 55 1112 73 c 128,-1,41
 1145 91 1145 91 1145 130 c 2,42,-1
 1145 576 l 1,43,-1
 488 576 l 1,44,-1
 488 124 l 2,45,46
 488 89 488 89 523 72 c 128,-1,47
 558 55 558 55 600 53 c 128,-1,48
 642 51 642 51 677 43 c 128,-1,49
 712 35 712 35 712 17 c 0,50,51
 712 12 712 12 708 0 c 1,52,-1
 73 0 l 1,53,54
 68 12 68 12 68 18 c 0,55,56
 68 36 68 36 89 43.5 c 128,-1,57
 110 51 110 51 140 53 c 128,-1,58
 170 55 170 55 200.5 59 c 128,-1,59
 231 63 231 63 252 80.5 c 128,-1,60
 273 98 273 98 273 130 c 2,61,-1
 273 1030 l 2,62,63
 273 1064 273 1064 241 1084.5 c 128,-1,64
 209 1105 209 1105 171 1110.5 c 128,-1,65
 133 1116 133 1116 101 1128 c 128,-1,66
 69 1140 69 1140 69 1159 c 0,67,68
 69 1163 69 1163 73 1176 c 1,0,-1
488 636 m 1,69,-1
 1145 636 l 1,70,-1
 1145 847 l 1,71,-1
 488 847 l 1,72,-1
 488 636 l 1,69,-1
EndSplineSet
EndChar

StartChar: hbar
Encoding: 224 295 217
Width: 1190
Flags: W
LayerCount: 2
Fore
SplineSet
1012 568 m 2,0,-1
 1012 221 l 2,1,2
 1012 170 1012 170 1024 133 c 1,3,4
 1030 104 1030 104 1056.5 88.5 c 128,-1,5
 1083 73 1083 73 1118.5 65 c 128,-1,6
 1154 57 1154 57 1164 50 c 1,7,-1
 1162 0 l 1,8,-1
 670 0 l 1,9,10
 668 34 668 34 668 50 c 1,11,12
 677 54 677 54 718.5 65 c 128,-1,13
 760 76 760 76 785.5 92 c 128,-1,14
 811 108 811 108 817 136 c 0,15,16
 826 179 826 179 826 214 c 2,17,-1
 826 577 l 2,18,19
 826 687 826 687 779.5 752.5 c 128,-1,20
 733 818 733 818 634 818 c 0,21,22
 503 818 503 818 375 684 c 1,23,-1
 375 233 l 2,24,25
 375 186 375 186 384 137 c 0,26,27
 390 107 390 107 418.5 91 c 128,-1,28
 447 75 447 75 492 65.5 c 128,-1,29
 537 56 537 56 549 50 c 1,30,-1
 548 0 l 1,31,-1
 15 0 l 1,32,33
 13 34 13 34 13 50 c 1,34,35
 22 59 22 59 55.5 64 c 128,-1,36
 89 69 89 69 118.5 78.5 c 128,-1,37
 148 88 148 88 154 109 c 1,38,39
 188 150 188 150 188 233 c 2,40,-1
 188 1001 l 1,41,-1
 1 1001 l 1,42,-1
 1 1088 l 1,43,-1
 188 1088 l 1,44,-1
 188 1164 l 1,45,46
 175 1184 175 1184 132 1207.5 c 128,-1,47
 89 1231 89 1231 52 1244 c 1,48,-1
 16 1258 l 1,49,-1
 17 1293 l 1,50,-1
 303 1369 l 1,51,-1
 375 1376 l 1,52,-1
 375 1088 l 1,53,-1
 603 1088 l 1,54,-1
 603 1001 l 1,55,-1
 375 1001 l 1,56,-1
 375 768 l 1,57,58
 455 847 455 847 530 886.5 c 128,-1,59
 605 926 605 926 705 926 c 0,60,61
 844 926 844 926 928 837.5 c 128,-1,62
 1012 749 1012 749 1012 568 c 2,0,-1
EndSplineSet
EndChar

StartChar: dotlessi
Encoding: 234 305 227
Width: 589
Flags: W
LayerCount: 2
Fore
SplineSet
219 181 m 2,0,-1
 219 707 l 1,1,2
 202 736 202 736 140.5 756.5 c 128,-1,3
 79 777 79 777 67 791 c 1,4,5
 67 800 67 800 69 826 c 1,6,-1
 346 906 l 1,7,-1
 405 912 l 1,8,-1
 405 220 l 2,9,10
 405 169 405 169 415 135 c 1,11,12
 420 105 420 105 449 89 c 128,-1,13
 478 73 478 73 514 65 c 128,-1,14
 550 57 550 57 559 50 c 1,15,16
 559 34 559 34 557 0 c 1,17,-1
 49 0 l 1,18,19
 47 18 47 18 47 50 c 1,20,21
 58 56 58 56 91.5 67 c 128,-1,22
 125 78 125 78 150.5 88 c 128,-1,23
 176 98 176 98 197.5 122.5 c 128,-1,24
 219 147 219 147 219 181 c 2,0,-1
EndSplineSet
EndChar

StartChar: kgreenlandic
Encoding: 241 312 234
Width: 1140
Flags: W
LayerCount: 2
Fore
SplineSet
213 120 m 2,0,-1
 213 780 l 2,1,2
 213 806 213 806 186 823 c 128,-1,3
 159 840 159 840 126.5 846.5 c 128,-1,4
 94 853 94 853 67 863.5 c 128,-1,5
 40 874 40 874 40 888 c 0,6,7
 40 893 40 893 43 900 c 1,8,-1
 567 900 l 1,9,10
 571 891 571 891 571 886 c 0,11,12
 571 871 571 871 547.5 862 c 128,-1,13
 524 853 524 853 495 849 c 128,-1,14
 466 845 466 845 442.5 828.5 c 128,-1,15
 419 812 419 812 419 784 c 2,16,-1
 419 475 l 1,17,-1
 481 475 l 1,18,-1
 831 810 l 1,19,20
 833 815 833 815 833 821 c 0,21,22
 833 842 833 842 813 852 c 128,-1,23
 793 862 793 862 768.5 862 c 128,-1,24
 744 862 744 862 724 867.5 c 128,-1,25
 704 873 704 873 704 887 c 0,26,27
 704 892 704 892 707 900 c 1,28,-1
 1101 900 l 1,29,-1
 1104 887 l 1,30,31
 1104 866 1104 866 1021 849 c 1,32,33
 952 833 952 833 919 806 c 1,34,-1
 623 522 l 1,35,-1
 957 94 l 2,36,37
 968 81 968 81 1013 66 c 128,-1,38
 1058 51 1058 51 1095.5 38 c 128,-1,39
 1133 25 1133 25 1133 13 c 0,40,41
 1133 4 1133 4 1130 0 c 1,42,-1
 635 0 l 1,43,44
 630 10 630 10 630 12 c 0,45,46
 630 27 630 27 659 32 c 128,-1,47
 688 37 688 37 717.5 45 c 128,-1,48
 747 53 747 53 747 74 c 0,49,50
 747 83 747 83 734 97 c 1,51,-1
 484 420 l 1,52,-1
 419 420 l 1,53,-1
 419 116 l 2,54,55
 419 88 419 88 442.5 71.5 c 128,-1,56
 466 55 466 55 495 50.5 c 128,-1,57
 524 46 524 46 547.5 37.5 c 128,-1,58
 571 29 571 29 571 14 c 0,59,60
 571 9 571 9 567 0 c 1,61,-1
 43 0 l 1,62,63
 40 7 40 7 40 12 c 0,64,65
 40 26 40 26 67 36.5 c 128,-1,66
 94 47 94 47 126.5 53.5 c 128,-1,67
 159 60 159 60 186 77 c 128,-1,68
 213 94 213 94 213 120 c 2,0,-1
EndSplineSet
EndChar

StartChar: Lslash
Encoding: 250 321 243
Width: 1294
Flags: W
LayerCount: 2
Fore
SplineSet
513 624 m 1,0,-1
 513 136 l 2,1,2
 513 56 513 56 558 56 c 1,3,-1
 864 67 l 2,4,5
 931 69 931 69 962 96.5 c 128,-1,6
 993 124 993 124 1014 207 c 0,7,8
 1048 346 1048 346 1079 346 c 0,9,10
 1080 346 1080 346 1082 345 c 128,-1,11
 1084 344 1084 344 1089.5 342.5 c 128,-1,12
 1095 341 1095 341 1103 341 c 1,13,-1
 1075 -20 l 1,14,15
 1072 -26 1072 -26 1067 -26 c 1,16,17
 977 0 977 0 908 0 c 2,18,-1
 72 0 l 1,19,20
 68 11 68 11 68 22 c 0,21,22
 68 43 68 43 91.5 52 c 128,-1,23
 115 61 115 61 149 64 c 128,-1,24
 183 67 183 67 217 71.5 c 128,-1,25
 251 76 251 76 274.5 93 c 128,-1,26
 298 110 298 110 298 142 c 2,27,-1
 298 537 l 1,28,-1
 265 524 l 2,29,30
 181 491 181 491 159 491 c 0,31,32
 158 491 158 491 157 491 c 0,33,34
 142 491 142 491 130 503.5 c 128,-1,35
 118 516 118 516 118 534 c 128,-1,36
 118 552 118 552 141.5 568 c 128,-1,37
 165 584 165 584 228 609 c 2,38,-1
 298 637 l 1,39,-1
 298 1038 l 2,40,41
 298 1075 298 1075 269 1093 c 128,-1,42
 240 1111 240 1111 203 1113.5 c 128,-1,43
 166 1116 166 1116 126 1126.5 c 128,-1,44
 86 1137 86 1137 70 1159 c 1,45,46
 70 1163 70 1163 74 1176 c 1,47,-1
 744 1176 l 1,48,49
 748 1167 748 1167 748 1157 c 0,50,51
 748 1139 748 1139 724 1130.5 c 128,-1,52
 700 1122 700 1122 665 1120 c 128,-1,53
 630 1118 630 1118 595.5 1114 c 128,-1,54
 561 1110 561 1110 537 1093 c 128,-1,55
 513 1076 513 1076 513 1044 c 2,56,-1
 513 724 l 1,57,-1
 705 802 l 2,58,59
 778 831 778 831 810 831 c 0,60,61
 831 831 831 831 842 819 c 128,-1,62
 853 807 853 807 853 787 c 0,63,64
 853 778 853 778 848.5 771 c 128,-1,65
 844 764 844 764 826.5 754.5 c 128,-1,66
 809 745 809 745 794 738.5 c 128,-1,67
 779 732 779 732 740 716 c 2,68,-1
 513 624 l 1,0,-1
EndSplineSet
EndChar

StartChar: lslash
Encoding: 251 322 244
Width: 578
Flags: W
LayerCount: 2
Fore
SplineSet
195 724 m 1,0,-1
 195 1122 l 2,1,2
 195 1152 195 1152 146 1171 c 128,-1,3
 97 1190 97 1190 48 1202.5 c 128,-1,4
 -1 1215 -1 1215 -1 1227 c 0,5,6
 -1 1236 -1 1236 3 1244 c 1,7,-1
 402 1314 l 1,8,-1
 402 779 l 1,9,-1
 445 791 l 2,10,11
 506 808 506 808 540 808 c 0,12,13
 590 808 590 808 590 767 c 0,14,15
 590 744 590 744 568.5 733.5 c 128,-1,16
 547 723 547 723 469 702 c 2,17,-1
 402 684 l 1,18,-1
 402 120 l 2,19,20
 402 89 402 89 430 72 c 128,-1,21
 458 55 458 55 491 52 c 128,-1,22
 524 49 524 49 552 41.5 c 128,-1,23
 580 34 580 34 580 18 c 0,24,25
 580 8 580 8 576 0 c 1,26,-1
 16 0 l 1,27,28
 12 12 12 12 12 17 c 0,29,30
 12 36 12 36 41 45 c 128,-1,31
 70 54 70 54 104 57.5 c 128,-1,32
 138 61 138 61 167 77.5 c 128,-1,33
 196 94 196 94 196 126 c 2,34,-1
 195 629 l 1,35,-1
 167 621 l 2,36,37
 99 601 99 601 64 601 c 0,38,39
 23 601 23 601 23 645 c 0,40,41
 23 664 23 664 47 676.5 c 128,-1,42
 71 689 71 689 141 709 c 2,43,-1
 195 724 l 1,0,-1
EndSplineSet
EndChar

